<?xml version="1.0" encoding="UTF-8" standalone="no"?>
<?xml-stylesheet href="../../../css/family_tree.css" type="text/css"?>
<svg
  xmlns="http://www.w3.org/2000/svg"
  xmlns:xlink="http://www.w3.org/1999/xlink"
  xmlns:rdf="http://www.w3.org/1999/02/22-rdf-syntax-ns#"
  xmlns:dc="http://purl.org/dc/elements/1.1/"
  xmlns:cc="http://creativecommons.org/ns#"
  viewBox="0 0 607 198"
  width="607"
  height="198"
>
  <title id="Journey_title">The family from Journey to...</title>
  <metadata id="Journey_metadata">
    <rdf:RDF>
      <cc:Work rdf:about="">
        <dc:format>image/svg+xml</dc:format>
        <dc:type rdf:resource="http://purl.org/dc/dcmitype/StillImage" />
        <dc:title>The family from Journey to...</dc:title>
        <dc:creator>
          <cc:Agent>
            <dc:title>Burge, Dawn M.</dc:title>
          </cc:Agent>
        </dc:creator>
        <dc:language>en-US</dc:language>
        <dc:date>2019-10</dc:date>
      </cc:Work>
    </rdf:RDF>
  </metadata>
  <style id="Family_styles" type="text/css">
    @import url(../../../css/family_tree.css);
    g.deceased.male   rect { fill: url(#m_dead); }
    g.deceased.female rect { fill: url(#f_dead); }
  </style>
  <defs id="Family_defs">
    <radialGradient id="m_dead">
      <stop id="stop4423" style="stop-color:#ccccff;stop-opacity:0.85;" offset="75%" />
      <stop id="stop4425" style="stop-color:#eeeeff;stop-opacity:0.85;" offset="100%" />
    </radialGradient>
    <radialGradient id="f_dead">
      <stop id="stop4677" style="stop-color:#ffcccc;stop-opacity:0.85;" offset="75%" />
      <stop id="stop4679" style="stop-color:#ffeeee;stop-opacity:0.85;" offset="100%" />
    </radialGradient>
  </defs>
  <!--
    Generated by graphviz version 2.40.1 (20161225.0304)
    Edited with Geany 1.33 (built on 2018-04-16 with GTK 3.22.29, GLib 2.56.1)
  -->
  <g id="Journey" class="graph" transform="translate(5,192)">
    <title>The family from Journey to...</title>
    <text x="303" y="-180" id="Journey_chart_title1" class="chart_title">The Anderson family from <tspan style="font-style:italic">Journey to...</tspan></text>
    <g id="Anderson1--family" class="child" transform="translate(295,-129)">
      <title>Children of Alexander Anderson</title>
      <path d="m 0,0 v 20" id="Alexander--cAlexan" />
      <path d="m 0,20 h -50 v 20" id="cAlexan--Maximillion" />
      <path d="m 0,20 h  50 v 20" id="cAlexan--Trevor" />
      <circle cx="0" cy="20" r="1.5" id="cAlexan" />
    </g>
    <g id="Asgeirsson--family" class="child" transform="translate(461,-129)">
      <title>Child of Sigurbjörn Ásgeirsson</title>
      <path d="m 0,0 v 40" id="Sigurbjorn--Hannah" />
    </g>
    <g id="Parsons--family" class="marriage" transform="translate(78,-72)">
      <title>Marriage of Elizabeth and Hank</title>
      <path d="m 0,0 h -19" id="mEliHan--Hank"/>
      <path d="m 0,0 h  19" id="mEliHan--Elizabeth" />
      <circle cx="0" cy="0" r="1.5" id="mEliHan" />
    </g>
    <g id="Anderson2--family" class="marriage" transform="translate(184,-72)">
      <title>Marriage of Elizabeth and Maximillion</title>
      <path d="m 0,0 h -19" id="mEliMax--Elizabeth"/>
      <path d="m 0,0 h  19" id="mEliMax--Maximillion" />
      <g id="EliMax--child" class="child">
        <title>Child of Elizabeth Parsons (Anderson) and Maximillion Anderson</title>
        <path d="m 0,0 v 38" id="mEliMax--Sean" />
      </g>
      <circle cx="0" cy="0" r="1.5" id="mEliMax" />
    </g>
    <g id="Anderson3--relationship" class="dating" transform="translate(400,-72)">
      <title>Relationship of Hannah and Trevor</title>
      <path d="m 0,0 h -19" id="dHanTre--Trevor"/>
      <path d="m 0,0 h  19" id="dHanTre--Hannah"/>
      <circle cx="0" cy="0" r="1.5" id="dHanTre" />
    </g>
    <g id="Laguatan--family" class="child" transform="translate(560,-54)">
      <title>Child of Gabato</title>
      <path d="m 0,0 v 20"/>
    </g>
    <g id="Anderson4--relationship" class="dating" transform="translate(372,-18)">
      <title>Relationship of Kailani and Sean</title>
      <path d="m 0,0 h -151" id="dKaiSea--Sean" />
      <path d="m 0,0 h  151" id="dKaiSea--Kailani" />
      <circle cx="0" cy="0" r="1.5" id="dKaiSea" />
    </g>

    <g id="Alexander" class="male" transform="translate(256,-165)">
      <title>Alexander Anderson</title>
      <rect x="0" y="0" width="78" height="36" />
      <text x="39" y="12">Alexander</text>
      <text x="39" y="24">Anderson</text>
    </g>
    <g id="Sigurbjorn" class="male" transform="translate(419,-165)">
      <title>Sigurbjörn Ásgeirsson</title>
      <rect x="0" y="0" width="84" height="36" />
      <text x="42" y="12">Sigurbjörn</text>
      <text x="42" y="24">Ásgeirsson</text>
    </g>
    <g id="Hank" class="male" transform="translate(0,-90)">
      <title>Hank Parsons</title>
      <rect x="0" y="0" width="60" height="36" />
      <text x="30" y="12">Hank</text>
      <text x="30" y="24">Parsons</text>
    </g>
    <g id="Elizabeth" class="female" transform="translate(97,-90)">
      <title>Elizabeth Parsons</title>
      <rect x="0" y="0" width="68" height="36" />
      <text x="34" y="12">Elizabeth</text>
      <text x="34" y="24">Parsons</text>
    </g>
    <g id="Maximillion" class="male deceased" transform="translate(203,-90)">
      <title>Maximillion Anderson</title>
      <rect x="0" y="0" width="84" height="36" />
      <text x="42" y="12">Maximillion</text>
      <text x="42" y="24">Anderson</text>
    </g>
    <g id="Trevor" class="male" transform="translate(307,-90)">
      <title>Trevor Anderson</title>
      <rect x="0" y="0" width="74" height="36" />
      <text x="37" y="12">Trevor</text>
      <text x="37" y="24">Anderson</text>
    </g>
    <g id="Hannah" class="female" transform="translate(419,-90)">
      <title>Hannah Ásgeirsson</title>
      <rect x="0" y="0" width="84" height="36" />
      <text x="42" y="12">Hannah</text>
      <text x="42" y="24">Ásgeirsson</text>
    </g>
    <g id="Gabato" class="male" transform="translate(523,-90)">
      <title>Gabato Laguatan</title>
      <rect x="0" y="0" width="74" height="36" />
      <text x="37" y="12">Gabato</text>
      <text x="37" y="24">Laguatan</text>
    </g>
    <g id="Sean" class="male" transform="translate(147,-36)">
      <title>Sean Anderson</title>
      <rect x="0" y="0" width="74" height="36" />
      <text x="37" y="12">Sean</text>
      <text x="37" y="24">Anderson</text>
    </g>
    <g id="Kailani" class="female" transform="translate(523,-36)">
      <title>Kailani Laguatan</title>
      <rect x="0" y="0" width="74" height="36" />
      <text x="37" y="12">Kailani</text>
      <text x="37" y="24">Laguatan</text>
    </g>
  </g>
</svg>
