<?xml version="1.0" encoding="UTF-8" standalone="no"?>
<?xml-stylesheet href="../../../css/family_tree.css" type="text/css"?>
<svg
  xmlns="http://www.w3.org/2000/svg"
  xmlns:xlink="http://www.w3.org/1999/xlink"
  xmlns:rdf="http://www.w3.org/1999/02/22-rdf-syntax-ns#"
  xmlns:dc="http://purl.org/dc/elements/1.1/"
  xmlns:cc="http://creativecommons.org/ns#"
  viewBox="0 0 662 279"
  width="662"
  height="279"
>
  <title id="Vampire_title">Vampire family from Buffy the Vampire Slayer</title>
  <metadata id="Vampires_metadata">
    <rdf:RDF>
      <cc:Work rdf:about="">
        <dc:format>image/svg+xml</dc:format>
        <dc:type rdf:resource="http://purl.org/dc/dcmitype/StillImage" />
        <dc:title>Vampire family from Buffy the Vampire Slayer</dc:title>
        <dc:creator>
          <cc:Agent>
            <dc:title>Burge, Dawn M.</dc:title>
          </cc:Agent>
        </dc:creator>
        <dc:language>en-US</dc:language>
        <dc:date>2019-10</dc:date>
      </cc:Work>
    </rdf:RDF>
  </metadata>
  <style id="Family_styles" type="text/css">
    @import url(../../../css/family_tree.css);
  </style>
  <!--
    Generated by graphviz version 2.40.1 (20161225.0304)
    Edited with Geany 1.33 (built on 2018-04-16 with GTK 3.22.29, GLib 2.56.1)
  -->
  <g id="BuffyVampire" class="graph" transform="translate(5 269)">
    <title>Vampire family from Buffy the Vampire Slayer</title>
    <text x="331" y="-256" id="Vampires_chart_title1" class="chart_title">Vampire family from</text>
    <text x="331" y="-240" id="Vampires_chart_title2" class="chart_title" style="font-style:italic">Buffy the Vampire Slayer</text>
    <g id="Master--sired" class="child" transform="translate(90,-113)">
      <title>Master--sired</title>
      <path d="m 0, 0 h 18" />
      <path d="m 18,0 v -40 h 18" id="Master--Luke"/>
      <path d="m 18,0 v  37 h 18" id="Master--Darla" />
    </g>
    <g id="Luke--Jesse" class="child">
      <title>Luke--Jesse</title>
      <path d="m 198,-153 h 36"/>
    </g>
    <g id="Darla--sired" class="child" transform="translate(198,-72)">
      <title>Darla--sired</title>
      <path d="m 0,0 h 18" />
      <path d="m 18,0 v -27 h 18" id="Darla--Angel"/>
      <path d="m 18,0 v  27 h 18" id="Darla--Sarah" />
    </g>
    <g id="Angel--sired" class="child" transform="translate(306,-99)">
      <title>Angel--sired</title>
      <path d="m 0,0 h 18" />
      <path d="m 18,0 v -81 h 18" id="Angel--Drusilla"/>
      <path d="m 18,-27 h 18" id="Angel--Penn" />
      <path d="m 18, 27 h 18" id="Angel--Sam"/>
      <path d="m 18,0 v  81 h 18" id="Angel--Theresa" />
    </g>
    <g id="Drusilla--sired" class="edge" transform="translate(432,-180)">
      <title>Drusilla--sired</title>
      <path d="m 0,0 h 18" />
      <path d="m 18,0 v -27 h 18" id="Drusilla--Spike" />
      <path d="m 18,0 v  27 h 18" id="Drusilla--Sheila"/>
      <path d="m 18,0 v 188 h -342 v -78 h 18" id="Drusilla--Darla"/>
    </g>
    <g id="Spike--sired" class="child">
      <title>Spike--sired</title>
      <path d="m 540,-208 h 36"/>
    </g>
    <g id="Master" class="male" transform="translate(0,-132)">
      <title>The Master</title>
      <rect x="0" y="0" width="90" height="36" />
      <text x="45" y="18">The Master</text>
    </g>
    <g id="Luke" class="male" transform="translate(126,-171)">
      <title>Luke</title>
      <rect x="0" y="0" width="72" height="36" />
      <text x="36" y="18">Luke</text>
    </g>
    <g id="Darla" class="female" transform="translate(126,-90)">
      <title>Darla</title>
      <rect x="0" y="0" width="72" height="36" />
      <text x="36" y="18">Darla</text>
    </g>
    <g id="Jesse" class="male" transform="translate(234,-171)">
      <title>Jesse</title>
      <rect x="0" y="0" width="72" height="36" />
      <text x="36" y="18">Jesse</text>
    </g>
    <g id="Angel" class="male" transform="translate(234,-117)">
      <title>Angel (Liam)</title>
      <rect x="0" y="0" width="72" height="36" />
      <text x="36" y="12">Angel</text>
      <text x="36" y="24">(Liam)</text>
    </g>
    <g id="Sarah" class="female" transform="translate(234,-63)">
      <title>Sarah Holtz</title>
      <rect x="0" y="0" width="72" height="36" />
      <text x="36" y="12">Sarah</text>
      <text x="36" y="24">Holtz</text>
    </g>
    <g id="Drusilla" class="female" transform="translate(342,-198)">
      <title>Drusilla</title>
      <rect x="0" y="0" width="90" height="36" />
      <text x="45" y="18">Drusilla</text>
    </g>
    <g id="Penn" class="male" transform="translate(342,-144)">
      <title>Penn</title>
      <rect x="0" y="0" width="90" height="36" />
      <text x="45" y="18">Penn</text>
    </g>
    <g id="Sam" class="male" transform="translate(342,-90)">
      <title>Sam Lawson</title>
      <rect x="0" y="0" width="90" height="36" />
      <text x="45" y="12">Sam</text>
      <text x="45" y="24">Lawson</text>
    </g>
    <g id="Theresa" class="female" transform="translate(342,-36)">
      <title>Theresa Klusmeyer</title>
      <rect x="0" y="0" width="90" height="36" />
      <text x="45" y="12">Theresa</text>
      <text x="45" y="24">Klusmeyer</text>
    </g>
    <g id="Spike" class="male" transform="translate(468,-226)">
      <title>Spike (William)</title>
      <rect x="0" y="0" width="72" height="36" />
      <text x="36" y="12">Spike</text>
      <text x="36" y="24">(William)</text>
    </g>
    <g id="Sheila" class="female" transform="translate(468,-170)">
      <title>Sheila</title>
      <rect x="0" y="0" width="72" height="36" />
      <text x="36" y="18">Sheila</text>
    </g>
    <g id="Unknowns" class="neuter unnamed" transform="translate(576,-226)">
      <title>Unknowns</title>
      <rect x="0" y="0" width="76" height="36" />
      <text x="38" y="12">more than</text>
      <text x="38" y="24">10 unnamed</text>
    </g>
  </g>
</svg>
