<?xml version="1.0" encoding="UTF-8" standalone="no"?>
<?xml-stylesheet href="../../../css/family_tree.css" type="text/css"?>
<svg
  xmlns="http://www.w3.org/2000/svg"
  xmlns:xlink="http://www.w3.org/1999/xlink"
  xmlns:rdf="http://www.w3.org/1999/02/22-rdf-syntax-ns#"
  xmlns:dc="http://purl.org/dc/elements/1.1/"
  xmlns:cc="http://creativecommons.org/ns#"
  viewBox="0 0 542 258"
  width="542"
  height="258"
  >
  <title id="SMK_title">The family from Scarecrow &amp; Mrs. King</title>
  <metadata id="SMK_metadata">
    <rdf:RDF>
      <cc:Work rdf:about="">
        <dc:format>image/svg+xml</dc:format>
        <dc:type rdf:resource="http://purl.org/dc/dcmitype/StillImage" />
        <dc:title>The family from Scarecrow &amp; Mrs. King</dc:title>
        <dc:creator>
          <cc:Agent>
            <dc:title>Burge, Dawn M.</dc:title>
          </cc:Agent>
        </dc:creator>
        <dc:language>en-US</dc:language>
        <dc:date>2020-02</dc:date>
      </cc:Work>
    </rdf:RDF>
  </metadata>
  <style id="Family_styles" type="text/css">
    @import url(../../../css/family_tree.css);
    g.deceased.male   rect { fill: url(#m_dead); }
    g.deceased.female rect { fill: url(#f_dead); }
  </style>
  <defs id="Family_defs">
    <radialGradient id="m_dead">
      <stop id="stop4423" style="stop-color:#ccccff;stop-opacity:0.85;" offset="75%" />
      <stop id="stop4425" style="stop-color:#eeeeff;stop-opacity:0.85;" offset="100%" />
    </radialGradient>
    <radialGradient id="f_dead">
      <stop id="stop4677" style="stop-color:#ffcccc;stop-opacity:0.85;" offset="75%" />
      <stop id="stop4679" style="stop-color:#ffeeee;stop-opacity:0.85;" offset="100%" />
    </radialGradient>
  </defs>
  <!--
    Generated by graphviz version 2.40.1 (20161225.0304)
    Edited with Geany 1.33 (built on 2018-04-16 with GTK 3.22.29, GLib 2.56.1)
  -->
  <g id="SMK" class="graph" transform="translate(5,253)">
    <title>The family from Scarecrow &amp; Mrs. King</title>
    <text x="271" y="-239" class="chart_title">The West-King family from</text>
    <text x="271" y="-223" class="chart_title"><tspan style="font-style:italic">Scarecrow &amp; Mrs. King</tspan></text>
    <g id="West-family1" class="child" transform="translate(206,-208)">
      <title>West siblings</title>
      <path d="m 0,0 h -37 v 20" id="sibWest-Carl" />
      <path d="m 0,0 h  37 v 20" id="sibWest-Lillian" />
      <circle cx="0" cy="0" r="1.5" id="sibWest" />
    </g>
    <g id="West-family2" class="marriage" transform="translate(123, -170)">
      <title>Marriage of Dorothy and Carl West</title>
      <path d="m 0,0 h -19" id="mDorunn-CarlWest" />
      <path d="m 0,0 h  19" id="mDorunn-Dorothy" />
      <g id="West-child" class="child">
        <title>Amanda West, daughter of Dorothy and Carl West</title>
        <path d="m 0,0 v 58" id="mDorunn-cDorunn" />
      </g>
      <circle cx="0" cy="0" r="1.5" id="mDorunn" />
    </g>
    <g class="marriage" id="Stetson-family-1" transform="translate(372, -170)">
      <title>Marriage of Jennifer Hamilton and Matthew Stetson</title>
      <path d="m 0,0 h -19" id="mJenMat-JenniferHamilton" />
      <path d="m 0,0 h  19" id="mJenMat-MatthewStetson" />
      <g class="child" id="Stetson-children">
        <title>Lee Stetson, child of Jennifer Hamilton and Matthew Stetson</title>
        <path d="m 0,0 v  58" id="mJenMat-LeeStetson" />
      </g>
      <circle cx="0" cy="0" id="mJenMat" r="1.5" />
    </g>
    <g id="Clayton-adoption" class="child adopted" transform="translate(503, -152)">
      <title>Lee Stetson, adopted son of Robert Clayton</title>
      <path d="m 0,0 v  18 l -131, 20" id="cRobertClayton-LeeStetson" />
    </g>
    <g id="King-family" class="marriage" transform="translate(73,-94)">
      <title>Marriage of Amanda West and Joseph King</title>
      <path d="m 0,0 h -19" id="mAmaJoe-Amanda" />
      <path d="m 0,0 h  19" id="mAmaJoe-Joe" />
      <g id="King-children" class="child">
        <title>Children of Amanda West and Joseph King</title>
        <path d="m 0,0 v 38" id="mAmaJoe-cAmaJoe" />
        <path d="m 0,38 h -36 v 20" id="cAmaJoe-Jamie" />
        <path d="m 0,38 h  36 v 20" id="cAmaJoe-Phillip" />
        <circle cx="0" cy="38" r="1.5" id="cAmaJoe" />
      </g>
      <circle cx="0" cy="0" r="1.5" id="mAmaJoe" />
    </g>
    <g id="Stetson-family-2" class="marriage" transform="translate(246,-94)">
      <title>Marriage of Amanda West and Lee Stetson</title>
      <path d="m 0,0 h -92" id="mAmaLee-Amanda" />
      <path d="m 0,0 h  92" id="mAmaLee-Lee" />
      <circle cx="0" cy="0" r="1.5" id="mAmaLee" />
    </g>

    <g id="DorotheaWest" class="female" transform="translate(42,-188)">
      <title>Dorothea West</title>
      <rect x="0" y="0" width="62" height="38" />
      <text x="31" y="12">Dorothea</text>
      <text x="31" y="24" class="nickname">(Dotty)</text>
    </g>
    <g id="CarlWest" class="male deceased" transform="translate(142,-188)">
      <title>CarlWest</title>
      <rect x="0" y="0" width="54" height="36" />
      <text x="27" y="12">Carl</text>
      <text x="27" y="24">West</text>
    </g>
    <g id="LillianWest" class="female" transform="translate(216,-188)">
      <title>Lillian West</title>
      <rect x="0" y="0" width="54" height="36" />
      <text x="27" y="12">Lillian</text>
      <text x="27" y="24">West</text>
    </g>
    <g id="JenniferHamilton" class="female deceased" transform="translate(290, -188)">
      <title>Jennifer Hamilton</title>
      <rect height="36" width="64" x="0" y="0" />
      <text x="32" y="12">Jennifer</text>
      <text x="32" y="24">Hamilton</text>
    </g>
    <g id="MatthewStetson" class="male deceased" transform="translate(392, -188)">
      <title>Matthew Stetson</title>
      <rect height="36" width="62" x="0" y="0" />
      <text x="33" y="12">Matthew</text>
      <text x="33" y="24">Stetson</text>
    </g>
    <g id="RobertClayton" class="male" transform="translate(474, -188)">
      <title>Robert Clayton</title>
      <rect height="36" width="58" x="0" y="0" />
      <text x="29" y="12">Robert</text>
      <text x="29" y="24">Clayton</text>
    </g>
    <g id="JosephKing" class="male" transform="translate(0,-114)">
      <title>Joseph King (Joe)</title>
      <rect x="0" y="0" width="54" height="38" />
      <text x="27" y="8">Joseph</text>
      <text x="27" y="19">King</text>
      <text x="27" y="30" class="nickname">(Joe)</text>
    </g>
    <g id="AmandaWest" class="female main" transform="translate(92,-114)">
      <title>Amanda West (Mrs. King)</title>
      <rect x="0" y="0" width="62" height="38" />
      <text x="31" y="8">Amanda</text>
      <text x="31" y="19">West</text>
      <text x="31" y="30" class="nickname">(Mrs. King)</text>
    </g>
    <g id="LeeStetson" class="male main" transform="translate(338,-114)">
      <title>Lee Stetson (Scarecrow)</title>
      <rect x="0" y="0" width="68" height="38" />
      <text x="35" y="8">Lee</text>
      <text x="35" y="19">Stetson</text>
      <text x="35" y="30" class="nickname">(Scarecrow)</text>
    </g>
    <g id="JamieKing" class="male" transform="translate(83,-36)">
      <title>Jamie King</title>
      <rect x="0" y="0" width="54" height="36" />
      <text x="27" y="12">Jamie</text>
      <text x="27" y="24">King</text>
    </g>
    <g id="PhillipKing" class="male" transform="translate(9,-36)">
      <title>Phillip King</title>
      <rect x="" y="0" width="54" height="36" />
      <text x="27" y="12">Phillip</text>
      <text x="27" y="24">King</text>
    </g>
  </g>
</svg>
