<?xml version="1.0" encoding="UTF-8" standalone="no"?>
<?xml-stylesheet type="text/css" href="../../../css/crossover.css" ?>
<svg
  xmlns="http://www.w3.org/2000/svg"
  xmlns:svg="http://www.w3.org/2000/svg"
  xmlns:cc="http://creativecommons.org/ns#"
  xmlns:dc="http://purl.org/dc/elements/1.1/"
  xmlns:rdf="http://www.w3.org/1999/02/12-rdf-syntax-ns#"
  viewBox="0 0 597 322"
  width="597"
  height="322"
  id="View_Scream"
>
  <title id="View_Scream_title">View Askewniverse Screams</title>
  <metadata id="View_Scream_metadata">
    <rdf:RDF>
      <cc:Work rdf:about="">
        <dc:format>image/svg+xml</dc:format>
        <dc:type rdf:resource="http://purl.org/dc/dcmitype/StillImage" />
        <dc:title>View Askewniverse Screams</dc:title>
        <dc:date>2019-08-21</dc:date>
        <dc:creator>
          <cc:Agent>
            <dc:title>Burge, Dawn M.</dc:title>
          </cc:Agent>
        </dc:creator>
        <dc:language>en-US</dc:language>
      </cc:Work>
    </rdf:RDF>
  </metadata>
  <style type="text/css" id="Crossover_styles">
    @import url(../../../css/crossover.css);
  </style>
  <g id="View_Scream_chart" transform="translate(5,5)">
    <title id="View_Scream_chart_title">View Askewniverse Screams</title>
    <g id="Zack_Miri_Make_Porno" transform="translate(0,284)">
      <title id="Zack_Miri_Make_Porno_title">Zack and Miri Make a Porno</title>
      <path class="one_cross" d="m 213,14 h 30" id="Zack_Miri_Make_Porno_to_Jay_Silent_Bob_Reboot" />
      <rect id="Zack_Miri_Make_Porno_box"  x="0" y="0" rx="10" width="211" height="28" class="film" />
      <text id="Zack_Miri_Make_Porno_text" x="6" y="14">Zack and Miri Make a Porno</text>
    </g>
    <g id="View_Askew_franchise" transform="translate(214,0)">
      <title id="View_Askew_franchise_title">View Askew</title>
      <path d="m 14,195 h 261 m 4,0 h 13" class="one_cross" id="View_Askew_to_Scream_3" />
      <g class="spinoff" id="View_Askew_spinoff_lines" transform="translate(13)">
        <title id="View_Askew_spinoff_lines_title">The View Askew spinoffs</title>
        <path d="m 0, 30 v 24 h 15" id="View_Askew_to_Clerks" />
        <path d="m 0, 55 v 39 h 15" id="View_Askew_to_Mallrats" />
        <path d="m 0, 95 v 39 h 15" id="View_Askew_to_Chasing_Amy" />
        <path d="m 0, 135 v 39 h 15" id="View_Askew_to_Dogma" />
        <path d="m 0, 175 v 39 h 15" id="View_Askew_to_Jay_Silent_Bob_Strike_Back" />
        <path d="m 0, 215 v 39 h 15" id="View_Askew_to_Clerks_II" />
        <path d="m 0, 255 v 37 h 15" id="View_Askew_to_Jay_Silent_Bob_Reboot" />
      </g>
      <g id="View_Askew" transform="translate(0,0)">
        <title id="View_Askew_title">View Askew</title>
        <rect id="View_Askew_box"  x="0" y="0" rx="10" width="100" height="28" class="film" />
        <text id="View_Askew_text" x="6" y="14">View Askew</text>
      </g>
      <g id="Clerks" transform="translate(30,40)">
        <title id="Clerks_title">Clerks</title>
        <rect id="Clerks_box"  x="0" y="0" rx="10" width="58" height="28" class="film" />
        <text id="Clerks_text" x="6" y="14">Clerks</text>
      </g>
      <g id="Mallrats" transform="translate(30,80)">
        <title id="Mallrats_title">Mallrats</title>
        <rect id="Mallrats_box"  x="0" y="0" rx="10" width="69" height="28" class="film" />
        <text id="Mallrats_text" x="6" y="14">Mallrats</text>
      </g>
      <g id="Chasing_Amy" transform="translate(30,120)">
        <title id="Chasing_Amy_title">Chasing Amy</title>
        <rect id="Chasing_Amy_box"  x="0" y="0" rx="10" width="108" height="28" class="film" />
        <text id="Chasing_Amy_text" x="6" y="14">Chasing Amy</text>
      </g>
      <g id="Dogma" transform="translate(30,160)">
        <title id="Dogma_title">Dogma</title>
        <rect id="Dogma_box"  x="0" y="0" rx="10" width="64" height="28" class="film" />
        <text id="Dogma_text" x="6" y="14">Dogma</text>
      </g>
      <g id="Jay_Silent_Bob_Strike_Back" transform="translate(30,202)">
        <title id="Jay_Silent_Bob_Strike_Back_title">Jay and Silent Bob Strike Back</title>
        <rect id="Jay_Silent_Bob_Strike_Back_box"  x="0" y="0" rx="10" width="232" height="28" class="film" />
        <text id="Jay_Silent_Bob_Strike_Back_text" x="6" y="14">Jay and Silent Bob Strike Back</text>
      </g>
      <g id="Clerks_II" transform="translate(30,242)">
        <title id="Clerks_II_title">Clerks II</title>
        <rect id="Clerks_II_box"  x="0" y="0" rx="10" width="70" height="28" class="film" />
        <text id="Clerks_II_text" x="6" y="14">Clerks II</text>
      </g>
      <g id="Jay_Silent_Bob_Reboot" transform="translate(30,282)">
        <title id="Jay_Silent_Bob_Reboot_title">Jay and Silent Bob Reboot</title>
        <rect id="Jay_Silent_Bob_Reboot_box"  x="0" y="0" rx="10" width="204" height="28" class="film" />
        <text id="Jay_Silent_Bob_Reboot_text" x="6" y="14">Jay and Silent Bob Reboot</text>
      </g>
    </g>
    <g id="Scream_franchise" transform="translate(478,98)">
      <title id="Scream_franchise_title">Scream</title>
      <g class="spinoff" id="Scream_spinoff_lines" transform="translate(13)">
        <title id="Scream_spinoff_lines_title">The Scream spinoffs</title>
        <path d="m 0, 30 v 24 h 15" id="Scream_to_Scream_2" />
        <path d="m 0, 55 v 36 h 15" id="Scream_to_Scream_3" />
        <path d="m 0, 92 v 42 h 15" id="Scream_to_Scream_4" />
      </g>
      <g id="Scream" transform="translate(0,0)">
        <title id="Scream_title">Scream</title>
        <rect id="Scream_box"  x="0" y="0" rx="10" width="66" height="28" class="film" />
        <text id="Scream_text" x="6" y="14">Scream</text>
      </g>
      <g id="Scream_2" transform="translate(30,40)">
        <title id="Scream_2_title">Scream 2</title>
        <rect id="Scream_2_box"  x="0" y="0" rx="10" width="79" height="28" class="film" />
        <text id="Scream_2_text" x="6" y="14">Scream 2</text>
      </g>
      <g id="Scream_3" transform="translate(30,80)">
        <title id="Scream_3_title">Scream 3</title>
        <rect id="Scream_3_box"  x="0" y="0" rx="10" width="79" height="28" class="film" />
        <text id="Scream_3_text" x="6" y="14">Scream 3</text>
      </g>
      <g id="Scream_4" transform="translate(30,120)">
        <title id="Scream_4_title">Scream 4</title>
        <rect id="Scream_4_box"  x="0" y="0" rx="10" width="79" height="28" class="film" />
        <text id="Scream_4_text" x="6" y="14">Scream 4</text>
      </g>
    </g>
  </g>
</svg>