<?xml version="1.0" encoding="UTF-8" standalone="no"?>
<?xml-stylesheet href="../../../../css/family_tree.css" type="text/css"?>
<svg
  xmlns="http://www.w3.org/2000/svg"
  xmlns:xlink="http://www.w3.org/1999/xlink"
  xmlns:rdf="http://www.w3.org/1999/02/22-rdf-syntax-ns#"
  xmlns:dc="http://purl.org/dc/elements/1.1/"
  xmlns:cc="http://creativecommons.org/ns#"
  viewBox="0 0 640 220"
  width="640"
  height="220"
>
  <title id="Chuck_title">The Bartowski family from Chuck</title>
  <metadata id="Chuck_metadata">
    <rdf:RDF>
      <cc:Work rdf:about="">
        <dc:format>image/svg+xml</dc:format>
        <dc:type rdf:resource="http://purl.org/dc/dcmitype/StillImage" />
        <dc:title>The Chuck family from Castle</dc:title>
        <dc:creator>
          <cc:Agent>
            <dc:title>Burge, Dawn M.</dc:title>
          </cc:Agent>
        </dc:creator>
        <dc:language>en-US</dc:language>
        <dc:date>2020-03</dc:date>
      </cc:Work>
    </rdf:RDF>
  </metadata>
  <style id="Family_styles" type="text/css">
    @import url(../../../../css/family_tree.css);
    g.deceased.male   rect { fill: url(#m_dead); }
    g.deceased.female rect { fill: url(#f_dead); }
  </style>
  <defs id="Family_defs">
    <radialGradient id="m_dead">
      <stop id="mds1" style="stop-color:#ccccff;stop-opacity:0.85;" offset="75%" />
      <stop id="mds2" style="stop-color:#eeeeff;stop-opacity:0.85;" offset="100%" />
    </radialGradient>
    <radialGradient id="f_dead">
      <stop id="fds1" style="stop-color:#ffcccc;stop-opacity:0.85;" offset="75%" />
      <stop id="fds2" style="stop-color:#ffeeee;stop-opacity:0.85;" offset="100%" />
    </radialGradient>
  </defs>
  <!--
    Family paths generated using the Perl SVG Module V2.84 by Ronan Oger Info: http://www.roitsystems.com/
    Edited with Geany 1.33 (built on 2018-04-16 with GTK 3.22.29, GLib 2.56.1)
  -->
  <g id="Chuck" class="graph" transform="translate(5,215)">
    <title>The Bartowski family from Chuck</title>
    <text x="320" y="-203" class="chart_title">The Bartowski family from <tspan style="font-style:italic">Chuck</tspan></text>

    <g class="marriage" id="Woodcomb-family" transform="translate(116, -170)">
      <title>Marriage of Honey and Woody Woodcomb</title>
      <path d="m 0,0 h -19" id="mHonWoo-WoodyWoodcomb" />
      <path d="m 0,0 h  19" id="mHonWoo-Honey" />
      <g class="child" id="Woodcomb-children">
        <title>Children of Honey and Woody Woodcomb</title>
        <path d="m 0,0  v  38" id="mHonWoo-cHonWoo" />
        <path d="m 0,38 h -85 v  20" id="cHonWoo-unnamedWoodcomb1" />
        <path d="m 0,38 h  -3 v  20" id="cHonWoo-unnamedWoodcomb2" />
        <path d="m 0,38 h  85 v  20" id="cHonWoo-DevonWoodcomb" />
        <circle cx="0" cy="38" id="cHonWoo" r="1.5" />
      </g>
      <circle cx="0" cy="0" id="mHonWoo" r="1.5" />
    </g>
    <g class="marriage" id="Bartowski-family" transform="translate(360, -170)">
      <title>Marriage of Mary and Stephen J. Bartowski</title>
      <path d="m 0,0 h -19" id="mMarSte-StephenJBartowski" />
      <path d="m 0,0 h  19" id="mMarSte-Mary" />
      <g class="child" id="Bartowski-children">
        <title>Children of Mary and Stephen J Bartowski</title>
        <path d="m 0,0  v  38" id="mMarSte-cMarSte" />
        <path d="m 0,38 h -47 v  20" id="cMarSte-EleanorBartowki" />
        <path d="m 0,38 h  47 v  20" id="cMarSte-CharlesBartowski" />
        <circle cx="0" cy="38" id="cMarSte" r="1.5" />
      </g>
      <circle cx="0" cy="0" id="mMarSte" r="1.5" />
    </g>
    <g class="dating" id="Burton-family" transform="translate(526, -170)">
      <title>Relationship of Emma and Jack Burton</title>
      <path d="m 0,0 h -19" id="dEmmJac-JackBurton" />
      <path d="m 0,0 h  50" id="dEmmJac-Emma" />
      <g class="child" id="Burton-children">
        <title>Sarah Lisa Walker, child of Emma and Jack Burton</title>
        <path d="m 0,0 v  58" id="dEmmJac-SarahLisaWalker" />
      </g>
      <circle cx="0" cy="0" id="dEmmJac" r="1.5" />
    </g>
    <g class="child adopted" id="Molly-adoption" transform="translate(603, -152)">
      <title>Molly, adopted daughter of Emma</title>
      <path d="m 0,0 v  58" id="aEmma-Molly" />
    </g>

    <g class="marriage" id="Woodcomb2-family" transform="translate(257, -94)">
      <title>Marriage of Eleanor Faye Bartowski and Devon Woodcomb</title>
      <path d="m 0,0 h -19" id="mEleDev-DevonWoodcomb" />
      <path d="m 0,0 h  19" id="mEleDev-EleanorBartowski" />
      <g class="child" id="Woodcomb2-children">
        <title>Clara Woodcomb, child of Eleanor Faye Bartowski and Devon Woodcomb</title>
        <path d="m 0,0 v  58" id="mEleDev-ClaraWoodcomb" />
      </g>
      <circle cx="0" cy="0" id="mEleDev" r="1.5" />
    </g>
    <g class="marriage" id="Bartowski2-family" transform="translate(470, -94)">
      <title>Marriage of Sarah Lisa Walker and Charles Irving Bartowski</title>
      <path d="m 0,0 h -26" id="mSarCha-CharlesBartowski" />
      <path d="m 0,0 h  26" id="mSarCha-SarahLisaWalker" />
      <circle cx="0" cy="0" id="mSarCha" r="1.5" />
    </g>

    <g id="WoodyWoodcomb" class="male" transform="translate(23,-188)">
      <title>Woody Woodcomb</title>
      <rect x="0" y="0" width="74" height="36" />
      <text x="37" y="12">Woody</text>
      <text x="37" y="24">Woodcomb</text>
    </g>
    <g id="Honey" class="female" transform="translate(135,-188)">
      <title>Honey</title>
      <rect x="0" y="0" width="54" height="36" />
      <text x="27" y="18">Honey</text>
    </g>
    <g id="StephenJBartowski" class="male deceased" transform="translate(267,-188)">
      <title>Stephen J. Bartowski</title>
      <rect x="0" y="0" width="74" height="36" />
      <text x="37" y="12">Stephen J.</text>
      <text x="37" y="24">Bartowski</text>
    </g>
    <g id="Mary" class="female" transform="translate(379,-188)">
      <title>Mary</title>
      <rect x="0" y="0" width="54" height="36" />
      <text x="27" y="18">Mary</text>
    </g>
    <g id="JackBurton" class="male" transform="translate(453,-188)">
      <title>Jack Burton (real name unknown)</title>
      <rect x="0" y="0" width="54" height="36" />
      <text x="27" y="12">Jack</text>
      <text x="27" y="24">Burton</text>
    </g>
    <g id="Emma" class="female" transform="translate(576,-188)">
      <title>Emma</title>
      <rect x="0" y="0" width="54" height="36" />
      <text x="27" y="18">Emma</text>
    </g>


    <g id="unnamedWoodcomb1" class="male unnamed" transform="translate(0,-112)">
      <title>unnamed Woodcomb</title>
      <rect x="0" y="0" width="62" height="36" />
      <text x="31" y="12">unnamed</text>
      <text x="31" y="24">Woodcomb</text>
    </g>
    <g id="unnamedWoodcomb2" class="male unnamed" transform="translate(82,-112)">
      <title>unnamed Woodcomb</title>
      <rect x="0" y="0" width="62" height="36" />
      <text x="31" y="12">unnamed</text>
      <text x="31" y="24">Woodcomb</text>
    </g>
    <g id="DevonWoodcomb" class="male main" transform="translate(164,-114)">
      <title>Devon Christian Woodcomb</title>
      <rect x="0" y="0" width="74" height="40" />
      <text x="37" y="8">Devon</text>
      <text x="37" y="20">Christian</text>
      <text x="37" y="32">Woodcomb</text>
    </g>
    <g id="EleanorBartowski" class="female main" transform="translate(276,-114)">
      <title>Eleanor Faye Bartowski</title>
      <rect x="0" y="0" width="74" height="40" />
      <text x="37" y="8">Eleanor</text>
      <text x="37" y="20">Faye</text>
      <text x="37" y="32">Bartowski</text>
    </g>
    <g id="CharlesBartowski" class="male main" transform="translate(370,-114)">
      <title>Charles Irving Bartowski</title>
      <rect x="0" y="0" width="74" height="40" />
      <text x="37" y="8">Charles</text>
      <text x="37" y="20">Irving</text>
      <text x="37" y="32">Bartowski</text>
    </g>
    <g id="SarahWalker" class="female main" transform="translate(496,-114)">
      <title>Sarah Lisa Walker, Samantha Lisa (possible real name)</title>
      <rect x="0" y="0" width="60" height="40" />
      <text x="30" y="8">Sarah</text>
      <text x="30" y="20">Lisa</text>
      <text x="30" y="32">Walker</text>
    </g>
    <g id="Molly" class="female" transform="translate(576,-114)">
      <title>Molly</title>
      <rect x="0" y="0" width="54" height="36" />
      <text x="27" y="18">Molly</text>
    </g>

    <g id="ClaraWoodcomb" class="female" transform="translate(220,-36)">
      <title>Clara Woodcomb</title>
      <rect x="0" y="0" width="74" height="36" />
      <text x="37" y="12">Clara</text>
      <text x="37" y="24">Woodcomb</text>
    </g>

  </g>
</svg>