<?xml version="1.0" encoding="UTF-8" standalone="no"?>
<?xml-stylesheet href="../../../../css/family_tree.css" type="text/css"?>
<svg
  xmlns="http://www.w3.org/2000/svg"
  xmlns:svg="http://www.w3.org/2000/svg"
  xmlns:rdf="http://www.w3.org/1999/02/22-rdf-syntax-ns#"
  xmlns:dc="http://purl.org/dc/elements/1.1/"
  xmlns:cc="http://creativecommons.org/ns#"
  viewBox="0 0 486 198"
  width="486"
  height="198"
  id="Apprentice_Adept_family"
>
  <title id="Apprentice_Adept_title">The family from the Apprentice Adept</title>
  <metadata id="Apprentice_Adept_metadata">
    <rdf:RDF>
      <cc:Work rdf:about="">
        <dc:format>image/svg+xml</dc:format>
        <dc:type rdf:resource="http://purl.org/dc/dcmitype/StillImage" />
        <dc:title>The family from the Apprentice Adept</dc:title>
        <dc:date>2019-08</dc:date>
        <dc:creator>
          <cc:Agent>
            <dc:title>Burge, Dawn M.</dc:title>
          </cc:Agent>
        </dc:creator>
        <dc:language>en-US</dc:language>
        <dc:contributor>
          <cc:Agent>
            <dc:title>Anthony, Piers (author)</dc:title>
          </cc:Agent>
        </dc:contributor>
      </cc:Work>
    </rdf:RDF>
  </metadata>
  <style id="Xanth_styles" type="text/css">
    @import url(../../../../css/family_tree.css);
  </style>
  <!--
    Generated by graphviz version 2.40.1 (20161225.0304)
    Edited with Inkscape 0.92.4 (5da689c313, 2019-01-14)
    Edited with Geany 1.33 (built on 2018-04-16 with GTK 3.22.29, GLib 2.56.1)
   -->
  <g id="Apprentice_Adept_chart" class="graph" transform="translate(5,193)">
    <title id="Apprentice_Adept_chart_title">The family of the Apprentice Adept series</title>
    <text x="218" y="-179" id="Apprentice_Adept_chart_title_text" class="chart_title">The Apprentice Adept</text>
    <g id="sUni--siblings" class="child" transform="translate(412,-164)">
      <title id="title590">Unicorn siblings</title>
      <path d="m 0,0 h -37 v 20" id="sUni--Chip" />
      <path d="m 0,0 h  37 v 20" id="sUni--Neysa" />
      <circle cx="0" cy="0" r="1.5"  id="sUni" />
    </g>
    <g id="LBlSti--family" class="marriage" transform="translate(73,-126)">
      <title id="title442">Marriage of Lady Blue to Stile</title>
      <path d="m 0,0 h -19" id="mLBlSti--Stile" />
      <path d="m 0,0 h  19" id="mLBlSti--LBlue" />
      <g id="LBSt--child" class="child">
        <title id="title605">Child of Lady Blue and Stile</title>
        <path d="m 0,0 v 36" id="mLBlSti--Bane" />
      </g>
      <circle cx="0" cy="0" r="1.5" id="mLBSt" />
    </g>
    <g id="Blue--marriage" class="marriage" transform="translate(164,-126)">
      <title id="title751">Marriage of Lady Blue to the Blue Adept</title>
      <path d="m 0,0 h -19" id="mBlue--LBlue" />
      <path d="m 0,0 h  20" id="mBlue--BAdept" />
      <circle cx="0" cy="0" r="1.5" id="mBlue" />
    </g>
    <g id="SheBlu--family" class="marriage" transform="translate(255,-126)">
      <title id="title459">Marriage of Sheen to the Blue Adept</title>
      <path d="m 0,0 h -19" id="mSheBlu--BAdept" />
      <path d="m 0,0 h  19" id="mSheBlu--Sheen" />
      <g id="ShBl--child" class="child">
        <title id="title615">Child of Sheen and Blue</title>
        <path d="m 0,0 v 36" id="mSheBlu--Mach" />
      </g>
      <circle cx="0" cy="0" r="1.5" id="mSheBlu" />
    </g>
    <g id="Neysa--Fleta" class="child" transform="translate(449,-107)">
      <title id="title754">Neysa to Fleta</title>
      <path d="m 0,0 v 18" id="path549" />
    </g>
    <g id="AgaBan--family" class="marriage" transform="translate(119,-72)">
      <title id="title483">Marriage of Agape and Bane</title>
      <path d="m 0,0 h -19" id="mAgaBan--Bane" />
      <path d="m 0,0 h  19" id="mAgaBan--Agape" />
      <g id="AgBa--child" class="child">
        <title id="title625">Child of Agape and Bane</title>
        <path d="m 0,0 v 36" id="mAgaBan--Nepe" />
      </g>
      <circle cx="0" cy="0" r="1.5" id="mAgBa" />
    </g>
    <g id="FleMac--family" class="marriage" transform="translate(352,-72)">
      <title id="title500">Marriage of Fleta and Mach</title>
      <path d="m 0,0 h -70" id="mFleMac--Mach" />
      <path d="m 0,0 h  70" id="mFleMac--Fleta" />
      <g id="FlMa--child" class="child">
        <title id="title630">Child of Fleta and Mach</title>
        <path d="m 0,0 v 36" id="mFleMac--Flach" />
      </g>
      <circle cx="0" cy="0" r="1.5" id="mFlMa" />
    </g>
    <g id="Stile" class="node male" transform="translate(0,-144)">
      <title id="title430">Stile</title>
      <rect x="0" y="0" width="54" height="36" id="box1" />
      <text x="27" y="18" id="text1">Stile</text>
    </g>
    <g id="LBlue" class="node female" transform="translate(92,-144)">
      <title id="title505">LBlue</title>
      <rect x="0" y="0" width="54" height="36" id="box2" />
      <text x="27" y="12" id="text21">Lady</text>
      <text x="27" y="24" id="text22">Blue</text>
    </g>
    <g id="BlueAdept" class="node male" transform="translate(182,-144)">
      <title id="title744">BAdept</title>
      <rect x="0" y="0" width="54" height="36" id="box3" />
      <text x="27" y="12" id="text31">Blue</text>
      <text x="27" y="24" id="text32">Adept</text>
    </g>
    <g id="Sheen" class="node female" transform="translate(274,-144)">
      <title id="title522">Sheen</title>
      <rect x="0" y="0" width="54" height="36" id="box4" />
      <text x="27" y="14" id="text41">Sheen</text>
      <text x="27" y="24" id="text42" class="species">(robot)</text>
    </g>
    <g id="Chip" class="node male" transform="translate(348,-144)">
      <title id="title464">Chip</title>
      <rect x="0" y="0" width="54" height="36" id="box5" />
      <text x="27" y="18" id="text5">Chip</text>
    </g>
    <g id="Neysa" class="node female" transform="translate(422,-144)">
      <title id="title531">Neysa</title>
      <rect x="0" y="0" width="54" height="36" id="box6" />
      <text x="27" y="14" id="text61">Neysa</text>
      <text x="27" y="24" id="text62" class="species">(unicorn)</text>
    </g>
    <g id="Bane" class="node male" transform="translate(46,-90)">
      <title id="title741">Bane</title>
      <rect x="0" y="0" width="54" height="36" id="box7" />
      <text x="27" y="18" id="text7">Bane</text>
    </g>
    <g id="Agape" class="node female" transform="translate(138,-90)">
      <title id="title552">Agape</title>
      <rect x="0" y="0" width="54" height="36" id="box8" />
      <text x="27" y="14" id="text81">Agape</text>
      <text x="27" y="24" id="text82" class="species">(alien)</text>
    </g>
    <g id="Mach" class="node male" transform="translate(228,-90)">
      <title id="title488">Mach</title>
      <rect x="0" y="0" width="54" height="36" id="box9" />
      <text x="27" y="18" id="text9">Mach</text>
    </g>
    <g id="Fleta" class="node female" transform="translate(422,-90)">
      <title id="title540">Fleta</title>
      <rect x="0" y="0" width="54" height="36" id="box10" />
      <text x="27" y="18" id="text10">Fleta</text>
    </g>
    <g id="Nepe" class="node female" transform="translate(92,-36)">
      <title id="title751">Nepe</title>
      <rect x="0" y="0" width="54" height="36" id="box11" />
      <text x="27" y="18" id="text11">Nepe</text>
    </g>
    <g id="Flach" class="node female" transform="translate(325,-36)">
      <title id="title758">Flach</title>
      <rect x="0" y="0" width="54" height="36" id="box12" />
      <text x="27" y="18" id="text12">Flach</text>
    </g>
  </g>
</svg>
