<?xml version="1.0" encoding="UTF-8" standalone="no"?>
<?xml-stylesheet href="../../../../css/family_tree.css" type="text/css"?>
<svg
  xmlns="http://www.w3.org/2000/svg"
  xmlns:svg="http://www.w3.org/2000/svg"
  xmlns:rdf="http://www.w3.org/1999/02/22-rdf-syntax-ns#"
  xmlns:dc="http://purl.org/dc/elements/1.1/"
  xmlns:cc="http://creativecommons.org/ns#"
  viewBox="0 0 899 299"
  width="899"
  height="299"
  id="Adora_Bull_family"
>
  <title id="Adora_Bull_title">The family of Adora Bull</title>
  <metadata id="Adora_Bull_metadata">
    <rdf:RDF>
      <cc:Work rdf:about="">
        <dc:format>image/svg+xml</dc:format>
        <dc:type rdf:resource="http://purl.org/dc/dcmitype/StillImage" />
        <dc:title>The family of Adora Bull</dc:title>
        <dc:creator>
          <cc:Agent>
            <dc:title>Burge, Dawn M.</dc:title>
          </cc:Agent>
        </dc:creator>
        <dc:language>en-US</dc:language>
        <dc:date>2019-08</dc:date>
        <dc:contributor>
          <cc:Agent>
            <dc:title>Anthony, Piers (author)</dc:title>
          </cc:Agent>
        </dc:contributor>
      </cc:Work>
    </rdf:RDF>
  </metadata>
  <style id="Xanth_styles" type="text/css">
    @import url(../../../../css/family_tree.css);
    g.deceased.male   rect { fill: url(#m_dead); }
  </style>
  <defs id="Xanth_defs">
    <radialGradient id="m_dead">
      <stop id="stop4423" style="stop-color:#ccccff;stop-opacity:0.85;" offset="75%" />
      <stop id="stop4425" style="stop-color:#eeeeff;stop-opacity:0.85;" offset="100%" />
    </radialGradient>
  </defs>
  <!--
    Generated by graphviz version 2.40.1 (20161225.0304)
    Edited with Inkscape 0.92.4 (5da689c313, 2019-01-14)
    Edited with Geany 1.33 (built on 2018-04-16 with GTK 3.22.29, GLib 2.56.1)
   -->
  <g id="Adora_Bull_chart" class="graph" transform="translate(5,328)">
    <title id="Adora_Bull_chart_title">The family of Adora Bull</title>
    <text x="462" y="-313" id="Adora_Bull_chart_title_text" class="chart_title">The family of Adora Bull</text>
    <g id="Minotaur--children" class="child" transform="translate(146,-263)">
      <title id="title188">Minotaur to children</title>
      <path d="m 0,0 v 20"       id="Minotaur--cMinotaur" />
      <path d="m 0,20 h -107 v 20" id="cMinota--AdoraBro" />
      <path d="m 0,20 v 20"        id="cMinota--AdoraSis" />
      <path d="m 0,20 h  102 v 20" id="cMinota--Adora" />
      <circle cx="0" cy="20" r="1.5" id="cMinotaur" />
    </g>
    <g id="cUnFami--children" class="child" transform="translate(595,-243)">
      <title id="title485">cUnFami to children</title>
      <path d="m 0,0 h -243 v 20" id="cUnFami--Batt" />
      <path d="m 0,0 h -166 v 20" id="cUnFami--Att" />
      <path d="m 0,0 h   30 v 20" id="cUnFami--Gatt" />
      <path d="m 0,0 h  130 v 20" id="cUnFami--UnBro" />
      <path d="m 0,0 h  246 v 20" id="cUnFami--UnSis" />
      <circle cx="0" cy="0" r="1.5" id="cUnFami" />
    </g>
    <g id="AdoBat--relationship" class="dating" transform="translate(301,-205)">
      <title id="title380">AdaBat relationship</title>
      <path d="m 0,0 h -19" id="aAdaBat--Adora" />
      <path d="m 0,0 h  19" id="aAdaBat--Batt" />
      <circle cx="0" cy="0" r="1.5" id="aAdaBat" />
    </g>
    <g id="PunAtt--relationship" class="dating" transform="translate(479,-205)">
      <title id="title282">PunAtt relationship</title>
      <path d="m 0,0 h -19" id="aPunAtt--Att" />
      <path d="m 0,0 h  19" id="aPunAtt--Pundora" />
      <circle cx="0" cy="0" r="1.5" id="aPunAtt" />
    </g>
    <g id="PunGat--relationship" class="dating" transform="translate(577,-205)">
      <title id="title397">PunGat relationship</title>
      <path d="m 0,0 h -19" id="aPunGat--Pundora" />
      <path d="m 0,0 h  19" id="aPunGat--Gatt" />
      <circle cx="0" cy="0" r="1.5" id="aPunGat" />
    </g>
    <g id="AnnPip--relationship" class="dating" transform="translate(359,-151)">
      <title id="title440">AnnPip relationship</title>
      <path d="m 0,0 h -19" id="aAnnPip--Anna" />
      <path d="m 0,0 h  19" id="aAnnPip--Piper" />
      <circle cx="0" cy="0" r="1.5" id="aAnnPip" />
    </g>
    <g id="GraPip--affair" class="affair" transform="translate(479,-151)">
      <title id="title335">GraPip affair</title>
      <path d="m 0,0 h -19" id="aGraPip--Piper" />
      <path d="m 0,0 h 19" id="aGraPip--Granola" />
      <circle cx="0" cy="0" r="1.5" id="aGraPip" />
    </g>
    <g id="PunPip--affair" class="affair" transform="translate(479,-178)">
      <title id="title407">PunPip affair</title>
      <path d="m 0,0  19,-27" id="Pundora--aPuPi" />
      <path d="m 0,0 -19, 27" id="aPuPi--Piper" />
      <circle cx="0" cy="0" r="1.5" id="aPuPi" />
    </g>
    <g id="Minotaur" class="male" transform="translate(115,-299)">
      <title id="title176">Minotaur</title>
      <rect x="0" y="0" width="62" height="36" id="box178" />
      <text x="31" y="18" id="text180">Minotaur</text>
    </g>
    <g id="Adoras_brothers_list" class="male child list" transform="translate(0,-204)">
      <title id="title207">Adora's brothers list</title>
      <rect x="0" y="0" width="84" height="21" id="Capa_box" />
      <text x="42" y="11" id="text211">Capa Bull</text>
      <rect x="0" y="21" width="84" height="21" id="Horri_box" />
      <text x="42" y="32" id="text215">Horri Bull</text>
      <rect x="0" y="42" width="84" height="21" id="Etin_box" />
      <text x="42" y="53" id="text219">Bull-etin</text>
      <rect x="0" y="63" width="84" height="21" id="Ion_box" />
      <text x="42" y="74" id="text223">Bull-ion</text>
      <rect x="0" y="84" width="84" height="21" id="Rush_box" />
      <text x="42" y="95" id="text227">Bull-rush</text>
      <rect x="0" y="105" width="84" height="21" id="Et_box" />
      <text x="42" y="116" id="text231">Bull-et</text>
      <rect x="0" y="126" width="84" height="21" id="Wark_box" />
      <text x="42" y="137" id="text235">Bull-wark</text>
      <rect x="0" y="147" width="84" height="21" id="Ies_box" />
      <text x="42" y="158" id="text239">Bull-ies</text>
    </g>
    <g id="Adoras_sisters_list" class="female child list" transform="translate(104,-204)">
      <title id="title347">Adora's sisters list</title>
      <rect x="0" y="0" width="84" height="21" id="Flexi_box" />
      <text x="42" y="11" id="text351">Flexi Bull</text>
      <rect x="0" y="21" width="84" height="21" id="Lova_box" />
      <text x="42" y="32" id="text355">Lova Bull</text>
      <rect x="0" y="42" width="84" height="21" id="Misera_box" />
      <text x="42" y="53" id="text359">Misera Bull</text>
      <rect x="0" y="63" width="84" height="21" id="Practica_box" />
      <text x="42" y="74" id="text363">Practica Bull</text>
      <rect x="0" y="84" width="84" height="21" id="Terri_box" />
      <text x="42" y="95" id="text367">Terri Bull</text>
    </g>
    <g id="Attilas_brother_list" class="male child list" transform="translate(677,-204)">
      <title id="title301">The Un brothers list</title>
      <rect x="0" y="0" width="96" height="21" id="Fatt_box" />
      <text x="48" y="11" id="text305">Fattila the Fun</text>
      <rect x="0" y="21" width="96" height="21" id="Ratt_box" />
      <text x="48" y="32" id="text309">Rattila the Run</text>
      <rect x="0" y="42" width="96" height="21" id="Satt_box" />
      <text x="48" y="53" id="text313">Sattila the Sun</text>
    </g>
    <g id="Attilas_sisters_list" class="female child list" transform="translate(793,-204)">
      <title id="title445">The Un sisters list</title>
      <rect x="0" y="0" width="96" height="21" id="Hatt_box" />
      <text x="48" y="11" id="text449">Hattila the Hun</text>
      <rect x="0" y="21" width="96" height="21" id="Hatt_box" />
      <text x="48" y="32" id="text453">Nattila the Nun</text>
      <rect x="0" y="42" width="96" height="21" id="Hatt_box" />
      <text x="48" y="53" id="text457">Pattila the Un</text>
    </g>
    <g id="Adoras_brothers" class="male" transform="translate(0,-223)">
      <title id="title193">Adora's brothers</title>
      <rect x="0" y="0" width="84" height="18" id="box195" />
      <text x="42" y="9" id="text197" style="font-size:10px;">half-brothers</text>
    </g>
    <g id="Adoras_sisters" class="female" transform="translate(104,-223)">
      <title id="title200">Adora's sisters</title>
      <rect x="0" y="0" width="84" height="18" id="box202" />
      <text x="42" y="9" id="text204" style="font-size:10px;">half-sisters</text>
    </g>
    <g id="AdoraBull" class="female" transform="translate(208,-223)">
      <title id="title340">Adora Bull</title>
      <rect x="0" y="0" width="74" height="36" id="box342" />
      <text x="37" y="18" id="text344">Adora Bull</text>
    </g>
    <g id="BattilaBun" class="male" transform="translate(320,-223)">
      <title id="title247">Battila the Bun</title>
      <rect x="0" y="0" width="60" height="36" id="box249" />
      <text x="30" y="12" id="Battila_text1">Battila</text>
      <text x="30" y="24" id="Battila_text2">the Bun</text>
    </g>
    <g id="AttilaPun" class="male deceased" transform="translate(400,-223)">
      <title id="title261">Attila the Pun, deceased</title>
      <rect x="0" y="0" width="60" height="36" id="box270" />
      <text x="30" y="12" id="Attila_text1">Attila</text>
      <text x="30" y="24" id="Attila_text2">the Pun</text>
    </g>
    <g id="Pundora" class="female" transform="translate(498,-223)">
      <title id="title385">Pundora</title>
      <rect x="0" y="0" width="62" height="36" id="box387" />
      <text x="31" y="18" id="text389">Pundora</text>
    </g>
    <g id="GattilaGun" class="male" transform="translate(596,-223)">
      <title id="title254">Gattila the Gun</title>
      <rect x="0" y="0" width="60" height="36" id="box256" />
      <text x="30" y="12" id="Gattila_text1">Gattila</text>
      <text x="30" y="24" id="Gattila_text2">the Gun</text>
    </g>
    <g id="Attilas_brothers" class="male" transform="translate(677,-223)">
      <title id="title287">The Un brothers</title>
      <rect x="0" y="0" width="96" height="18" id="box289" />
      <text x="48" y="9" id="text291" style="font-size:10px;">brothers</text>
    </g>
    <g id="Attilas_sisters" class="female" transform="translate(793,-223)">
      <title id="title294">The Un sisters</title>
      <rect x="0" y="0" width="96" height="18" id="box296" />
      <text x="48" y="9" id="text298" style="font-size:10px;">sisters</text>
    </g>
    <g id="AnnaMolly" class="female" transform="translate(262,-170)">
      <title id="title419">Anna Molly was Justin Kase</title>
      <defs id="defs426">
        <linearGradient id="l_0" gradientUnits="userSpaceOnUse" x1="0" y1="0" x2="0" y2="36">
          <stop offset="50%" style="stop-color:#ffcccc;stop-opacity:1;" id="stop421" />
          <stop offset="50%" style="stop-color:#ccccff;stop-opacity:1;" id="stop423" />
        </linearGradient>
      </defs>
      <rect x="0" y="0" width="78" height="36" id="box428" style="fill:url(#l_0)" />
      <text x="39" y="10" id="text430">Anna Molly</text>
      <text x="39" y="27" id="text432" style="font-size:10px;">Justin Kase</text>
    </g>
    <g id="Piper" class="male" transform="translate(378,-170)">
      <title id="title321">Piper, the Music Monster</title>
      <rect x="0" y="0" width="82" height="36" id="box323" />
      <text x="41" y="13" id="text325">Piper</text>
      <text x="41" y="25" id="text327" class="job">Music Monster</text>
    </g>
    <g id="Granola" class="female" transform="translate(498,-170)">
      <title id="title412">Granola</title>
      <rect x="0" y="0" width="60" height="36" id="box414" />
      <text x="30" y="18" id="text416">Granola</text>
    </g>
  </g>
</svg>
