<?xml version="1.0" encoding="UTF-8" standalone="no"?>
<?xml-stylesheet href="../../../../css/family_tree.css" type="text/css"?>
<svg
  xmlns="http://www.w3.org/2000/svg"
  xmlns:svg="http://www.w3.org/2000/svg"
  xmlns:rdf="http://www.w3.org/1999/02/22-rdf-syntax-ns#"
  xmlns:dc="http://purl.org/dc/elements/1.1/"
  xmlns:cc="http://creativecommons.org/ns#"
  viewBox="0 0 450 144"
  width="450"
  height="144"
  id="Baldwin_family"
>
  <title id="Baldwin_title">The Baldwin family</title>
  <metadata id="Baldwin_metadata">
    <rdf:RDF>
      <cc:Work rdf:about="">
        <dc:format>image/svg+xml</dc:format>
        <dc:type rdf:resource="http://purl.org/dc/dcmitype/StillImage" />
        <dc:title>The Baldwin family</dc:title>
        <dc:creator>
          <cc:Agent>
            <dc:title>Burge, Dawn M.</dc:title>
          </cc:Agent>
        </dc:creator>
        <dc:language>en-US</dc:language>
        <dc:date>2019-08</dc:date>
        <dc:contributor>
          <cc:Agent>
            <dc:title>Anthony, Piers (author)</dc:title>
          </cc:Agent>
        </dc:contributor>
      </cc:Work>
    </rdf:RDF>
  </metadata>
  <style id="Xanth_styles" type="text/css">
    @import url(../../../../css/family_tree.css);
  </style>
  <!--
    Generated by graphviz version 2.40.1 (20161225.0304)
    Edited with Inkscape 0.92.4 (5da689c313, 2019-01-14)
    Edited with Geany 1.33 (built on 2018-04-16 with GTK 3.22.29, GLib 2.56.1)
   -->
  <g id="Baldwin_chart" class="graph" transform="translate(5,139)">
    <title id="Baldwin_chart_title">The Baldwin family</title>
    <text x="220" y="-125" id="text239" class="chart_title">The Baldwin family</text>
    <g id="Jimone--family" class="marriage" transform="translate(122,-94)">
      <title id="title255">Jim's first marriage</title>
      <path d="m 0,0 h -19" id="mJimone--Jim1" />
      <path d="m 0,0 h  19" id="mJimone--Jim" />
      <g id="Jimone--Sean" class="child">
        <title id="title368">Jimone to Sean</title>
        <path d="m 0,0 v 38" id="mJimone--cJimone" />
        <path d="m 0,38 v 20" id="cJimone--Sean" />
        <circle cx="0" cy="38" r="1.5" id="cJimone" />
      </g>
      <circle cx="0" cy="0" r="1.5" id="mJimone" />
    </g>
    <g id="MaryJim--family" class="marriage" transform="translate(220,-94)">
      <title id="title272">Marriage of Mary and Jim</title>
      <path d="m 0,0 h -19" id="mMaryJim--Jim" />
      <path d="m 0,0 h  19" id="mMaryJim--Mary" />
      <g id="MaryJim--children" class="child">
        <title id="title383">Children of Mary and Jim</title>
        <path d="m 0,0 v 38" id="path385" />
        <g id="MaryJim--adopted" class="adopted">
          <title id="title418">Adopted children</title>
          <path d="m 0,38 h -92 v 20" id="cMaryJim--Sean" />
          <path d="m 0,38 h  92 v 20" id="cMaryJim--David" />
        </g>
        <path d="m 0,38 v 20" id="cMaryJim--Karen" />
        <circle cx="0" cy="38" r="1.5" id="cMaryJim" />
      </g>
      <circle cx="0" cy="0" r="1.5" id="mMaryJim" />
    </g>
    <g id="Mary--mMaryone--Mary1" class="marriage" transform="translate(318,-94)">
      <title id="title289">Mary's first marriage</title>
      <path d="m 0,0 h -19" id="mMaryone--Mary" />
      <path d="m 0,0 h  19" id="mMaryone--Mary1" />
      <g id="Maryone--David" class="child">
        <title id="title398">Maryone to David</title>
        <path d="m 0,0 v 38" id="mMaryone--cMaryone" />
        <path d="m 0,38 v 20" id="cMaryone--David" />
        <circle cx="0" cy="38" r="1.5" id="cMaryone" />
      </g>
      <circle cx="0" cy="0" r="1.5" id="mMaryone" />
    </g>
    <g id="WilSea--relationship" class="marriage" transform="translate(73,-18)">
      <title id="title315">Willow to mWilSea to Sean</title>
      <path d="m 0,0 h -19" id="mWilSea--Willow" />
      <path d="m 0,0 h  19" id="mWilSea--Sean" />
      <circle cx="0" cy="0" r="1.5" id="mWilSea" />
    </g>
    <g id="JayDav--relationship" class="marriage" transform="translate(367,-18)">
      <title id="title346">David to mJayDav to Jaylin</title>
      <path d="m 0,0 h -19" id="mJayDav--David" />
      <path d="m 0,0 h  19" id="mJayDav--Jaylin" />
      <circle cx="0" cy="0" r="1.5" id="mJayDav" />
    </g>
    <g id="Jim1" class="female unnamed" transform="translate(49,-111)">
      <title id="title241">Jim's first wife</title>
      <rect x="0" y="0" width="54" height="36" id="box1" />
      <text x="27" y="13" id="text11">Jim's</text>
      <text x="27" y="23" id="text12">first wife</text>
    </g>
    <g id="JimBaldwin" class="male" transform="translate(141,-111)">
      <title id="title260">Jim Baldwin</title>
      <rect x="0" y="0" width="60" height="36" id="box2" />
      <text x="30" y="12" id="text21">Jim</text>
      <text x="30" y="24" id="text22">Baldwin</text>
    </g>
    <g id="MaryBladwin" class="female" transform="translate(239,-111)">
      <title id="title277">Mary Baldwin</title>
      <rect x="0" y="0" width="60" height="36" id="box3" />
      <text x="30" y="12" id="text31">Mary</text>
      <text x="30" y="24" id="text32">Baldwin</text>
    </g>
    <g id="Mary1" class="male unnamed" transform="translate(337,-111)">
      <title id="title294">Mary's first husband</title>
      <rect x="0" y="0" width="72" height="36" id="box4" />
      <text x="36" y="13" id="text41">Mary's</text>
      <text x="36" y="23" id="text42">first husband</text>
    </g>
    <g id="Willow" class="female" transform="translate(0,-36)">
      <title id="title303">Willow</title>
      <rect x="0" y="0" width="54" height="36" id="box5" />
      <text x="27" y="18" id="text5">Willow</text>
    </g>
    <g id="SeanBaldwin" class="male" transform="translate(92,-36)">
      <title id="title320">Sean Baldwin</title>
      <rect x="0" y="0" width="60" height="36" id="box6" />
      <text x="30" y="12" id="text61">Sean</text>
      <text x="30" y="24" id="text62">Baldwin</text>
    </g>
    <g id="KarenBaldwin" class="female" transform="translate(190,-36)">
      <title id="title327">Karen Baldwin</title>
      <rect x="0" y="0" width="60" height="36" id="box7" />
      <text x="30" y="12" id="text71">Karen</text>
      <text x="30" y="24" id="text72">Baldwin</text>
    </g>
    <g id="DavidBaldwin" class="male" transform="translate(288,-36)">
      <title id="title334">David Baldwin</title>
      <rect x="0" y="0" width="60" height="36" id="box8" />
      <text x="30" y="12" id="text81">David</text>
      <text x="30" y="24" id="text82">Baldwin</text>
    </g>
    <g id="Jaylin" class="female" transform="translate(386,-36)">
      <title id="title351">Jaylin</title>
      <rect x="0" y="0" width="54" height="36" id="box9" />
      <text x="27" y="18" id="text9">Jaylin</text>
    </g>
  </g>
</svg>
