<?xml version="1.0" encoding="UTF-8" standalone="no"?>
<?xml-stylesheet href="../../../../css/family_tree.css" type="text/css"?>
<svg
  xmlns="http://www.w3.org/2000/svg"
  xmlns:svg="http://www.w3.org/2000/svg"
  xmlns:rdf="http://www.w3.org/1999/02/22-rdf-syntax-ns#"
  xmlns:dc="http://purl.org/dc/elements/1.1/"
  xmlns:cc="http://creativecommons.org/ns#"
  viewBox="0 0 315 220"
  width="315"
  height="220"
  id="Cans_family"
>
  <title id="Cans_title">The family of Cans</title>
  <metadata id="Cans_metadata">
    <rdf:RDF>
      <cc:Work rdf:about="">
        <dc:format>image/svg+xml</dc:format>
        <dc:type rdf:resource="http://purl.org/dc/dcmitype/StillImage" />
        <dc:title>The family of Cans</dc:title>
        <dc:creator>
          <cc:Agent>
            <dc:title>Burge, Dawn M.</dc:title>
          </cc:Agent>
        </dc:creator>
        <dc:language>en-US</dc:language>
        <dc:date>2019-08</dc:date>
        <dc:contributor>
          <cc:Agent>
            <dc:title>Anthony, Piers (author)</dc:title>
          </cc:Agent>
        </dc:contributor>
      </cc:Work>
    </rdf:RDF>
  </metadata>
  <style id="Xanth_styles" type="text/css">
    @import url(../../../../css/family_tree.css);
  </style>
  <!--
    Generated by graphviz version 2.40.1 (20161225.0304)
    Edited with Inkscape 0.92.4 (5da689c313, 2019-01-14)
    Edited with Geany 1.33 (built on 2018-04-16 with GTK 3.22.29, GLib 2.56.1)
   -->
  <g id="Can_chart" class="graph" transform="translate(5,215)">
    <title id="Can_chart_title">The family of Cans</title>
    <text x="152" y="-201" class="chart_title" id="Can_chart_title_text">The family of Cans</text>
    <g id="sibCans" class="edge child" transform="translate(201,-185)">
      <title id="title648">Can siblings</title>
      <path d="m 0,0 h -77 v 20" id="sibCan--uCan1" />
      <path d="m 0,0 v 20"       id="sibCan--uCan2" />
      <path d="m 0,0 h  77 v 20" id="sibCan--CanN" />
      <circle cx="0" cy="0" r="1.5" id="sibCan" />
    </g>
    <g id="uCan--CanBee" class="edge child" transform="translate(124,-130)">
      <title id="title581">uCan1 to CanBee</title>
      <path d="m 0,0 v 18" id="path583" />
    </g>
    <g id="uCan2--CanL" class="edge child" transform="translate(203,-130)">
      <title id="title602">uCan2 to CanL</title>
      <path d="m 0,0 v 18" id="path604" />
    </g>
    <g id="CanBee--cCanBee" class="edge child" transform="translate(124,-76)">
      <title id="title619">Children of Can Bee</title>
      <path d="m 0,0 v 20"       id="CanBee--cCanBee" />
      <path d="m 0,20 h -43 v 20" id="cCanBee--CanOP" />
      <path d="m 0,20 h 39  v 20" id="cCanBee--CanTeen" />
      <circle cx="0" cy="20" r="1.5" id="cCanBee" />
    </g>
    <g id="CanD--dCaDCaB--CanBee" class="dating" transform="translate(73,-94)">
      <title id="title560">Relationship of Can D to Can Bee</title>
      <path d="m 0,0 h -19" id="dCaDCaB--CanD" />
      <path d="m 0,0 h  19" id="dCaDCaB--CanBee" />
      <circle cx="0" cy="0" r="1.5"  id="dCaDCaB" />
    </g>
    <g id="uCan1" class="node neuter unnamed" transform="translate(96,-166)">
      <title id="title565">unnamed Can</title>
      <rect x="0" y="0" width="56" height="36" id="box567" />
      <text x="28" y="13" id="text569">unnamed</text>
      <text x="28" y="23" id="text571">Can</text>
    </g>
    <g id="uCan2" class="node neuter unnamed" transform="translate(175,-166)">
      <title id="title586">unnamed Can</title>
      <rect x="0" y="0" width="56" height="36" id="box588" />
      <text x="28" y="13" id="text590">unnamed</text>
      <text x="28" y="23" id="text592">Can</text>
    </g>
    <g id="CanN" class="node male" transform="translate(251,-166)">
      <title id="title607">Can N</title>
      <rect x="0" y="0" width="54" height="36" id="box609" />
      <text x="27" y="18" id="text611">Can N</text>
    </g>
    <g id="CanD" class="node female" transform="translate(0,-112)">
      <title id="title548">Can D</title>
      <rect x="0" y="0" width="54" height="36" id="box550" />
      <text x="27" y="18" id="text552">Can D</text>
    </g>
    <g id="CanBee" class="node male" transform="translate(92,-112)">
      <title id="title574">Can Bee</title>
      <rect x="0" y="0" width="64" height="36" id="box576" />
      <text x="32" y="18" id="text578">Can Bee</text>
    </g>
    <g id="CanL" class="node male" transform="translate(176,-112)">
      <title id="title595">Can L</title>
      <rect x="0" y="0" width="54" height="36" id="box597" />
      <text x="27" y="18" id="text599">Can L</text>
    </g>
    <g id="CanOP" class="node male" transform="translate(50,-36)">
      <title id="title629">Can OP</title>
      <rect x="0" y="0" width="60" height="36" id="box631" />
      <text x="30" y="18" id="text633">Can OP</text>
    </g>
    <g id="CanTeen" class="node male" transform="translate(129,-36)">
      <title id="title636">Can Teen</title>
      <rect x="0" y="0" width="68" height="36" id="box638" />
      <text x="34" y="18" id="text640">Can Teen</text>
    </g>
  </g>
</svg>
