<?xml version="1.0" encoding="UTF-8" standalone="no"?>
<?xml-stylesheet href="../../../../css/family_tree.css" type="text/css"?>
<svg
  xmlns="http://www.w3.org/2000/svg"
  xmlns:svg="http://www.w3.org/2000/svg"
  xmlns:rdf="http://www.w3.org/1999/02/22-rdf-syntax-ns#"
  xmlns:dc="http://purl.org/dc/elements/1.1/"
  xmlns:cc="http://creativecommons.org/ns#"
  viewBox="0 0 1578 427"
  width="1578"
  height="427"
  id="Gorbage_family"
>
  <title id="Gorbage_title">The family of Gorbage</title>
  <metadata id="Gorbage_metadata">
    <rdf:RDF>
      <cc:Work rdf:about="">
        <dc:format>image/svg+xml</dc:format>
        <dc:type rdf:resource="http://purl.org/dc/dcmitype/StillImage" />
        <dc:title>The family of Gorbage</dc:title>
        <dc:creator>
          <cc:Agent>
            <dc:title>Burge, Dawn M.</dc:title>
          </cc:Agent>
        </dc:creator>
        <dc:language>en-US</dc:language>
        <dc:date>2019-08</dc:date>
        <dc:contributor>
          <cc:Agent>
            <dc:title>Anthony, Piers (author)</dc:title>
          </cc:Agent>
        </dc:contributor>
      </cc:Work>
    </rdf:RDF>
  </metadata>
  <style id="Xanth_styles" type="text/css">
    @import url(../../../../css/family_tree.css);
    g.deceased.male   rect { fill: url(#m_dead); }
    g.deceased.female rect { fill: url(#f_dead); }
  </style>
  <defs id="Xanth_defs">
    <radialGradient id="m_dead">
      <stop id="stop4423" style="stop-color:#ccccff;stop-opacity:0.85;" offset="75%" />
      <stop id="stop4425" style="stop-color:#eeeeff;stop-opacity:0.85;" offset="100%" />
    </radialGradient>
    <radialGradient id="f_dead">
      <stop id="stop4677" style="stop-color:#ffcccc;stop-opacity:0.85;" offset="75%" />
      <stop id="stop4679" style="stop-color:#ffeeee;stop-opacity:0.85;" offset="100%" />
    </radialGradient>
  </defs>
  <!--
    Generated by graphviz version 2.40.1 (20161225.0304)
    Edited with Inkscape 0.92.4 (5da689c313, 2019-01-14)
    Edited with Geany 1.33 (built on 2018-04-16 with GTK 3.22.29, GLib 2.56.1)
   -->
  <g id="Gorbage_chart" class="graph" transform="translate(5,422)">
    <title id="Gorbage_chart_title">The family of Gorbage</title>
    <text x="810" y="-408" id="Gorbage_chart_title_text" class="chart_title">The family of Gorbage</text>
    <g id="Gorbage--children" class="child" transform="translate(491,-358)">
      <title id="title4294">Gorbage to daughters</title>
      <path d="m 0,0 v 18"        id="Gorbage--cGorbag" />
      <path d="m 0,18 h -165 v 21" id="cGorbag--Goldy" />
      <path d="m 0,18 h  165 v 21" id="cGorbag--Glory" />
      <circle cx="0" cy="18" r="1.5" id="cGorbag" />
    </g>
    <g id="sibhar--descendants" class="descendant child" transform="translate(980,-339)">
      <title id="title4930">Harpy family</title>
      <path d="m 0,0 h -230 v 20" id="sibhar--Hardy" />
      <path d="m 0,0 h -150 v 20" id="sibhar--Grand" />
      <path d="m 0,0 h  -60 v 20" id="sibhar--Grobigtail" />
      <path d="m 0,0 h   30 v 20" id="sibhar--Hoary" />
      <path d="m 0,0 h  123 v 20" id="sibhar--Foulmouth" />
      <path d="m 0,0 h  220 v 20" id="sibhar--Fowlmouth" />
      <circle cx="0" cy="0" r="1.5" id="sibhar" />
    </g>
    <g id="sibgia--giants" class="descendant child" transform="translate(1368,-339)">
      <title id="title4965">Giant siblings</title>
      <path d="m 0,0 h -81 v 20" id="sibgia--giant1" />
      <path d="m 0,0 v   20"      id="sibgia--Greatbow" />
      <path d="m 0,0 h   79 v 20" id="sibgia--Girard" />
      <circle cx="0" cy="0" r="1.5" id="sibgia" />
    </g>
    <g id="subGol--family" class="marriage" transform="translate(281,-301)">
      <title id="title4313">Marriage of Goldy to subchief</title>
      <path d="m 0,0 h -19" id="mGoldy--subchief" />
      <path d="m 0,0 h  19" id="mGoldy--Goldy" />
      <g id="mGoldy--csubGol--Godiva" class="child">
        <title id="title4775">Child of Goldy and subchief</title>
        <path d="m 0,0 v 38" id="mGoldy--csubGol" />
        <path d="m 0,38 v 21" id="csubGol--Godiva" />
        <circle cx="0" cy="38" r="1.5" id="csubGol" />
      </g>
      <circle cx="0" cy="0" r="1.5" id="mGoldy" />
    </g>
    <g id="GloHar--family" class="marriage" transform="translate(702,-301)">
      <title id="title4590">Marriage of Glory and Hardy</title>
      <path d="m 0,0 h -19" id="mGloHar--Glory" />
      <path d="m 0,0 h  19" id="mGloHar--Hardy" />
      <g id="mGloHar--children" class="child">
        <title id="title4805">Children of Glory and Hardy</title>
        <path d="m 0,0 v 38" id="mGloHar--cGloHar" />
        <path d="m 0,38 h -36 v 76" id="cGloHar--Gloha" />
        <path d="m 0,38 h  36 v 21" id="cGloHar--Harglo" />
        <circle cx="0" cy="38" r="1.5" id="cGloHar" />
      </g>
      <circle cx="0" cy="0" r="1.5" id="mGloHar" />
    </g>
    <g id="GinGir--family" class="marriage" transform="translate(1495,-301)">
      <title id="title4499">Marriage of Gina and Girard</title>
      <path d="m 0,0 h -19" id="Girard--mGinGir" />
      <path d="m 0,0 h  19" id="mGinGir--Gina" />
      <g id="mGinGir--children" class="edge possible child line">
        <title id="title4835">Possible children of Gina and Girard</title>
        <path d="m 0,0 v 38"       id="mGinGir--cGinGir" />
        <path d="m 0,38 h -37 v 21" id="cGinGir--Gim" />
        <path d="m 0,38 h  37 v 21" id="cGinGir--Gine" />
        <circle cx="0" cy="38" r="1.5" id="cGinGir" />
      </g>
      <circle cx="0" cy="0" r="1.5" id="mGinGir" />
    </g>
    <g id="giant1--children" class="child" transform="translate(1287,-283)">
      <title id="title4357">Giant 1 to children</title>
      <path d="m 0,0 v 20" id="path4359" />
      <path d="m 0,21 h -35 v 75" id="cgiant1--Graeboe" />
      <g id="cgiant1--possible" class="possible">
        <title id="title5000">Giant 1 to possible child</title>
        <path d="m 0,21 h 40 v 20" id="cgiant1--Kerby" />
      </g>
      <circle cx="0" cy="21" r="1.5" id="cgiant1" />
    </g>
    <g id="GodGou--family" class="marriage" transform="translate(327,-224)">
      <title id="title4628">Marriage of Godiva and Gouty</title>
      <path d="m 0,0 h -19" id="mGodGou--Godiva" />
      <path d="m 0,0 h  19" id="mGodGou--Gouty" />
      <g id="GodGou--Gwendolyn" class="child">
        <title id="title4790">Child of Godiva and Gouty</title>
        <path d="m 0,0 v 92" id="mGodGou--cGodGou" />
        <path d="m 0,92 v 20" id="cGodGou--Gwendolyn" />
        <circle cx="0" cy="92" r="1.5" id="cGodGou" />
      </g>
      <circle cx="0" cy="0" r="1.5" id="mGodGou" />
    </g>
    <g id="Gouty1--family" class="affair" transform="translate(470,-224)">
      <title id="title4444">First affair of Gouty</title>
      <path d="m 0,0 h -19" id="aGouty1--Gouty" />
      <path d="m 0,0 h  19" id="aGouty1--mistress1" />
      <g id="aGouty1--cun1Gou--Gobble" class="child">
        <title id="title4880">Child of first mistress and Gouty</title>
        <path d="m 0,0 v 92" id="aGouty1--cun1Gou" />
        <path d="m 0,92 v 20" id="cun1Gou--Gobble" />
        <circle cx="0" cy="92" r="1.5" id="cun1Gou" />
      </g>
      <circle cx="0" cy="0" r="1.5" id="aGouty1" />
    </g>
    <g id="Gouty2--family" class="affair" transform="translate(544,-169)">
      <title id="title4454">Second affair of Gouty</title>
      <path d="m 0,0 l -93,-54" id="aGouty2--Gouty" />
      <path d="m 0,0 h 19" id="aGouty2--mistress2" />
      <g id="aGouty2--cun2Gou--usonGouty" class="child">
        <title id="title4895">Child of second mistress and Gouty</title>
        <path d="m 0,0 v 37" id="aGouty2--cun2Gou" />
        <path d="m 0,37 v 20" id="cun2Gou--usonGouty" />
        <circle cx="0" cy="37" r="1.5" id="cun2Gou" />
      </g>
      <circle cx="0" cy="0" r="1.5" id="aGouty2" />
    </g>
    <g id="GloGra--family" class="marriage" transform="translate(955,-169)">
      <title id="title4663">Marriage of Gloha and Graeboe</title>
      <path d="m 0,0 h -262" id="mGloGra--Gloha" />
      <path d="m 0,0 h  262" id="mGloGra--Graeboe" />
      <g id="cGloGra--children" class="child">
        <title id="title5025">Children of Gloha and Graeboe</title>
        <path d="m 0,0 v 113"    id="mGloGra--cGloGra" />
        <g id="cGloGra--pchildren" class="possible">
          <title id="title5015">Possible children of Gloha and Graeboe</title>
          <path d="m 0,113 h -72 v 20" id="cGloGra--Ghina" />
          <path d="m 0,113       v 20" id="cGloGra--Geddy" />
        </g>
        <path d="m 0,113 h 74 v 20" id="cGloGra--Orienta" />
        <circle cx="0" cy="113" r="1.5" id="cGloGra" />
      </g>
      <circle cx="0" cy="0" r="1.5" id="mGloGra" />
    </g>
    <g id="unCheif--Goody" class="child" transform="translate(207,-206)">
      <title id="title4409">Cheif to Goody</title>
      <path d="m 0,0 v 74" id="unCheif--cunCheif" />
      <path d="m 0,74 v 20" id="cunCheif--Goody" />
      <circle cx="0" cy="74" r="1.5" id="cunCheif" />
    </g>
    <g id="GoGGoo--family" class="marriage" transform="translate(159,-94)">
      <title id="title4696">Marriage of Go-Go and Goody</title>
      <path d="m 0,0 h -19" id="mGoGGoo--GoGo" />
      <path d="m 0,0 h  19" id="mGoGGoo--Goody" />
      <g id="mGoGGoo--cGoGGoo" class="edge child">
        <title id="title4855">Children of Go-Go and Goody</title>
        <path d="m 0, 0 v  38"      id="mGoGGoo--cGoGGoo" />
        <path d="m 0,38 h -36 v 20" id="cGoGGoo--unson" />
        <path d="m 0,38 h  35 v 20" id="cGoGGoo--undaughter" />
        <circle cx="0" cy="38" r="1.5" id="cGoGGoo" />
      </g>
      <circle cx="0" cy="0" r="1.5" id="mGoGGoo" />
    </g>
    <g id="GweGoo--marriage" class="marriage" transform="translate(254,-94)">
      <title id="title4509">Marriage of Gwendolyn and Goody</title>
      <path d="m 0,0 h -20" id="mGweGoo--Goody" />
      <path d="m 0,0 h  21" id="mGweGoo--Gwendolyn" />
      <circle cx="0" cy="0" r="1.5" id="mGweGoo" />
    </g>
    <g id="unnSon--marriage" class="marriage" transform="translate(74,-18)">
      <title id="title4755">Marriage of Go-Go and Goody's son</title>
      <path d="m 0,0 h -19" id="munnSon--undaughterinlaw" />
      <path d="m 0,0 h  19" id="munnSon--unson" />
      <circle cx="0" cy="0" r="1.5" id="munnSon" />
    </g>
    <g id="unnDau--marriage" class="marriage" transform="translate(244,-18)">
      <title id="title4736">Marriage of Go-Go and Goody's daughter</title>
      <path d="m 0,0 h -19" id="munnDau--undaughter" />
      <path d="m 0,0 h  19" id="munnDau--unsoninlaw" />
      <circle cx="0" cy="0" r="1.5" id="munnDau" />
    </g>
    <g id="Gorbage" class="male king" transform="translate(426,-395)">
      <title id="title4280">Gorbage, Chief of the North Slope Gap Goblins</title>
      <rect x="0" y="0" width="132" height="38" id="box4282" />
      <text x="66" y="8" id="Gorbage_text1">Gorbage</text>
      <text x="66" y="20" class="ruler" id="Gorbage_text2">Chief of the</text>
      <text x="66" y="30" class="ruler" id="Gorbage_text3">North Slope Gap Goblins</text>
    </g>
    <g id="subchief" class="male unnamed" transform="translate(206,-319)">
      <title id="title4299">unnamed sub-chief</title>
      <rect x="0" y="0" width="56" height="36" id="box4301" />
      <text x="28" y="13" id="text4303">unnamed</text>
      <text x="28" y="23" id="text4305">sub-chief</text>
    </g>
    <g id="Goldy" class="female royal" transform="translate(300,-319)">
      <title id="title4571">Goldy</title>
      <rect x="0" y="0" width="54" height="36" id="box4573" />
      <text x="27" y="18" id="text4575">Goldy</text>
    </g>
    <g id="Glory" class="female royal" transform="translate(629,-319)">
      <title id="title4578">Glory</title>
      <rect x="0" y="0" width="54" height="36" id="box4580" />
      <text x="27" y="18" id="text4582">Glory</text>
    </g>
    <g id="Hardy" class="male" transform="translate(721,-319)">
      <title id="title4318">Hardy (harpy)</title>
      <rect x="0" y="0" width="54" height="36" id="box4320" />
      <text x="27" y="17" id="text4322">Hardy</text>
      <text x="27" y="26" class="species" id="text4324">(harpy)</text>
    </g>
    <g id="Grand" class="female" transform="translate(796,-319)">
      <title id="title4327">Grand</title>
      <rect x="0" y="0" width="68" height="36" id="box4329" />
      <text x="34" y="16" id="Grand_name1">Grand</text>
      <text x="34" y="27" id="Grand_name2">Harridan</text>
    </g>
    <g id="Grobigtail" class="female" transform="translate(884,-319)">
      <title id="title4595">Grobigtail</title>
      <rect x="0" y="0" width="68" height="36" id="box4597" />
      <text x="34" y="18" id="text4599">Grobigtail</text>
    </g>
    <g id="Hoary" class="female" transform="translate(972,-319)">
      <title id="title4602">Hoary</title>
      <rect x="0" y="0" width="74" height="36" id="box4604" />
      <text x="37" y="16" id="Hoary_name1">Hoary</text>
      <text x="37" y="27" id="Hoary_name2">Harributtes</text>
    </g>
    <g id="Foulmouth" class="female" transform="translate(1066,-319)">
      <title id="title4609">Foulmouth</title>
      <rect x="0" y="0" width="74" height="36" id="box4611" />
      <text x="37" y="18" id="text4613">Foulmouth</text>
    </g>
    <g id="Fowlmouth" class="female" transform="translate(1160,-319)">
      <title id="title4616">Fowlmouth</title>
      <rect x="0" y="0" width="76" height="36" id="box4618" />
      <text x="38" y="18" id="text4620">Fowlmouth</text>
    </g>
    <g id="giant1" class="neuter unnamed" transform="translate(1258,-319)">
      <title id="title434">unnamed giant</title>
      <rect x="0" y="0" width="56" height="36" id="box4336" />
      <text x="28" y="13" id="text4338">unnamed</text>
      <text x="28" y="23" id="text4340">giant</text>
    </g>
    <g id="Greatbow" class="male" transform="translate(1334,-319)">
      <title id="title4480">Greatbow</title>
      <rect x="0" y="0" width="68" height="36" id="box4482" />
      <text x="34" y="18" id="text4484">Greatbow</text>
    </g>
    <g id="Girard" class="male" transform="translate(1422,-319)">
      <title id="title4487">Girard</title>
      <rect x="0" y="0" width="54" height="36" id="box4489" />
      <text x="27" y="18" id="text4491">Girard</text>
    </g>
    <g id="Gina" class="female" transform="translate(1514,-319)">
      <title id="title4668">Gina</title>
      <rect x="0" y="0" width="54" height="36" id="box4670" />
      <text x="27" y="18" id="text4672">Gina</text>
    </g>
    <g id="unCheif" class="male king unnamed" transform="translate(178,-242)">
      <title id="title4391">unnamed Cheif</title>
      <rect x="0" y="0" width="56" height="36" id="box4393" />
      <text x="28" y="13" id="text4395">unnamed</text>
      <text x="28" y="23" id="text4397">Chief</text>
    </g>
    <g id="Godiva" class="female royal" transform="translate(254,-242)">
      <title id="title4414">Godiva</title>
      <rect x="0" y="0" width="54" height="36" id="box4416" />
      <text x="27" y="18" id="text4418">Godiva</text>
    </g>
    <g id="Gouty" class="male king deceased" transform="translate(346,-243)">
      <title id="title4421">Gouty, former Chief of Goblin Mountain (deceased)</title>
      <rect x="0" y="0" width="104" height="38" id="box4430" />
      <text x="52" y="8" id="Gouty_text1">Gouty</text>
      <text x="52" y="20" id="Gouty_text2" class="ruler">Chief of</text>
      <text x="52" y="30" id="Gouty_text3" class="ruler">Goblin Mountain</text>
    </g>
    <g id="mistress1" class="female unnamed" transform="translate(489,-242)">
      <title id="title4633">unnamed mistress</title>
      <rect x="0" y="0" width="56" height="36" id="box4635" />
      <text x="28" y="13" id="text4637">unnamed</text>
      <text x="28" y="23" id="text4639">mistress</text>
    </g>
    <g id="mistress2" class="female unnamed" transform="translate(563,-187)">
      <title id="title4642">unnamed mistress</title>
      <rect x="0" y="0" width="56" height="36" id="box4644" />
      <text x="28" y="13" id="text4646">unnamed</text>
      <text x="28" y="23" id="text4648">mistress</text>
    </g>
    <g id="Gloha" class="female royal" transform="translate(639,-187)">
      <title id="title4651">Gloha</title>
      <rect x="0" y="0" width="54" height="36" id="box4653" />
      <text x="27" y="18" id="text4655">Gloha</text>
    </g>
    <g id="Harglo" class="male royal" transform="translate(711,-242)">
      <title id="title4459">Harglo</title>
      <rect x="0" y="0" width="54" height="36" id="box4461" />
      <text x="27" y="18" id="text4463">Harglo</text>
    </g>
    <g id="Graeboe" class="male" transform="translate(1218,-187)">
      <title id="title4466">Graeboe</title>
      <rect x="0" y="0" width="64" height="36" id="box4468" />
      <text x="32" y="18" id="text4470">Graeboe</text>
    </g>
    <g id="Kerby" class="male possible" transform="translate(1300,-242)">
      <title id="title4473">Kerby</title>
      <rect x="0" y="0" width="54" height="36" id="box4475" />
      <text x="27" y="18" id="text4477">Kerby</text>
    </g>
    <g id="Gim" class="male possible" transform="translate(1431,-242)">
      <title id="title4530">Gim</title>
      <rect x="0" y="0" width="54" height="36" id="box4532" />
      <text x="27" y="18" id="text4534">Gim</text>
    </g>
    <g id="Gine" class="male possible" transform="translate(1505,-242)">
      <title id="title4537">Gine</title>
      <rect x="0" y="0" width="54" height="36" id="box4539" />
      <text x="27" y="18" id="text4541">Gine</text>
    </g>
    <g id="GoGo" class="female deceased" transform="translate(86,-112)">
      <title id="title4675">Go-Go (deceased)</title>
      <rect x="0" y="0" width="54" height="36" id="box4684" />
      <text x="27" y="18" id="text4686">Go-Go</text>
    </g>
    <g id="Goody" class="male royal" transform="translate(178,-112)">
      <title id="title4400">Goody</title>
      <rect x="0" y="0" width="56" height="36" id="box4402" />
      <text x="28" y="12" id="text4404">Goody</text>
      <text x="28" y="24" id="text4406">(Gory)</text>
    </g>
    <g id="Gwendolyn" class="female king" transform="translate(275,-112)">
      <title id="title4701">Gwendolyn, Chief of Goblin Mountain</title>
      <rect x="0" y="0" width="104" height="36" id="box4703" />
      <text x="52" y="9" id="Gwendolyn_text1">Gwendolyn</text>
      <text x="52" y="20" id="Gwendolyn_text2" class="ruler">Chief of</text>
      <text x="52" y="30" id="Gwendolyn_text3" class="ruler">Goblin Mountain</text>
    </g>
    <g id="Gobble" class="male" transform="translate(442,-112)">
      <title id="title4514">Gobble</title>
      <rect x="0" y="0" width="56" height="36" id="box4516" />
      <text x="28" y="18" id="text4518">Gobble</text>
    </g>
    <g id="usonGouty" class="male unnamed" transform="translate(516,-112)">
      <title id="title4521">unamed son of Gouty and second mistress</title>
      <rect x="0" y="0" width="56" height="36" id="box4523" />
      <text x="28" y="13" id="text4525">unnamed</text>
      <text x="28" y="23" id="text4527">son</text>
    </g>
    <g id="undaughterinlaw" class="female unnamed" transform="translate(0,-36)">
      <title id="title4741">unnamed daughter-in-law</title>
      <rect x="0" y="0" width="56" height="36" id="box4743" />
      <text x="28" y="13" id="text4745">unnamed</text>
      <text x="28" y="23" id="text4747">wife</text>
    </g>
    <g id="unson" class="male unnamed royal" transform="translate(93,-36)">
      <title id="title4544">unnamed son</title>
      <rect x="0" y="0" width="56" height="36" id="box4546" />
      <text x="28" y="13" id="text4548">unnamed</text>
      <text x="28" y="23" id="text4550">son</text>
    </g>
    <g id="undaughter" class="female unnamed royal" transform="translate(169,-36)">
      <title id="title4553">unnamed daughter</title>
      <rect x="0" y="0" width="56" height="36" id="box4555" />
      <text x="28" y="13" id="text4557">unnamed</text>
      <text x="28" y="23" id="text4559">daughter</text>
    </g>
    <g id="unsoninlaw" class="male unnamed" transform="translate(263,-36)">
      <title id="title4562">unnamed son-in-law</title>
      <rect x="0" y="0" width="56" height="36" id="box4564" />
      <text x="28" y="13" id="text4566">unnamed</text>
      <text x="28" y="23" id="text4568">husband</text>
    </g>
    <g id="Ghina" class="female possible royal" transform="translate(855,-36)">
      <title id="title4710">Ghina</title>
      <rect x="0" y="0" width="54" height="36" id="box4712" />
      <text x="27" y="18" id="text4714">Ghina</text>
    </g>
    <g id="Geddy" class="female possible royal" transform="translate(927,-36)">
      <title id="title4717">Geddy</title>
      <rect x="0" y="0" width="54" height="36" id="box4719" />
      <text x="27" y="18" id="text4721">Geddy</text>
    </g>
    <g id="Orienta" class="female royal" transform="translate(1003,-36)">
      <title id="title4724">Orienta</title>
      <rect x="0" y="0" width="56" height="36" id="box4726" />
      <text x="28" y="18" id="text4728">Orienta</text>
    </g>
  </g>
</svg>
