<?xml version="1.0" encoding="UTF-8" standalone="no"?>
<?xml-stylesheet href="../../../../css/family_tree.css" type="text/css"?>
<svg
  xmlns="http://www.w3.org/2000/svg"
  xmlns:svg="http://www.w3.org/2000/svg"
  xmlns:rdf="http://www.w3.org/1999/02/22-rdf-syntax-ns#"
  xmlns:dc="http://purl.org/dc/elements/1.1/"
  xmlns:cc="http://creativecommons.org/ns#"
  viewBox="0 0 648 574"
  width="648"
  height="574"
  id="Incarnations_family"
>
  <title id="Incarnations_title">The family from the Incarnations of Immortality</title>
  <metadata id="Incarnations_metadata">
    <rdf:RDF>
      <cc:Work rdf:about="">
        <dc:format>image/svg+xml</dc:format>
        <dc:type rdf:resource="http://purl.org/dc/dcmitype/StillImage" />
        <dc:title>The family of the Incarnations of Immortality</dc:title>
        <dc:creator>
          <cc:Agent>
            <dc:title>Burge, Dawn M.</dc:title>
          </cc:Agent>
        </dc:creator>
        <dc:language>en-US</dc:language>
        <dc:date>2019-08</dc:date>
        <dc:contributor>
          <cc:Agent>
            <dc:title>Anthony, Piers (author)</dc:title>
          </cc:Agent>
        </dc:contributor>
      </cc:Work>
    </rdf:RDF>
  </metadata>
  <style id="Xanth_styles" type="text/css">
    @import url(../../../../css/family_tree.css);

    g.deceased.male   rect { fill: url(#m_dead); }
    g.deceased.female rect { fill: url(#f_dead); }
    g.deceased.neuter rect { fill: url(#n_dead); }
    g.incarnation     rect { stroke-width: 2px; }
    rect#Zane_box   { stroke: #ffff66; }
    rect#Norton_box { stroke: #6666ff; }
    rect#Niobe_box  { stroke: #666666; }
    rect#Mym_box    { stroke: #ff6666; }
    rect#Orb_box    { stroke: #66ff66; }
    rect#Perry_box  { stroke: #66ffff; }
    rect#Orlene_box { stroke: #ff66ff; }
    rect#Kerena_box { stroke: #000000; }
  </style>
  <defs id="Xanth_defs">
    <radialGradient id="m_dead">
      <stop id="stop4423" style="stop-color:#ccccff;stop-opacity:0.85;" offset="75%" />
      <stop id="stop4425" style="stop-color:#eeeeff;stop-opacity:0.85;" offset="100%" />
    </radialGradient>
    <radialGradient id="f_dead">
      <stop id="stop4677" style="stop-color:#ffcccc;stop-opacity:0.85;" offset="75%" />
      <stop id="stop4679" style="stop-color:#ffeeee;stop-opacity:0.85;" offset="100%" />
    </radialGradient>
    <radialGradient id="n_dead">
      <stop id="stop4677" style="stop-color:#ccffcc;stop-opacity:0.85;" offset="50%" />
      <stop id="stop4679" style="stop-color:#eeffee;stop-opacity:0.85;" offset="100%" />
    </radialGradient>
  </defs>
  <!--
    Generated by graphviz version 2.40.1 (20161225.0304)
    Edited with Inkscape 0.92.4 (5da689c313, 2019-01-14)
    Edited with Geany 1.33 (built on 2018-04-16 with GTK 3.22.29, GLib 2.56.1)
   -->
  <g id="Incarnations_chart" class="graph" transform="translate(5,645)">
    <title id="Incarnations_chart_title">The family from the Incarnations of Immortailty series</title>
    <text x="335" y="-631" class="chart_title" id="Incarnations_chart_title_text">The Incarnations of Immortality</text>
    <!-- All the affairs of Mym and Perry who are not in the family -->
    <g id="LilMym--affair" class="affair" transform="translate(287,-318)">
      <title id="title4157">Affair of Lilith and Mym</title>
      <path d="m 0,0 l -16,58" id="aLilMym--Mym" />
      <path d="m 0,0 h 12" id="aLilMym--Lilith" />
      <circle cx="0" cy="0" r="1.5" id="aLilMym" />
    </g>
    <g id="LilPer--affair" class="affair" transform="translate(436,-318)">
      <title id="title4286">Affair of Lilith and Perry</title>
      <path d="m 0,0 h -84" id="aLilPer--Lilith" />
      <path d="m 0,0 l 18,58" id="aLilPer--Perry" />
      <circle cx="0" cy="0" r="1.5" id="aLilPer" />
    </g>
    <g id="LeaMym--affair" class="affair" transform="translate(122,-286)">
      <title id="title4269">Affair of Leaga and Mym</title>
      <path d="m 0,0 h -48" id="aLeaMym--Leaga" />
      <path d="m 0,0 l 53,24" id="aLeaMym--Mym" />
      <circle cx="0" cy="0" r="1.5" id="aLeaMym" />
    </g>
    <g id="RapMym--affair" class="affair" transform="translate(122,-238)">
      <title id="title4331">Affair of Rapture and Mym</title>
      <path d="m 0,0 h -48" id="aRapMym--Rapture" />
      <path d="m 0,0 l 53,-24" id="aRapMym--Mym" />
      <circle cx="0" cy="0" r="1.5" id="aRapMym" />
    </g>
    <g id="sibKer--siblings" class="child" transform="translate(227,-616)">
      <title id="title4508">Kerena and sibling</title>
      <path d="m 0,0 h -63 v 21" id="sibKer--Kerena" />
      <path d="m 0,0 h  64 v 22" id="sibKer--unnamed" />
      <circle cx="0" cy="0" r="1.5" id="sibKer" />
    </g>
    <g id="KerGaw--family" class="affair" transform="translate(95,-576)">
      <title id="title4003">Affair of Kerena and Gawain</title>
      <path d="m 0,0 h -19" id="aKerGaw--Gawain1" />
      <path d="m 0,0 h  19" id="aKerGaw--Kerena" />
      <g id="KerGaw--child" class="child">
        <title id="title4448">aKeGa to Gawain2</title>
        <path d="m 0,0 v 38" id="aKerGaw--Gawain2" />
      </g>
      <circle cx="0" cy="0" r="1.5" id="aKerGaw" />
    </g>
    <g id="unnamed--Sean" class="descendant child" transform="translate(291,-558)">
      <title id="title4383">unnamed to Sean</title>
      <path d="m 0,0 v 26 a 1 1 0 0 0 0,24 v 23" id="path4385" />
    </g>
    <g id="Gawain2--Gawain3" class="descendant child" transform="translate(95,-501)">
      <title id="title4022">Gawain2 to Gawain3</title>
      <path d="m 0,0 v 333" id="path4024" />
    </g>
    <g id="Kaftan--brothers" class="child" transform="translate(292,-520)">
      <title id="title4523">Kaftan brothers</title>
      <path d="m 0,0 h -136 v 36" id="cKaft--Kaftan1" />
      <path d="m 0,0 h  136 v 36" id="cKaft--Kaftan2" />
      <circle cx="0" cy="0" r="1.5" id="cKaft" />
    </g>
    <g id="Kaftan1--Cedric" class="child" transform="translate(156,-448)">
      <title id="title4050">Kaftan1 to Cedric</title>
      <path d="m 0,0 v 20" id="path4052" />
    </g>
    <g id="Kaftan2--Pacian" class="child" transform="translate(428,-448)">
      <title id="title4087">Kaftan2 to Pacian</title>
      <path d="m 0,0 v 20" id="path4089" />
    </g>
    <g id="Sean--Niobe" class="child" transform="translate(290,-448)">
      <title id="title4075">Sean to Niobe</title>
      <path d="m 0,0 v 18" id="path4077" />
    </g>
    <g id="NioCed--family" class="marriage" transform="translate(219,-410)">
      <title id="title4097">Marriage of Niobe and Cedric</title>
      <path d="m 0,0 h -19" id="mNioCed--Cedric" />
      <path d="m 0,0 h  19" id="mNioCed--Niobe" />
      <g id="NioCed--child" class="child">
        <title id="title4388">mNiCe to Cedric2</title>
        <path d="m 0,0 v 38" id="mNioCed--Cedric2" />
      </g>
      <circle cx="0" cy="0" r="1.5" id="mNioCed" />
    </g>
    <g id="NioPac--family" class="marriage" transform="translate(363,-410)">
      <title id="title4238">Marriage of Niobe and Pacian</title>
      <path d="m 0,0 h -19" id="mNioPac--Niobe" />
      <path d="m 0,0 h  19" id="mNioPac--Pacian" />
      <g id="NioPac--child" class="child">
        <title id="title4403">mNiPa to Orb</title>
        <path d="m 0,0 v 128" id="mNioPac--Orb" />
      </g>
      <circle cx="0" cy="0" r="1.5" id="mNioPac" />
    </g>
    <g id="BlaPac--family" class="marriage" transform="translate(493,-410)">
      <title id="title4107">Marriage of Blanche and Pacian</title>
      <path d="m 0,0 h -19" id="mBlaPac--Pacian" />
      <path d="m 0,0 h  19" id="mBlaPac--Blanche" />
      <g id="BlaPac--child" class="child">
        <title id="title4408">mBlPa to Blenda</title>
        <path d="m 0,0 v 38" id="mBlaPac--Blenda" />
      </g>
      <circle cx="0" cy="0" r="1.5" id="mBlaPac" />
    </g>
    <g id="BleCed--family" class="marriage" transform="translate(428,-354)">
      <title id="title4126">Marriage of Blenda and Cedric II</title>
      <path d="m 0,0 h -155" id="mBleCed--Cedric2" />
      <path d="m 0,0 h   37" id="mBleCed--Blenda" />
      <g id="BleCed--child" class="child">
        <title id="title4423">mBlCe to Luna</title>
        <path d="m 0,0 v 130" id="mBleCed--Luna" />
      </g>
      <circle cx="0" cy="0" r="1.5" id="mBleCed" />
    </g>
    <g id="OrbMym--family" class="affair" transform="translate(290,-261)">
      <title id="title4147">Affair of Orb and Mym</title>
      <path d="m 0,0 h -19" id="aOrbMym--Mym" />
      <path d="m 0,0 h  19" id="aOrbMym--Orb" />
      <g id="OrbMym--child" class="child">
        <title id="title4478">aOrMy to Orlene</title>
        <path d="m 0,0 v 91" id="aOrbMym--Orlene" />
      </g>
      <circle cx="0" cy="0" r="1.5" id="aOrbMym" />
    </g>
    <g id="OrbPer--marriage" class="marriage" transform="translate(435,-261)">
      <title id="title4307">Marriage of Orb and Perry</title>
      <path d="m 0,0 h -19" id="mOrbPer--Orb" />
      <path d="m 0,0 h  19" id="mOrbPer--Perry" />
      <circle cx="0" cy="0" r="1.5" id="mOrbPer" />
    </g>
    <g id="JolPer--marriage" class="marriage" transform="translate(568,-261)">
      <title id="title4178">Marriage of Jolie and Perry</title>
      <path d="m 0,0 h -19" id="mJolPer--Perry" />
      <path d="m 0,0 h  19" id="mJolPer--Jolie" />
      <circle cx="0" cy="0" r="1.5" id="mJolPer" />
    </g>
    <g id="LunZan--affair" class="affair" transform="translate(474,-205)">
      <title id="title4348">Affair of Luna and Zane</title>
      <path d="m 0,0 h -19" id="aLunZan--Zane" />
      <path d="m 0,0 h  19" id="aLunZan--Luna" />
      <circle cx="0" cy="0" r="1.5" id="aLunZan" />
    </g>
    <g id="OrlGaw--family" class="marriage" transform="translate(181,-150)">
      <title id="title4199">Marriage of Orlene and Gawain</title>
      <path d="m 0,0 h -57" id="mOrlGaw--Gawain3" />
      <path d="m 0,0 h  57" id="mOrlGaw--Orlene" />
      <g id="OrlGaw--child" class="adopted child">
        <title id="title4438">mOrGa to Gawain4</title>
        <path d="m 0,0 v 27 h 178" id="mOrlGaw--Gawain4" />
      </g>
      <circle cx="0" cy="0" r="1.5" id="mOrlGaw" />
    </g>
    <g id="OrlNor--family" class="affair" transform="translate(359,-150)">
      <title id="title4369">Affair of Orlene and Norton</title>
      <path d="m 0,0 h -19" id="aOrlNor--Orlene" />
      <path d="m 0,0 h  19" id="aOrlNor--Norton" />
      <g id="OrlNor--child" class="child">
        <title id="title4468">aOrNo to Gawain4</title>
        <path d="m 0,0 v 38" id="aOrlNor--Gawain4" />
      </g>
      <circle cx="0" cy="0" r="1.5" id="aOrlNor" />
    </g>
    <g id="Gawain1" class="male deceased" transform="translate(0,-594)">
      <title id="title3991">Gawain I (first)</title>
      <rect x="0" y="0" width="76" height="36" id="Gawain1_box" />
      <text x="38" y="18" id="text3995">Sir Gawain</text>
    </g>
    <g id="Kerena" class="female incarnation" transform="translate(114,-596)">
      <title id="title4222">Kerena, Nox, Incarnation of Night</title>
      <rect x="0" y="0" width="101" height="40" id="Kerena_box" />
      <text x="50" y="11" id="text4226">Kerena</text>
      <text x="50" y="22" id="text4228" class="incname">Nox</text>
      <text x="50" y="32" id="text4230" class="incof">Incarnation of Night</text>
    </g>
    <g id="unnamed" class="neuter deceased unnamed" transform="translate(263,-594)">
      <title id="title4374">unnamed</title>
      <rect x="0" y="0" width="56" height="36" id="unnamed_box" />
      <text x="28" y="13" id="text4378">unnamed</text>
      <text x="28" y="23" id="text4380">sibling</text>
    </g>
    <g id="Gawain2" class="male deceased" transform="translate(61,-537)">
      <title id="title4008">Gawain II (first)</title>
      <rect x="0" y="0" width="68" height="36" id="Gawain2_box" />
      <text x="34" y="18" id="text4012">Gawain II</text>
    </g>
    <g id="Kaftan1" class="male deceased unnamed" transform="translate(129,-484)">
      <title id="title4027">Cedric Kaftan's father</title>
      <rect x="0" y="0" width="54" height="36" id="Kaftan1_box" />
      <text x="27" y="13" id="text4031">Cedric's</text>
      <text x="27" y="23" id="text4033">father</text>
    </g>
    <g id="Sean" class="male deceased" transform="translate(263,-484)">
      <title id="title4036">Sean</title>
      <rect x="0" y="0" width="54" height="36" id="Sean_box" />
      <text x="27" y="18" id="text4040">Sean</text>
    </g>
    <g id="Kaftan2" class="male deceased unnamed" transform="translate(401,-484)">
      <title id="title4055">Pacian Kaftan's father</title>
      <rect x="0" y="0" width="54" height="36" id="Kaftan2_box" />
      <text x="27" y="13" id="text4059">Pacian's</text>
      <text x="27" y="23" id="text4061">father</text>
    </g>
    <g id="Cedric" class="male deceased" transform="translate(111,-428)">
      <title id="title4043">Cedric Kaftan</title>
      <rect x="0" y="0" width="88" height="36" id="Cedric_box" />
      <text x="44" y="18" id="text4047">Cedric Kaftan</text>
    </g>
    <g id="Niobe" class="female incarnation" transform="translate(238,-430)">
      <title id="title4064">Niobe, Clotho &amp; Lachesis, Incarnation of Fate</title>
      <rect x="0" y="0" width="106" height="40" id="Niobe_box" />
      <text x="53" y="11" id="text4068">Niobe</text>
      <text x="53" y="22" id="text4070" class="incname">Clotho &amp; Lachesis</text>
      <text x="53" y="32" id="text4072" class="incof">Incarnation of Fate</text>
    </g>
    <g id="Pacian" class="male deceased" transform="translate(382,-428)">
      <title id="title4080">Pacian Kaftan</title>
      <rect x="0" y="0" width="92" height="36" id="Pacian_box" />
      <text x="46" y="18" id="text4084">Pacian Kaftan</text>
    </g>
    <g id="Blanche" class="female deceased" transform="translate(512,-428)">
      <title id="title4243">Blanche</title>
      <rect x="0" y="0" width="60" height="36" id="Blanche_box" />
      <text x="30" y="18" id="text4247">Blanche</text>
    </g>
    <g id="Cedric2" class="male deceased" transform="translate(165,-372)">
      <title id="title4112">Cedric Kaftan, Jr. (Magician)</title>
      <rect x="0" y="0" width="108" height="36" id="Cedric2_box" />
      <text x="54" y="14" id="text4116">Cedric Kaftan, Jr.</text>
      <text x="54" y="25" id="text4118" class="job">(Magician)</text>
    </g>
    <g id="Blenda" class="female deceased" transform="translate(465,-372)">
      <title id="title4250">Blenda Kaftan</title>
      <rect x="0" y="0" width="54" height="36" id="Blenda_box" />
      <text x="27" y="18" id="text4254">Blenda</text>
    </g>
    <g id="Leaga" class="female" transform="translate(21,-304)">
      <title id="title4257">Leaga</title>
      <rect x="0" y="0" width="54" height="36" id="Leaga_box" />
      <text x="27" y="18" id="text4261">Leaga</text>
    </g>
    <g id="Rapture" class="female" transform="translate(15,-256)">
      <title id="title4319">Rapture</title>
      <rect x="0" y="0" width="60" height="36" id="Rapture_box" />
      <text x="30" y="18" id="text4323">Rapture</text>
    </g>
    <g id="Lilith" class="female" transform="translate(299,-336)">
      <title id="title4274">Lilith</title>
      <rect x="0" y="0" width="54" height="36" id="Lilith_box" />
      <text x="27" y="18" id="text4278">Lilith</text>
    </g>
    <g id="Mym" class="male incarnation" transform="translate(175,-282)">
      <title id="title4131">Mym, Mars, Incarnation of War</title>
      <rect x="0" y="0" width="96" height="40" id="Mym_box" />
      <text x="48" y="11" id="text4135">Mym</text>
      <text x="48" y="22" id="text4137" class="incname">Mars</text>
      <text x="48" y="32" id="text4139" class="incof">Incarnation of War</text>
    </g>
    <g id="Orb" class="female incarnation" transform="translate(309,-282)">
      <title id="title4291">Orb, Gaea, Incarnation of Nature</title>
      <rect x="0" y="0" width="107" height="40" id="Orb_box" />
      <text x="53" y="11" id="text4295">Orb</text>
      <text x="53" y="22" id="text4297" class="incname">Gaea</text>
      <text x="53" y="32" id="text4299" class="incof">Incarnation of Nature</text>
    </g>
    <g id="Perry" class="male incarnation" transform="translate(454,-282)">
      <title id="title4162">Perry, Satan, Incarnation of Evil</title>
      <rect x="0" y="0" width="94" height="40" id="Perry_box" />
      <text x="47" y="11" id="text4166">Perry</text>
      <text x="47" y="22" id="text4168" class="incname">Satan</text>
      <text x="47" y="32" id="text4170" class="incof">Incarnation of Evil</text>
    </g>
    <g id="Jolie" class="female deceased" transform="translate(587,-280)">
      <title id="title4312">Jolie</title>
      <rect x="0" y="0" width="54" height="36" id="Jolie_box" />
      <text x="27" y="18" id="text4316">Jolie</text>
    </g>
    <g id="Luna" class="female" transform="translate(401,-224)">
      <title id="title4336">Luna</title>
      <rect x="0" y="0" width="54" height="36" id="Luna_box" />
      <text x="27" y="18" id="text4340">Luna</text>
    </g>
    <g id="Zane" class="male incarnation" transform="translate(493,-224)">
      <title id="title4183">Zane, Thanatos, Incarnation of Death</title>
      <rect x="0" y="0" width="104" height="40" id="Zane_box" />
      <text x="52" y="11" id="text4187">Zane</text>
      <text x="52" y="22" id="text4189" class="incname">Thanatos</text>
      <text x="52" y="32" id="text4191" class="incof">Incarnation of Death</text>
    </g>
    <g id="Gawain3" class="male deceased" transform="translate(66,-169)">
      <title id="title4015">Gawain I (second)</title>
      <rect x="0" y="0" width="58" height="36" id="Gawain3_box" />
      <text x="29" y="18" id="text4019">Gawain</text>
    </g>
    <g id="Orlene" class="female incarnation" transform="translate(238,-170)">
      <title id="title4353">Orlene, Goddess, Incarnation of Good</title>
      <rect x="0" y="0" width="102" height="40" id="Orlene_box" />
      <text x="51" y="11" id="text4357">Orlene</text>
      <text x="51" y="22" id="text4359" class="incname">Goddess</text>
      <text x="51" y="32" id="text4361" class="incof">Incarnation of Good</text>
    </g>
    <g id="Norton" class="male incarnation" transform="translate(378,-170)">
      <title id="title4204">Norton, Chronos, Incarnation of Time</title>
      <rect x="0" y="0" width="100" height="40" id="Norton_box" />
      <text x="50" y="11" id="text4208">Norton</text>
      <text x="50" y="22" id="text4210" class="incname">Chronos</text>
      <text x="50" y="32" id="text4212" class="incof">Incarnation of Time</text>
    </g>
    <g id="Gawain4" class="male" transform="translate(324,-112)">
      <title id="title4215">Gawain II (second)</title>
      <rect x="0" y="0" width="68" height="36" id="Gawain4_box" />
      <text x="34" y="18" id="text4219">Gawain II</text>
    </g>
  </g>
</svg>
