<?xml version="1.0" encoding="UTF-8" standalone="no"?>
<?xml-stylesheet href="../../../../css/family_tree.css" type="text/css"?>
<svg
  xmlns="http://www.w3.org/2000/svg"
  xmlns:svg="http://www.w3.org/2000/svg"
  xmlns:rdf="http://www.w3.org/1999/02/22-rdf-syntax-ns#"
  xmlns:dc="http://purl.org/dc/elements/1.1/"
  xmlns:cc="http://creativecommons.org/ns#"
  viewBox="0 0 285 213"
  width="285"
  height="213"
  id="Merge_family"
>
  <title id="Merge_title">The family of Merge</title>
  <metadata id="Merge_metadata">
    <rdf:RDF>
      <cc:Work rdf:about="">
        <dc:format>image/svg+xml</dc:format>
        <dc:type rdf:resource="http://purl.org/dc/dcmitype/StillImage" />
        <dc:title>The family of Merge</dc:title>
        <dc:creator>
          <cc:Agent>
            <dc:title>Burge, Dawn M.</dc:title>
          </cc:Agent>
        </dc:creator>
        <dc:language>en-US</dc:language>
        <dc:date>2019-08</dc:date>
        <dc:contributor>
          <cc:Agent>
            <dc:title>Anthony, Piers (author)</dc:title>
          </cc:Agent>
        </dc:contributor>
      </cc:Work>
    </rdf:RDF>
  </metadata>
  <style id="Xanth_styles" type="text/css">
    @import url(../../../../css/family_tree.css);
    g#MergeList text { font-size: 10px }
    g#MergeList rect { stroke-dasharray: 2,2; }
    g#MergeList rect#big_box { stroke-dasharray: none; fill: transparent; }
  </style>
  <!--
    Generated by graphviz version 2.40.1 (20161225.0304)
    Edited with Inkscape 0.92.4 (5da689c313, 2019-01-14)
    Edited with Geany 1.33 (built on 2018-04-16 with GTK 3.22.29, GLib 2.56.1)
   -->
  <g id="Merge_chart" class="graph" transform="translate(5,255)">
    <title id="Merge_chart_title">The family of Merge</title>
    <text x="133" y="-241" id="Merge_chart_title_text" class="chart_title">The family of Merge</text>
    <g id="MagSor--family" class="marriage" transform="translate(111,-207)">
      <title id="title099">uMagician to mMagSor to uSorceress</title>
      <path d="m 0,0 h -19" id="mMagSor--uMagician" />
      <path d="m 0,0 h  19" id="mMagSor--uSorceress" />
      <g id="mMagSor--descendant" class="descendant child">
        <title id="title179">mMagSor to Merge</title>
        <path d="m 0,0 v 34" id="mMagSor--Merge" />
      </g>
      <circle cx="0" cy="0" r="1.5" id="mMagSor" />
    </g>
    <g id="MerHap--family" class="marriage" transform="translate(185,-155)">
      <title id="title160">Merge to mMerHap to Hapless</title>
      <path d="m 0,0 h -47" id="mMerHap--Merge" />
      <path d="m 0,0 h  19" id="mMerHap--Hapless" />
      <g id="mMerHap--child" class="adopted child">
        <title id="title189">mMerHap to Myst</title>
        <path d="m 0,0 v 34" id="mMerHap--Myst" />
      </g>
      <circle cx="0" cy="0" r="1.5" id="mMerHap" />
    </g>
    <g id="uMagician" class="node male unnamed" transform="translate(0,-225)">
      <title id="title085">unnamed Magician</title>
      <polygon id="box087" points="0,18 23,0 69,0 92,18 69,36 23,36" />
      <text x="46" y="13" id="text089">unnamed</text>
      <text x="46" y="23" id="text091">Magician</text>
    </g>
    <g id="uSorceress" class="node female unnamed" transform="translate(130,-225)">
      <title id="title111">unnamed Sorceress</title>
      <polygon id="box113" points="0,18 23,0 69,0 92,18 69,36 23,36" />
      <text x="46" y="13" id="text115">unnamed</text>
      <text x="46" y="23" id="text117">Sorceress</text>
    </g>
    <g id="Merge" class="female" transform="translate(84,-173)">
      <title id="title120">Merge</title>
      <rect x="0" y="0" width="54" height="36" id="box122" />
      <text x="27" y="18" id="text124">Merge</text>
    </g>
    <g id="Hapless" class="male" transform="translate(204,-173)">
      <title id="title104">Hapless</title>
      <rect x="0" y="0" width="60" height="36" id="box106" />
      <text x="30" y="18" id="text108">Hapless</text>
    </g>
    <g id="MergeList" class="female child" transform="translate(84,-137)">
      <title id="title127">Parts of Merge</title>
      <rect x="0" y="0" width="54" height="18" id="Black_box" />
      <text x="27" y="10" id="text131">Black</text>
      <rect x="0" y="18" width="54" height="18" id="Blue_box" />
      <text x="27" y="28" id="text135">Blue</text>
      <rect x="0" y="36" width="54" height="18" id="Brown_box" />
      <text x="27" y="46" id="text139">Brown</text>
      <rect x="0" y="54" width="54" height="18" id="Red_box" />
      <text x="27" y="64" id="text143">Red</text>
      <rect x="0" y="72" width="54" height="18" id="Yellow_box" />
      <text x="27" y="82" id="text147">Yellow</text>
      <rect x="0" y="0" width="54" height="90" id="big_box" />
    </g>
    <g id="Myst" class="node female" transform="translate(158,-121)">
      <title id="title165">Myst</title>
      <rect x="0" y="0" width="54" height="36" id="box167" />
      <text x="27" y="14" id="text169">Myst</text>
      <text x="27" y="24" class="other" id="text171">(adopted)</text>
    </g>
  </g>
</svg>
