<?xml version="1.0" encoding="UTF-8" standalone="no"?>
<?xml-stylesheet href="../../../../css/family_tree.css" type="text/css"?>
<svg
  xmlns="http://www.w3.org/2000/svg"
  xmlns:svg="http://www.w3.org/2000/svg"
  xmlns:rdf="http://www.w3.org/1999/02/22-rdf-syntax-ns#"
  xmlns:dc="http://purl.org/dc/elements/1.1/"
  xmlns:cc="http://creativecommons.org/ns#"
  viewBox="0 0 479 221"
  width="479"
  height="221"
  id="Nimby_family"
>
  <title id="Nimby_title">The family of Nimby</title>
  <metadata id="Nimby_metadata">
    <rdf:RDF>
      <cc:Work rdf:about="">
        <dc:format>image/svg+xml</dc:format>
        <dc:type rdf:resource="http://purl.org/dc/dcmitype/StillImage" />
        <dc:title>The family of Nimby</dc:title>
        <dc:creator>
          <cc:Agent>
            <dc:title>Burge, Dawn M.</dc:title>
          </cc:Agent>
        </dc:creator>
        <dc:language>en-US</dc:language>
        <dc:date>2019-08</dc:date>
        <dc:contributor>
          <cc:Agent>
            <dc:title>Anthony, Piers (author)</dc:title>
          </cc:Agent>
        </dc:contributor>
      </cc:Work>
    </rdf:RDF>
  </metadata>
  <style id="Xanth_styles" type="text/css">
    @import url(../../../../css/family_tree.css);
  </style>
  <!--
    Generated by graphviz version 2.40.1 (20161225.0304)
    Edited with Inkscape 0.92.4 (5da689c313, 2019-01-14)
    Edited with Geany 1.33 (built on 2018-04-16 with GTK 3.22.29, GLib 2.56.1)
   -->
  <g id="Nimby_chart" class="graph" transform="translate(5,216)">
    <title id="Nimby_chart_title">The family of Nimby</title>
    <text x="260" y="-202" id="Nimby_chart_title_text" class="chart_title">The family of Nimby</text>
    <g id="shebru--family" class="marriage" transform="translate(180,-170)">
      <title id="title272">Marriage of the shrew and brute</title>
      <path d="m 0,0 h -19" id="mshebru--brute" />
      <path d="m 0,0 h  19" id="mshebru--shrew" />
      <g id="shbr--children" class="edge child">
        <title id="title390">Children of the shrew and brute</title>
        <path d="m 0,0 v 38" id="mshebru--cshebru" />
        <path d="m 0,38 h -40 v 20" id="cshebru--Chlorine" />
        <path d="m 0,38 h  40 v 20" id="cshebru--Flourine" />
        <circle cx="0" cy="38" r="1.5" id="cshebru" />
      </g>
      <circle cx="0" cy="0" r="1.5" id="mshebru" />
    </g>
    <g id="ChlNim--family" class="marriage" transform="translate(88,-94)">
      <title id="title293">Marriage of Chlorine and Nimby</title>
      <path d="m 0,0 h -19" id="mChlNim--Nimby" />
      <path d="m 0,0 h  19" id="mChlNim--Chlorine" />
      <g id="mChNi--Nimbus" class="edge child">
        <title id="title395">Child of Chlorine and Nimby</title>
        <path d="m 0,0 v 60" id="mChlNim--Nimbus" />
      </g>
      <circle cx="0" cy="0" r="1.5" id="mChlNim" />
    </g>
    <g id="HapFra--family" class="marriage" transform="translate(390,-94)">
      <title id="title312">Marriage of Happy Bottom and Fracto</title>
      <path d="m 0,0 h -19" id="mHapFra--Fracto" />
      <path d="m 0,0 h  19" id="mHapFra--Happy" />
      <g id="HaFr--children" class="edge child">
        <title id="title415">Children of Happy Bottom and Fracto</title>
        <path d="m 0,0 v 38" id="mHapFra--cHapFra" />
        <path d="m 0,38 h -38 v 20" id="cHapFra--Fray" />
        <path d="m 0,38 h  38 v 20" id="cHapFra--Wynde" />
        <circle cx="0" cy="38" r="1.5" id="cHaFr" />
      </g>
      <circle cx="0" cy="0" r="1.5" id="mHapFra" />
    </g>
    <g id="FraNim--relationship" class="dating" transform="translate(220,-17)">
      <title id="title329">Relationship of Fray and Nimbus</title>
      <path d="m 0,0 h  105" id="dFraNim--Nimbus" />
      <path d="m 0,0 h -105" id="dFraNim--Fray" />
      <circle cx="0" cy="0" r="1.5" id="dFraNim" />
    </g>
    <g id="brute" class="node male unnamed" transform="translate(106,-188)">
      <title id="title258">brute</title>
      <rect x="0" y="0" width="54" height="36" id="box260" />
      <text x="27" y="13" id="text262">brute</text>
      <text x="27" y="23" id="text264">father</text>
    </g>
    <g id="shrew" class="node female unnamed" transform="translate(198,-188)">
      <title id="title341">shrew</title>
      <rect x="0" y="0" width="54" height="36" id="box343" />
      <text x="27" y="13" id="text345">shrew</text>
      <text x="27" y="23" id="text347">mother</text>
    </g>
    <g id="Nimby" class="node male" transform="translate(0,-114)">
      <title id="title277">Nimby</title>
      <rect x="0" y="0" width="69" height="40" id="box3" />
      <text x="34" y="9" id="text31">Nimby</text>
      <text x="34" y="21" id="text32">X(A/N)TH</text>
      <text x="34" y="31" id="text33" class="species">(Demon)</text>
    </g>
    <g id="Chlorine" class="node female" transform="translate(107,-112)">
      <title id="title350">Chlorine</title>
      <rect x="0" y="0" width="62" height="36" id="box352" />
      <text x="31" y="18" id="text354">Chlorine</text>
    </g>
    <g id="Flourine" class="node female" transform="translate(189,-112)">
      <title id="title357">Flourine</title>
      <rect x="0" y="0" width="62" height="36" id="box359" />
      <text x="31" y="18" id="text361">Flourine</text>
    </g>
    <g id="Fracto" class="node male" transform="translate(271,-112)">
      <title id="title298">Fracto</title>
      <rect x="0" y="0" width="100" height="36" id="box6" />
      <text x="50" y="9" id="text61">Cumulo Fracto</text>
      <text x="50" y="21"  id="text62">Nimbus</text>
      <text x="50" y="30"  id="text63" class="species">(cloud)</text>
    </g>
    <g id="HappyBottom" class="node female" transform="translate(409,-112)">
      <title id="title364">Happy</title>
      <rect x="0" y="0" width="60" height="36" id="box7" />
      <text x="30" y="9" id="text71">Happy</text>
      <text x="30" y="21" id="text72">Bottom</text>
      <text x="30" y="30" id="text73" class="species">(storm)</text>
    </g>
    <g id="Nimbus" class="node male" transform="translate(58,-36)">
      <title id="title317">Nimbus</title>
      <rect x="0" y="0" width="58" height="36" id="box319" />
      <text x="29" y="18" id="text321">Nimbus</text>
    </g>
    <g id="Fray" class="node female" transform="translate(325,-36)">
      <title id="title373">Fray</title>
      <rect x="0" y="0" width="54" height="36" id="box375" />
      <text x="27" y="18" id="text377">Fray</text>
    </g>
    <g id="Wynde" class="node male" transform="translate(397,-36)">
      <title id="title334">Wynde</title>
      <rect x="0" y="0" width="58" height="36" id="box10" />
      <text x="28" y="12" id="text101">Wynde</text>
      <text x="28" y="24" id="text102">Tchill</text>
    </g>
  </g>
</svg>
