<?xml version="1.0" encoding="UTF-8" standalone="no"?>
<?xml-stylesheet href="../../../../css/family_tree.css" type="text/css"?>
<svg
  xmlns="http://www.w3.org/2000/svg"
  xmlns:svg="http://www.w3.org/2000/svg"
  xmlns:rdf="http://www.w3.org/1999/02/22-rdf-syntax-ns#"
  xmlns:dc="http://purl.org/dc/elements/1.1/"
  xmlns:cc="http://creativecommons.org/ns#"
  viewBox="0 0 310 297"
  width="310"
  height="297"
  id="Okra_family"
>
  <title id="Okra_title">The family of Okra</title>
  <metadata id="Okra_metadata">
    <rdf:RDF>
      <cc:Work rdf:about="">
        <dc:format>image/svg+xml</dc:format>
        <dc:type rdf:resource="http://purl.org/dc/dcmitype/StillImage" />
        <dc:title>The family of Okra</dc:title>
        <dc:creator>
          <cc:Agent>
            <dc:title>Burge, Dawn M.</dc:title>
          </cc:Agent>
        </dc:creator>
        <dc:language>en-US</dc:language>
        <dc:date>2019-08</dc:date>
        <dc:contributor>
          <cc:Agent>
            <dc:title>Anthony, Piers (author)</dc:title>
          </cc:Agent>
        </dc:contributor>
      </cc:Work>
    </rdf:RDF>
  </metadata>
  <style id="Xanth_styles" type="text/css">
    @import url(../../../../css/family_tree.css);
  </style>
  <!--
    Generated by graphviz version 2.40.1 (20161225.0304)
    Edited with Inkscape 0.92.4 (5da689c313, 2019-01-14)
    Edited with Geany 1.33 (built on 2018-04-16 with GTK 3.22.29, GLib 2.56.1)
   -->
  <g id="Okra_chart" class="graph" transform="translate(5,291)">
    <title id="Okra_chart_title">The family of Okra</title>
    <text x="150" y="-277" id="text775" class="chart_title">The family of Okra</text>
    <g id="sOpFa--siblings" class="edge child" transform="translate(119,-261)">
      <title id="title902">Ogre sisters</title>
      <path d="m 0,0 h -38 v 20" id="sOpFa--Opuntia" />
      <path d="m 0,0 h  37 v 20" id="sOpFa--Fannie" />
      <circle cx="0" cy="0" r="1.5" id="sOpFa" />
    </g>
    <g id="FanBar--marriage" class="marriage" transform="translate(203,-223)">
      <title id="title836">Marriage of Fannie and Bareface</title>
      <path d="m 0,0 h -19" id="Fannie--mFanBar" />
      <path d="m 0,0 h  19" id="mFanBar--Bareface" />
      <circle cx="0" cy="0" r="1.5" id="mFanBar" />
    </g>
    <g id="Opuntia--children" class="edge child" transform="translate(81-205)">
      <title id="title819">Children of Opuntia</title>
      <path d="m 0,0 v 20"        id="Opuntia--cOp" />
      <path d="m 0,20 h -44 v 20" id="cOp--Fern" />
      <path d="m 0,20 h  44 v 20" id="cOp--Mazipana" />
      <circle cx="0" cy="20" r="1.5" id="cOp" />
    </g>
    <g id="Fern--Okra" class="edge child">
      <title id="title855">Fern to Okra</title>
      <path d="m 126,-130 v 20" id="path857" />
    </g>
    <g id="OkrSmi--family" class="marriage" transform="translate(171,-94)">
      <title id="title865">Marriage of Okra and Smithereen</title>
      <path d="m 0,0 h -19" id="mOkrSmi--Okra" />
      <path d="m 0,0 h  19" id="mOkrSmi--Smithereen" />
      <g id="mOkSm--cOkSm" class="edge child">
        <title id="title892">Children of Okra and Smithereen</title>
        <path d="m 0,0 v 38"       id="mOkrSmi--cOkrSmi" />
        <path d="m 0,38 h -36 v 20" id="cOkrSmi--Og" />
        <path d="m 0,38 h  36 v 20" id="cOkrSmi--NotOg" />
        <circle cx="0" cy="38" r="1.5" id="cOkrSmi" />
      </g>
      <circle cx="0" cy="0" r="1.5" id="mOkrSmi" />
    </g>
    <g id="Opuntia" class="female" transform="translate(50,-241)">
      <title id="title807">Opuntia</title>
      <rect x="0" y="0" width="60" height="36" id="box1" />
      <text x="30" y="18" id="text1">Opuntia</text>
    </g>
    <g id="Fannie" class="female" transform="translate(130,-241)">
      <title id="title824">Fannie</title>
      <rect x="0" y="0" width="54" height="36" id="box2" />
      <text x="27" y="18" id="text2">Fannie</text>
    </g>
    <g id="Bareface" class="male" transform="translate(222,-241)">
      <title id="title777">Bareface von Wryn</title>
      <rect x="0" y="0" width="78" height="36" id="box3" />
      <text x="39" y="12" id="text31">Bareface</text>
      <text x="39" y="24" id="text32">von Wryn</text>
    </g>
    <g id="Mazipana" class="male" transform="translate(0,-166)">
      <title id="title784">Mazipana Giganta</title>
      <rect x="0" y="0" width="74" height="36" id="box4" />
      <text x="37" y="12" id="text41">Mazipana</text>
      <text x="37" y="24" id="text42">Giganta</text>
    </g>
    <g id="Fern" class="female" transform="translate(98,-166)">
      <title id="title841">Fern Kudzu</title>
      <rect x="0" y="0" width="54" height="36" id="box5" />
      <text x="27" y="12" id="text51">Fern</text>
      <text x="27" y="24" id="text52">Kudzu</text>
    </g>
    <g id="Okra" class="female" transform="translate(98,-112)">
      <title id="title848">Okra</title>
      <rect x="0" y="0" width="54" height="36" id="box6" />
      <text x="27" y="18" id="text6">Okra</text>
    </g>
    <g id="Smithereen" class="male king" transform="translate(190,-112)">
      <title id="title791">Smithereen, OverOgre</title>
      <rect x="0" y="0" width="78" height="36" id="box7" />
      <text x="39" y="13" id="text71">Smithereen</text>
      <text x="39" y="25" id="text72" class="ruler">OverOgre</text>
    </g>
    <g id="Og" class="male royal" transform="translate(107,-36)">
      <title id="title800">Og</title>
      <rect x="0" y="0" width="54" height="36" id="box8" />
      <text x="27" y="18" id="text8">Og</text>
    </g>
    <g id="NotOg" class="female royal" transform="translate(181,-36)">
      <title id="title870">Not-Og</title>
      <rect x="0" y="0" width="56" height="36" id="box9" />
      <text x="28" y="18" id="text9">Not-Og</text>
    </g>
  </g>
</svg>
