<?xml version="1.0" encoding="UTF-8" standalone="no"?>
<?xml-stylesheet href="../../../../css/family_tree.css" type="text/css"?>
<svg
  xmlns="http://www.w3.org/2000/svg"
  xmlns:svg="http://www.w3.org/2000/svg"
  xmlns:rdf="http://www.w3.org/1999/02/22-rdf-syntax-ns#"
  xmlns:dc="http://purl.org/dc/elements/1.1/"
  xmlns:cc="http://creativecommons.org/ns#"
  viewBox="0 0 420 285"
  width="420"
  height="285"
  id="Sofias_play_families"
>
  <title id="title844">Sofia's play</title>
  <metadata id="metadata842">
    <rdf:RDF>
      <cc:Work rdf:about="">
        <dc:format>image/svg+xml</dc:format>
        <dc:type rdf:resource="http://purl.org/dc/dcmitype/StillImage" />
        <dc:creator>
          <cc:Agent>
            <dc:title>Burge, Dawn M.</dc:title>
          </cc:Agent>
        </dc:creator>
        <dc:language>en-US</dc:language>
        <dc:title>Sofia's play</dc:title>
        <dc:date>2019-08</dc:date>
        <dc:contributor>
          <cc:Agent>
            <dc:title>Anthony, Piers (author)</dc:title>
          </cc:Agent>
        </dc:contributor>
      </cc:Work>
    </rdf:RDF>
  </metadata>
  <style id="Xanth_styles" type="text/css">
    @import url(../../../../css/family_tree.css);
  </style>
  <!--
    Generated by graphviz version 2.40.1 (20161225.0304)
    Edited with Inkscape 0.92.4 (5da689c313, 2019-01-14)
    Edited with Geany 1.33 (built on 2018-04-16 with GTK 3.22.29, GLib 2.56.1)
   -->
  <g id="Sofias_play_charts" class="graph" transform="translate(5,239)">
    <title id="Sofias_play_chart_title">The families of Sofia's play on Ptero</title>
    <text x="242" y="-225" id="Sofias_play_charts_title_text_1" class="chart_title">Sofia's play</text>
    <text x="242" y="-209" id="Sofias_play_charts_title_text_2" class="chart_subtitle">(Ptero)</text>
    <g id="MissTake--Raven" class="possible" transform="translate(104,-110)">
      <title id="title684">MissTake to Raven</title>
      <path d="m 0,0 l 76,115" id="path01" style="stroke-dasharray:3, 2" />
    </g>
    <g id="MissInform--Robin" class="possible" transform="translate(380,-110)">
      <title id="title696">MissInform to Robin</title>
      <path d="m 0,0 l -76,115" id="path02" style="stroke-dasharray:3, 2" />
    </g>
    <g id="play_actors" class="cluster">
      <title id="title1">The actors</title>
      <text x="242" y="-184" id="text1" class="group_title">The actors</text>
      <g id="Take--siblings" class="child" transform="translate(67,-164)">
        <title id="title706">Take siblings</title>
        <path d="m 0,0 h -38 v 20" id="sTake--OutTake" />
        <path d="m 0,0 h  38 v 20" id="sTake--MissTake" />
        <circle cx="0" cy="0" r="1.5" id="sTake" />
      </g>
      <g id="Justin--siblings" class="child" transform="translate(242,-164)">
        <title id="title721">Justin siblings</title>
        <path d="m 0,0 h -39 v 20" id="sJustin--JustinCase" />
        <path d="m 0,0 h  39 v 20" id="sJustin--JustinTime" />
        <circle cx="0" cy="0" r="1.5" id="sJustin" />
      </g>
      <g id="TakCas--marriage" class="marriage" transform="translate(153,-129)">
        <title id="title672">Marriage of Miss Take and Justin Case</title>
        <path d="m 0,0 h -19" id="mTakCas--MissTake" />
        <path d="m 0,0 h  19" id="mTakCas--JustinCase" />
        <circle cx="0" cy="0" r="1.5" id="mTaCa" />
      </g>
      <g id="InfTim--marriage" class="marriage" transform="translate(331,-129)">
        <title id="title662">Marriage of Miss Inform and Justin Time</title>
        <path d="m 0,0 h -19" id="mInfTim--JustinTime" />
        <path d="m 0,0 h  19" id="mInfTim--MissInform" />
        <circle cx="0" cy="0" r="1.5" id="mInfTim" />
      </g>
      <g id="OutTake" class="male possible" transform="translate(0,-146)">
        <title id="title614">OutTake</title>
        <rect x="0" y="0" width="54" height="36" id="box11" />
        <text x="27" y="12" id="text11">Out</text>
        <text x="27" y="24" id="text12">Take</text>
      </g>
      <g id="MissTake" class="female possible" transform="translate(74,-146)">
        <title id="title621">Miss Take, actreess</title>
        <rect x="0" y="0" width="60" height="36" id="box12" />
        <text x="30" y="9" id="text121">Miss</text>
        <text x="30" y="20" id="text122">Take</text>
        <text x="30" y="30" id="text123" class="job">actress</text>
      </g>
      <g id="JustinCase" class="male possible" transform="translate(172,-146)">
        <title id="title630">Justin Case, audience member</title>
        <rect x="0" y="0" width="60" height="36" id="box13" />
        <text x="30" y="9" id="text131">Justin</text>
        <text x="30" y="20" id="text132">Case</text>
        <text x="30" y="30" id="text133" class="job">audience</text>
      </g>
      <g id="JustinTime" class="male possible" transform="translate(252,-146)">
        <title id="title639">JustinTime, audience member</title>
        <rect x="0" y="0" width="60" height="36" id="box14" />
        <text x="30" y="9" id="text141">Justin</text>
        <text x="30" y="20" id="text142">Time</text>
        <text x="30" y="30" id="text143" class="job">audience</text>
      </g>
      <g id="MissInform" class="female possible" transform="translate(350,-146)">
        <title id="title648">Miss Inform, actreess</title>
        <rect x="0" y="0" width="60" height="36" id="box15" />
        <text x="30" y="9" id="text151">Miss</text>
        <text x="30" y="20" id="text152">Inform</text>
        <text x="30" y="30" id="text153" class="job">actress</text>
      </g>
    </g>
    <g id="play_characters" class="cluster">
      <title id="title2">The characters</title>
      <text x="242" y="-91" id="text2" class="group_title">The characters</text>
      <g id="RowRub--family" class="marriage" transform="translate(242,-53)">
        <title id="title753">Marriage of Rowena to Ruben</title>
        <path d="m 0,0 h -19" id="mRowRub--Ruben" />
        <path d="m 0,0 h  19" id="mRowRub--Rowena" />
        <g id="RowRub--children" class="edge child">
          <title id="title809">Children of Rowena and Ruben</title>
          <path d="m 0,0 v 38" id="mRowRub--cRowRub" />
          <path d="m 0,38 h -36 v 20" id="cRoRu--Raven" />
          <path d="m 0,38 h  36 v 20" id="cRoRu--Robin" />
          <circle cx="0" cy="38" r="1.5" id="cRowRub" />
        </g>
        <circle cx="0" cy="0" r="1.5" id="mRowRub" />
      </g>
      <g id="RavSon--marriage" class="marriage" transform="translate(160,23)">
        <title id="title770">Marriage or Raven to Son</title>
        <path d="m 0,0 h -19" id="mRavSon--Son" />
        <path d="m 0,0 h  19" id="mRavSon--Raven" />
        <circle cx="0" cy="0" r="1.5" id="mRavSon" />
      </g>
      <g id="RobIze--marriage" class="marriage" transform="translate(324,23)">
        <title id="title794">Robin to mRoIz to Ize</title>
        <path d="m 0,0 h -19" id="mRobIze--Robin" />
        <path d="m 0,0 h  19" id="mRobIze--Ize" />
        <circle cx="0" cy="0" r="1.5" id="mRobIze" />
      </g>
      <g id="Ruben" class="male possible" transform="translate(169,-71)">
        <title id="title741">Ruben</title>
        <rect x="0" y="0" width="54" height="36" id="box21" />
        <text x="27" y="18" id="text21">Ruben</text>
      </g>
      <g id="Rowena" class="female possible" transform="translate(261,-71)">
        <title id="title782">Rowena</title>
        <rect x="0" y="0" width="62" height="36" id="box22" />
        <text x="31" y="18" id="text22">Rowena</text>
      </g>
      <g id="Son" class="male possible" transform="translate(87,5)">
        <title id="title758">Son</title>
        <rect x="0" y="0" width="54" height="36" id="box23" />
        <text x="27" y="18" id="text23">Son</text>
      </g>
      <g id="Raven" class="female possible" transform="translate(179,5)">
        <title id="title677">Raven</title>
        <rect x="0" y="0" width="54" height="36" id="box24" />
        <text x="27" y="18" id="text24">Raven</text>
      </g>
      <g id="Robin" class="female possible" transform="translate(251,5)">
        <title id="title689">Robin</title>
        <rect x="0" y="0" width="54" height="36" id="box25" />
        <text x="27" y="18" id="text26">Robin</text>
      </g>
      <g id="Ize" class="male possible" transform="translate(343,5)">
        <title id="title775">Ize</title>
        <rect x="0" y="0" width="54" height="36" id="box27" />
        <text x="27" y="12" id="text27">Demon</text>
        <text x="27" y="24" id="text27">Ize</text>
      </g>
    </g>
  </g>
</svg>
