<?xml version="1.0" encoding="UTF-8" standalone="no"?>
<?xml-stylesheet href="../../../../css/family_tree.css" type="text/css"?>
<svg
  xmlns="http://www.w3.org/2000/svg"
  xmlns:xlink="http://www.w3.org/1999/xlink"
  xmlns:rdf="http://www.w3.org/1999/02/22-rdf-syntax-ns#"
  xmlns:dc="http://purl.org/dc/elements/1.1/"
  xmlns:cc="http://creativecommons.org/ns#"
  viewBox="0 0 394 220"
  width="394"
  height="220"
  >
  <title id="Forester_title">The Forester family from Gilmore Girls</title>
  <metadata id="Forester_metadata">
    <rdf:RDF>
      <cc:Work rdf:about="">
        <dc:format>image/svg+xml</dc:format>
        <dc:type rdf:resource="http://purl.org/dc/dcmitype/StillImage" />
        <dc:title>The Forester family from Gilmore Girls</dc:title>
        <dc:creator>
          <cc:Agent>
            <dc:title>Burge, Dawn M.</dc:title>
          </cc:Agent>
        </dc:creator>
        <dc:language>en-US</dc:language>
        <dc:date>2020-02</dc:date>
      </cc:Work>
    </rdf:RDF>
  </metadata>
  <style id="Family_styles" type="text/css">
    @import url(../../../../css/family_tree.css);
  </style>
  <!--
    Generated by graphviz version 2.40.1 (20161225.0304)
    Edited with Geany 1.33 (built on 2018-04-16 with GTK 3.22.29, GLib 2.56.1)
  -->
  <g id="Gilmore" class="graph" transform="translate(5 215)">
    <title>The Forester family from Gilmore Girls</title>
    <text x="192" y="-203" class="chart_title">The Forester family from <tspan style="font-style:italic">Gilmore Girls</tspan></text>

    <g id="Gilmore_edge1" class="marriage" transform="translate(79,-170)">
      <title>ThomasLister&#45;&#45;mTheTho</title>
      <path d="m 0,0 h -19" id="mTheTho-Theresa"/>
      <path d="m 0,0 h  19" id="mTheTho-Thomas" />
      <g id="Gilmore_edge4" class="child">
        <title>cTheTho&#45;&#45;LindsayLister</title>
        <path d="m 0,0 v 58" id="mTheTho-Lindsay" />
      </g>
      <circle cx="0" cy="0" r="1.5" id="mTheTho" />
    </g>
    <g id="Gilmore_edge5" class="marriage" transform="translate(265,-170)">
      <title>RandyForester&#45;&#45;mMayRan</title>
      <path d="m 0,0 h -19" id="mMayRan-May" />
      <path d="m 0,0 h  19" id="mMayRan-Randy" />
      <g id="Gilmore_edge7" class="child">
        <title>mMayRan&#45;&#45;cMayRan</title>
        <path d="m 0,0 v 38" id="mMayRan-cMayRan" />
        <path d="m 0,38 h -89 v 20" id="cMayRan-Dean" />
        <path d="m 0,38 h  89 v 20" id="cMayRan-Clara" />
        <circle cx="0" cy="38" r="1.5" id="cMayRan" />
      </g>
      <circle cx="0" cy="0" r="1.5" id="mMayRan" />
    </g>

    <g id="Gilmore_edge10" class="marriage" transform="translate(127,-94)">
      <title>LindsayLister&#45;&#45;mLinDea</title>
      <path d="m 0,0 h -19" id="mLinDea-Lindsay" />
      <path d="m 0,0 h  19" id="mLinDea-Dean" />
      <circle cx="0" cy="0" r="1.5" id="mLinDea" />
    </g>
    <g id="Gilmore_edge12" class="marriage" transform="translate(225,-94)">
      <title>DeanForester&#45;&#45;mJenDea</title>
      <path d="m 0,0 h -19" id="mJenDea-Dean" />
      <path d="m 0,0 h  19" id="mJenDea-Jennifer" />
      <g id="Gilmore_edge14" class="child">
        <title>mJenDea&#45;&#45;cJenDea</title>
        <path d="m 0,0 v 38" id="mJenDea-cJenDea" />
        <path d="m 0,38 h -81 v 20" id="cJenDea-Grady" />
        <path d="m 0,38 v  20"      id="cJenDea-sons" />
        <path d="m 0,38 h  81 v 20" id="cJenDea-daughter" />
        <circle cx="0" cy="38" r="1.5" id="cJenDea" />
      </g>
      <circle cx="0" cy="0" r="1.5" id="mJenDea" />
    </g>

    <g id="ThomasLister" class="male" transform="translate(0,-188)">
      <title>Thomas Lister</title>
      <rect x="0" y="0" width="60" height="36" />
      <text x="30" y="12">Thomas</text>
      <text x="30" y="24">Lister</text>
    </g>
    <g id="Theresa" class="female" transform="translate(98,-188)">
      <title>Theresa</title>
      <rect x="0" y="0" width="56" height="36" />
      <text x="28" y="18">Theresa</text>
    </g>
    <g id="RandyForester" class="male" transform="translate(186,-188)">
      <title>Randy Forester</title>
      <rect x="0" y="0" width="60" height="36" />
      <text x="30" y="12">Randy</text>
      <text x="30" y="24">Forester</text>
    </g>
    <g id="May" class="female" transform="translate(284,-188)">
      <title>May</title>
      <rect x="0" y="0" width="54" height="36" />
      <text x="27" y="18">May</text>
    </g>
    <g id="Lindsay Lister" class="female" transform="translate(48,-112)">
      <title>Lindsay Lister</title>
      <rect x="0" y="0" width="60" height="36" />
      <text x="30" y="12">Lindsay</text>
      <text x="30" y="24">Lister</text>
    </g>
    <g id="DeanForester" class="male main" transform="translate(146,-112)">
      <title>Dean Forester</title>
      <rect x="0" y="0" width="60" height="36" />
      <text x="30" y="12">Dean</text>
      <text x="30" y="24">Forester</text>
    </g>
    <g id="Jenny" class="female" transform="translate(244,-112)">
      <title>Jenny</title>
      <rect x="0" y="0" width="60" height="36" />
      <text x="30" y="12">Jennifer</text>
      <text x="30" y="24" class="nickname">(Jenny)</text>
    </g>
    <g id="ClaraForester" class="female" transform="translate(324,-112)">
      <title>Clara Forester</title>
      <rect x="0" y="0" width="60" height="36" />
      <text x="30" y="12">Clara</text>
      <text x="30" y="24">Forester</text>
    </g>
    <g id="GradyForester" class="male" transform="translate(115,-36)">
      <title>Grady Forester</title>
      <rect x="0" y="0" width="60" height="36" />
      <text x="30" y="12">Grady</text>
      <text x="30" y="24">Forester</text>
    </g>
    <g id="twosonsForester" class="male unnamed" transform="translate(195,-38)">
      <title>three unnamed Forester children</title>
      <rect x="0" y="0" width="60" height="38" />
      <text x="30" y="8">two</text>
      <text x="30" y="18">unnamed</text>
      <text x="30" y="28">Foresters</text>
    </g>
    <g id="daughterForester" class="female unnamed" transform="translate(275,-38)">
      <title>three unnamed Forester children</title>
      <rect x="0" y="0" width="60" height="38" />
      <text x="30" y="12">unnamed</text>
      <text x="30" y="24">Forester</text>
    </g>
  </g>
</svg>
