<?xml version="1.0" encoding="UTF-8" standalone="no"?>
<?xml-stylesheet href="../../../../css/family_tree.css" type="text/css"?>
<svg
  xmlns="http://www.w3.org/2000/svg"
  xmlns:xlink="http://www.w3.org/1999/xlink"
  xmlns:rdf="http://www.w3.org/1999/02/22-rdf-syntax-ns#"
  xmlns:dc="http://purl.org/dc/elements/1.1/"
  xmlns:cc="http://creativecommons.org/ns#"
  viewBox="0 0 1679 600"
  width="1679"
  height="600"
  id="Gilmore_Danes"
  >
  <title id="Gilmore_title">The Gilmore-Danes family from Gilmore Girls</title>
  <metadata id="Gilmore_metadata">
    <rdf:RDF>
      <cc:Work rdf:about="">
        <dc:format>image/svg+xml</dc:format>
        <dc:type rdf:resource="http://purl.org/dc/dcmitype/StillImage" />
        <dc:title>The Gilmore-Danes family from Gilmore Girls</dc:title>
        <dc:creator>
          <cc:Agent>
            <dc:title>Burge, Dawn M.</dc:title>
          </cc:Agent>
        </dc:creator>
        <dc:language>en-US</dc:language>
        <dc:date>2020-02</dc:date>
      </cc:Work>
    </rdf:RDF>
  </metadata>
  <style id="Family_styles" type="text/css">
    @import url(../../../../css/family_tree.css);
    g.deceased.male   rect { fill: url(#m_dead); }
    g.deceased.female rect { fill: url(#f_dead); }
  </style>
  <defs id="Family_defs">
    <radialGradient id="m_dead">
      <stop id="stop4423" style="stop-color:#ccccff;stop-opacity:0.85;" offset="75%" />
      <stop id="stop4425" style="stop-color:#eeeeff;stop-opacity:0.85;" offset="100%" />
    </radialGradient>
    <radialGradient id="f_dead">
      <stop id="stop4677" style="stop-color:#ffcccc;stop-opacity:0.85;" offset="75%" />
      <stop id="stop4679" style="stop-color:#ffeeee;stop-opacity:0.85;" offset="100%" />
    </radialGradient>
  </defs>
  <!--
    Generated by graphviz version 2.40.1 (20161225.0304)
    Edited with Geany 1.33 (built on 2018-04-16 with GTK 3.22.29, GLib 2.56.1)
  -->
  <g id="Gilmore" class="graph" transform="translate(5,595)">
    <title>The family from Gilmore Girls</title>
    <text x="788" y="-583" class="chart_title">The Gilmore-Danes family from <tspan style="font-style:italic">Gilmore Girls</tspan></text>

    <g id="Gilmore=family1" class="child" transform="translate(441,-532)">
      <title>1st generation Gilmore to 2nd generation</title>
      <path d="m 0,0  v 20"/>
      <path d="m 0,20 h -103 v 20"/>
      <path d="m 0,20 h  103 v 20"/>
      <circle cx="0" cy="20" r="1.5" id="c1" />
    </g>

    <g id="Gilmore-family-1a" class="child">
      <title>2nd generation Gilmore to 3rd generation (line 1)</title>
      <path d="m 336,-456 v 40"/>
    </g>
    <g id="Gilmore-family-1b" class="child">
      <title>2nd generation Gilmore to 3rd generation (line 2)</title>
      <path d="m 543,-456 v 40"/>
    </g>

    <g id="Gilmore-family-2a" class="child">
      <title>3rd generation Gilmore (line 1) to Charles</title>
      <path d="m 336,-380 v 40"/>
    </g>
    <g id="Gilmore-family-2b" class="child" transform="translate(543,-380)">
      <title>3rd generation Gilmore (line 2) to Lorelai and Marilyn's father</title>
      <path d="m 0,0 v 20" />
      <path d="m 0,20 h -107 v 20" />
      <path d="m 0,20 h  107 v 20" />
      <circle cx="0" cy="20" r="1.5" id="c3b" />
    </g>

    <g id="Huntzberger-family1" class="child">
      <title>Elias Huntzberger to Mitchum Huntzberger</title>
      <path d="m 125,-228 v 40"/>
    </g>
    <g id="Gilmore-family-3a" class="marriage" transform="translate(386,-322)">
      <title>Family of Lorelai and Charles Gilmore</title>
      <path d="m 0,0 h -19" id="mLorCha-CharlesGilmore"/>
      <path d="m 0,0 h  19" id="mLorCha-LorelaiGilmore"/>
      <g id="Gilmore_edge12" class="child">
        <title>Richard Gilmore, son of Lorelai and Charles Gilmore</title>
        <path d="m 0,0 v 58" id="mLorCha-RichardGilmore" />
      </g>
      <circle cx="0" cy="0" r="1.5" id="mLorCha" />
    </g>

    <g id="Ladies" class="child" transform="translate(252,-284)">
      <title>Sisters Emily and Hope</title>
      <path d="m 0,0 h -37 v 20" id="sibLadies-Emily" />
      <path d="m 0,0 h  37 v 20" id="sibLadies-Hope" />
      <circle cx="0" cy="0" r="1.5" />
    </g>
    <g id="Gilmore-family-3b" class="edge">
      <title>4th generation Gilmore to Marilyn Gilmore</title>
      <path d="m 650,-304 v 40" id="cG4a-MarilynGilmore" />
    </g>
    <g id="Danes-family1" class="child" transform="translate(1313,-284)">
      <title>Danes siblings</title>
      <path d="m 0,0 h -254 v 20" id="sibDanes-WilliamDanes" />
      <path d="m 0,0 h    0 v 20" id="sibDanes-LouisDanes" />
      <path d="m 0,0 h  255 v 20" id="sibDanes-unnamedDanes" />
      <circle cx="0" cy="0" r="1.5" />
    </g>

    <g id="Gilmore-family8" class="marriage" transform="translate(336,-246)">
      <title>Family of Emily and Richard Gilmore</title>
      <path d="m 0,0 h -19"/>
      <path d="m 0,0 h  19"/>
      <g id="Gilmore_edge20" class="child">
        <title>Lorelai V. Gilmore, daughter of Emily and Richard Gilmore</title>
        <path d="m 0,0 v 58"/>
      </g>
      <circle cx="0" cy="0" r="1.5" />
    </g>
    <g id="Hayden-family1" class="marriage" transform="translate(515,-246)">
      <title>Family of Francine and Straub Hayden </title>
      <path d="m 0,0 h -19"/>
      <path d="m 0,0 h  19"/>
      <g id="Gilmore_edge24" class="child">
        <title>Christopher Hayden, son of Francine and Strab Hayden</title>
        <path d="m0,0 v 58"/>
      </g>
      <circle cx="0" cy="0" r="1.5" />
    </g>
    <g id="Danes-family2" class="child" transform="translate(1059,-228)">
      <title>Children of William Danes</title>
      <path d="m 0,0 v 20"/>
      <path d="m 0,20 h -184 v 20" id="cWill-LucasDanes" />
      <path d="m 0,20 h  184 v 20" id="cWill-ElizabethDanes" />
      <circle cx="0" cy="20" r="1.5" />
    </g>
    <g id="unnamedDanes-siblings" class="child" transform="translate(1568,-228)">
      <title>unnamed Danes to children</title>
      <path d="m 0,0 v 20"/>
      <path d="m 0,20 h -74 v 20" id="unnamedDanes-Paul" />
      <path d="m 0,20 v  20"      id="unnamedDanes-James" />
      <path d="m 0,20 h  74 v 20" id="unnamedDanes-Frannie" />
      <circle cx="0" cy="20" r="1.5" />
    </g>

    <g id="Nardini-siblings" class="child" transform="translate(741,-208)">
      <title>Nardini siblings</title>
      <path d="m 0,0 h -40 v 20" id="sibNardini-AnnaNardini" />
      <path d="m 0,0 h  40 v 20" id="sibNardini-RexNardini" />
      <circle cx="0" cy="0" r="1.5" />
    </g>
    <g id="unnamed-siblings" class="child" transform="translate(1380,-208)">
      <title>Gary and his unnamed brother</title>
      <path d="m 0,0 h -40 v 20" id="sibUnkown-Gary" />
      <path d="m 0,0 h  40 v 20" id="sibUnknown-unnamed" />
      <circle cx="0" cy="0" r="1.5" />
    </g>

    <g id="GilmoreDanes-marriage" class="marriage" transform="translate(607,-142)">
      <title>Marriage of Lorelai V. Gilmore and Lucas Danes</title>
      <path d="m 0,0 h -226 l -14,-28"/>
      <path d="m 0,0 h  226 l  14,-28"/>
      <circle cx="0" cy="0" r="1.5" />
    </g>
    <g id="GilmoreHayden-family" class="marriage" transform="translate(421,-170)">
      <title>Marriage of Lorelai V. Gilmore and Christopher Hayden</title>
      <path d="m 0,0 h -54"/>
      <path d="m 0,0 h  54"/>
      <g id="GilmoreHayden-child" class="child">
        <title>Lorelai L. Gilmore, daughter of Lorelai V. Gilmore and Christopher Hayden</title>
        <path d="m 0,0 v 58"/>
      </g>
      <circle cx="0" cy="0" r="1.5" />
    </g>
    <g id="TinsdaleHayden-family" class="marriage" transform="translate(573,-170)">
      <title>Marriage of Sherry Tinsdale and Christopher Hayden</title>
      <path d="m 0,0 h -19"/>
      <path d="m 0,0 h  19"/>
      <g id="TinsdaleHayden-child" class="child">
        <title>Goergia Hayden, daughter of Sherry Tinsdale and Christopher Hayden</title>
        <path d="m 0,0 v 58"/>
      </g>
      <circle cx="0" cy="0" r="1.5" />
    </g>
    <g id="NardiniDanes-family" class="dating" transform="translate(828,-170)">
      <title>Relatinship of Anna Nardini and Lucas Danes</title>
      <path d="m 0,0 h -19"/>
      <path d="m 0,0 h  19"/>
      <g id="NardiniDanes-child" class="child">
        <title>April Nardini, daughter of Anna Nardini and Lucas Danes</title>
        <path d="m 0,0 v 58"/>
      </g>
      <circle cx="0" cy="0" r="1.5" />
    </g>
    <g id="LeahyDanes-marriage" class="marriage" transform="translate(922,-170)">
      <title>Marriage of Nicole Leahy and Lucas Danes</title>
      <path d="m 0,0 h -19"/>
      <path d="m 0,0 h  19"/>
      <circle cx="0" cy="0" r="1.5" />
    </g>
    <g id="Mariano-family2" class="dating" transform="translate(1088,-170)">
      <title>Relationship of Sasha and James Mariano</title>
      <path d="m 0,0 h -19" id="rSasJam-Sasha" />
      <path d="m 0,0 h  19" id="rSasJam-JamesMariano" />
      <circle cx="0" cy="0" r="1.5" id="rSasJam" />
    </g>
    <g id="Mariano-family1" class="dating" transform="translate(1190,-170)">
      <title>Relationship of Elizabeth Danes and James Mariano</title>
      <path d="m 0,0 h -19" id="rEliJam-JamesMariano" />
      <path d="m 0,0 h  19" id="rEliJam-ElizabethDanes" />
      <g id="Mariano-child" class="child">
        <title>Jess Mariano, child of Elizabeth Danes and James Mariano</title>
        <path d="m 0,0 v 58"/>
      </g>
      <circle cx="0" cy="0" r="1.5" id="rEliJam" />
    </g>
    <g id="Danes-family4" class="marriage" transform="translate(1296,-170)">
      <title>Marriage of Elizabeth Danes and Gary</title>
      <path d="m 0,0  h -19" id="mEliGar-ElizabethDanes" />
      <path d="m 0,0 h  19" id="mEliGar-Gary" />
      <g id="Danes-child2" class="child">
        <title>Doula, child of Elizabeth Danes and Gary</title>
        <path d="m 0,0 v 58"/>
      </g>
      <circle cx="0" cy="0" r="1.5" id="mEliGar" />
    </g>
    <g id="Huntzberger-family2" class="marriage" transform="translate(186,-170)">
      <title>Marriage of Shira and Mitchum Huntzberger</title>
      <path d="m 0,0 h -19" id="mShiMit--Shira" />
      <path d="m 0,0 h  19" id="mShiMit--MitchumHuntzberger" />
      <g id="Gilmore_edge36" class="child">
        <title>Children of Shira and Mitchum Huntzberger</title>
        <path d="m 0,0 v 38" id="mShiMit-cShiMit" />
        <path d="m 0,38 h -52 v 20" id="cShiMit-HonorHuntzberger" />
        <path d="m 0,38 h  52 v 20" id="cShiMit-LoganHuntzberger" />
        <circle cx="0" cy="38" r="1.5" id="cShi-Mit" />
      </g>
      <circle cx="0" cy="0" r="1.5" id="mShiMit" />
    </g>

    <g id="Sasha-Lily" class="child">
      <title>Lily, daughter of Sasha</title>
      <path d="m 1042,-152 v 40"/>
    </g>

    <g id="Huntzberger-family3" class="marriage" transform="translate(73,-94)">
      <title>Marriage of Honor Huntzberger and Josh</title>
      <path d="m 0,0 h -19" id="mHonJos-Josh" />
      <path d="m 0,0 h  19" id="mHonJos-HonorHuntzberger" />
      <circle cx="0" cy="0" r="1.5" id="mHonJos" />
    </g>
    <g id="Huntzberger-family4" class="affair" transform="translate(335,-94)">
      <title>Relationship and affair of Lorelai L. Gilmore and Logan Huntzberger</title>
      <path d="m 0,0 h -55" id="rLorLog-LoganHuntzberger" />
      <path d="m 0,0 h  55" id="rLorLog-LorelaiLGilmore" />
      <g id="Gilmore_edge68" class="child">
        <title>Unnamed child of Lorelai L. Gilmore and Logan Huntzberger</title>
        <path d="m 0,0 v 58" id="rLorLog-unnamed"/>
      </g>
      <circle cx="0" cy="0" r="1.5" id="rLorLog" />
    </g>

    <g id="Gilmore1" class="male unnamed deceased" transform="translate(412,-568)">
      <title>Great grandfather of Charles and Lorelai Gilmore</title>
      <rect x="0" y="0" width="58" height="36" />
      <text x="29" y="12">unnamed</text>
      <text x="29" y="24">Gilmore</text>
    </g>

    <g id="Gilmore2a" class="male unnamed deceased" transform="translate(307,-492)">
      <title>Grandfather of Charles Gilmore</title>
      <rect x="0" y="0" width="58" height="36" />
      <text x="29" y="12">unnamed</text>
      <text x="29" y="24">Gilmore</text>
    </g>
    <g id="Gilmore2b" class="male unnamed deceased" transform="translate(514,-492)">
      <title>Grandfather of Lorelai Gilmore, great grandfather of Marilyn Gilmore</title>
      <rect x="0" y="0" width="58" height="36" />
      <text x="29" y="12">unnamed</text>
      <text x="29" y="24">Gilmore</text>
    </g>

    <g id="Gilmore3a" class="male unnamed deceased" transform="translate(307,-416)">
      <title>Father of Charles Gilmore</title>
      <rect x="0" y="0" width="58" height="36" />
      <text x="29" y="12">unnamed</text>
      <text x="29" y="24">Gilmore</text>
    </g>
    <g id="Gilmore3b" class="male unnamed deceased" transform="translate(514,-416)">
      <title>Father of Lorelai Gilmore, grandfather of Marilyn Gilmore</title>
      <rect x="0" y="0" width="58" height="36" />
      <text x="29" y="12">unnamed</text>
      <text x="29" y="24">Gilmore</text>
    </g>

    <g id="CharlesGillmore" class="male deceased" transform="translate(305,-340)">
      <title>Charles Gillmore</title>
      <rect x="0" y="0" width="62" height="36" />
      <text x="31" y="12">Charles</text>
      <text x="31" y="24">Gilmore</text>
    </g>
    <g id="LorelaiGilmore" class="female deceased" transform="translate(405,-342)">
      <title>Lorelai Gilmore</title>
      <rect x="0" y="0" width="62" height="40" />
      <text x="31" y="8">Lorelai </text>
      <text x="31" y="20">Gilmore</text>
      <text x="31" y="32" class="nickname">(Trix)</text>
    </g>
    <g id="Gilmore4a" class="male unnamed deceased" transform="translate(621,-340)">
      <title>Father of Marilyn Gilmore</title>
      <rect x="0" y="0" width="58" height="36" />
      <text x="29" y="12">unnamed</text>
      <text x="29" y="24">Gilmore</text>
    </g>

    <g id="EliasHuntz" class="male" transform="translate(83,-264)">
      <title>Elias Huntzberger</title>
      <rect x="0" y="0" width="84" height="36" />
      <text x="42" y="12">Elias</text>
      <text x="42" y="24">Huntzberger</text>
    </g>
    <g id="Hope" class="female" transform="translate(189,-264)">
      <title>Hope</title>
      <rect x="0" y="0" width="54" height="36" />
      <text x="27" y="12">Hope</text>
      <text x="27" y="24" class="nickname">(Happy)</text>
    </g>
    <g id="Emily" class="female main" transform="translate(263,-264)">
      <title>Emily</title>
      <rect x="0" y="0" width="54" height="36" />
      <text x="27" y="18">Emily</text>
    </g>
    <g id="RichardGilmore" class="male deceased main" transform="translate(355,-264)">
      <title>Richard Gilmore</title>
      <rect x="0" y="0" width="62" height="36" />
      <text x="31" y="12">Richard</text>
      <text x="31" y="24">Gilmore</text>
    </g>
    <g id="StraubHayden" class="male deceased" transform="translate(438,-264)">
      <title>Straub Hayden</title>
      <rect x="0" y="0" width="58" height="36" />
      <text x="29" y="12">Straub</text>
      <text x="29" y="24">Hayden</text>
    </g>
    <g id="Francine" class="female" transform="translate(534,-264)">
      <title>Francine</title>
      <rect x="0" y="0" width="64" height="36" />
      <text x="32" y="18">Francine</text>
    </g>
    <g id="MarilynGilmore" class="female" transform="translate(619,-264)">
      <title>Marilyn Gilmore</title>
      <rect x="0" y="0" width="62" height="36" />
      <text x="31" y="12">Marilyn</text>
      <text x="31" y="24">Gilmore</text>
    </g>
    <g id="WilliamDanes" class="male deceased" transform="translate(1031,-264)">
      <title>William Danes</title>
      <rect x="0" y="0" width="56" height="36" />
      <text x="28" y="12">William</text>
      <text x="28" y="24">Danes</text>
    </g>
    <g id="LouisDanes" class="male deceased" transform="translate(1286,-264)">
      <title>Louis Danes</title>
      <rect x="0" y="0" width="54" height="36" />
      <text x="27" y="12">Louis</text>
      <text x="27" y="24">Danes</text>
    </g>
    <g id="unnamedDanes" class="neuter unnamed" transform="translate(1540,-264)">
      <title>Louis Danes</title>
      <rect x="0" y="0" width="56" height="36" />
      <text x="28" y="8">unnamed</text>
      <text x="28" y="18">Danes or</text>
      <text x="28" y="28">Daneses</text>
    </g>

    <g id="MitchumHuntz" class="male" transform="translate(83,-188)">
      <title>Mitchum Huntzberger</title>
      <rect x="0" y="0" width="84" height="36" />
      <text x="42" y="12">Mitchum</text>
      <text x="42" y="24">Huntzberger</text>
    </g>
    <g id="Shira" class="female" transform="translate(205,-188)">
      <title>Shira</title>
      <rect x="0" y="0" width="54" height="36" />
      <text x="27" y="18">Shira</text>
    </g>
    <g id="LorelaiVGilmore" class="female main" transform="translate(305,-188)">
      <title>Lorelai Victoria Gilmore</title>
      <rect x="0" y="0" width="62" height="36" />
      <text x="31" y="12">Lorelai V.</text>
      <text x="31" y="24">Gilmore</text>
    </g>
    <g id="ChristopherHayden" class="male" transform="translate(475,-188)">
      <title>Christopher Hayden</title>
      <rect x="0" y="0" width="80" height="36" />
      <text x="40" y="12">Christopher</text>
      <text x="40" y="24">Hayden</text>
    </g>
    <g id="SherryTinsdale" class="female" transform="translate(591,-188)">
      <title>Sherry Tinsdale</title>
      <rect x="0" y="0" width="62" height="36" />
      <text x="31" y="12">Sherry</text>
      <text x="31" y="24">Tinsdale</text>
    </g>
    <g id="RexNardini" class="male" transform="translate(673,-188)">
      <title>Rex Nardini</title>0
      <rect x="0" y="0" width="58" height="36" />
      <text x="29" y="12">Rex</text>
      <text x="29" y="24">Nardini</text>
    </g>
    <g id="AnnaNardini" class="female" transform="translate(751,-188)">
      <title>Anna Nardini</title>
      <rect x="0" y="0" width="58" height="36" />
      <text x="29" y="12">Anna</text>
      <text x="29" y="24">Nardini</text>
    </g>
    <g id="LucasDanes" class="male main" transform="translate(847,-190)">
      <title>Lucas Danes</title>
      <rect x="0" y="0" width="56" height="40" />
      <text x="28" y="8">Lucas</text>
      <text x="28" y="20">Danes</text>
      <text x="28" y="32" class="nickname">(Luke)</text>
    </g>
    <g id="NicoleLeahy" class="female" transform="translate(941,-188)">
      <title>Nicole Leahy</title>
      <rect x="0" y="0" width="54" height="36" />
      <text x="27" y="12">Nicole</text>
      <text x="27" y="24">Leahy</text>
    </g>
    <g id="Sasha" class="female" transform="translate(1015,-188)">
      <title>Sasha</title>
      <rect x="0" y="0" width="54" height="36" />
      <text x="27" y="18">Sasha</text>
    </g>
    <g id="JamesMariano" class="male" transform="translate(1107,-190)">
      <title>James Mariano</title>
      <rect x="0" y="0" width="64" height="40" />
      <text x="32" y="8">James</text>
      <text x="32" y="20">Mariano</text>
      <text x="32" y="32" class="nickname">(Jimmy)</text>
    </g>
    <g id="ElizabethDanes" class="female" transform="translate(1209,-190)">
      <title>Elizabeth Danes</title>
      <rect x="0" y="0" width="68" height="40" />
      <text x="34" y="8">Elizabeth</text>
      <text x="34" y="20">Danes</text>
      <text x="34" y="32" class="nickname">(Liz)</text>
    </g>
    <g id="Gary" class="male" transform="translate(1315,-188)">
      <title>Gary</title>
      <rect x="0" y="0" width="54" height="36" />
      <text x="27" y="12">Gary</text>
      <text x="27" y="24" class="nickname">(T.J.)</text>
    </g>
    <g id="unnamedBro" class="male unnamed" transform="translate(1389,-188)">
      <title>Brother of Gary</title>
      <rect x="0" y="0" width="58" height="36" />
      <text x="29" y="12">unnamed</text>
      <text x="29" y="24">brother</text>
    </g>
    <g id="Paul" class="male" transform="translate(1467,-188)">
      <title>Paul</title>
      <rect x="0" y="0" width="54" height="36" />
      <text x="27" y="18">Paul</text>
    </g>
    <g id="James" class="male" transform="translate(1541,-188)">
      <title>James</title>
      <rect x="0" y="0" width="54" height="36" />
      <text x="27" y="12">James</text>
      <text x="27" y="24" class="nickname">(Jim)</text>
    </g>
    <g id="Frannie" class="female" transform="translate(1615,-188)">
      <title>Frannie</title>
      <rect x="0" y="0" width="54" height="36" />
      <text x="27" y="18">Frannie</text>
    </g>

    <g id="Josh" class="male" transform="translate(0,-112)">
      <title>Josh</title>
      <rect x="0" y="0" width="54" height="36" />
      <text x="27" y="18">Josh</text>
    </g>
    <g id="HonorHuntz" class="female" transform="translate(92,-112)">
      <title>Honor Huntzberger</title>
      <rect x="0" y="0" width="84" height="36" />
      <text x="42" y="12">Honor</text>
      <text x="42" y="24">Huntzberger</text>
    </g>
    <g id="LoganHuntz" class="male main" transform="translate(196,-112)">
      <title>Logan Huntzberger</title>
      <rect x="0" y="0" width="84" height="36" />
      <text x="42" y="12">Logan</text>
      <text x="42" y="24">Huntzberger</text>
    </g>
    <g id="LorelaiLGilmore" class="female main" transform="translate(390,-114)">
      <title>Lorelai Leigh Gilmore</title>
      <rect x="0" y="0" width="62" height="40" />
      <text x="31" y="8">Lorelai L.</text>
      <text x="31" y="20">Gilmore</text>
      <text x="31" y="32" class="nickname">(Rory)</text>
    </g>
    <g id="GeorgiaHayden" class="female" transform="translate(543,-114)">
      <title>Georgia Hayden</title>
      <rect x="0" y="0" width="60" height="40" />
      <text x="30" y="8">Georgia</text>
      <text x="30" y="20">Hayden</text>
      <text x="30" y="32" class="nickname">(Gigi)</text>
    </g>
    <g id="AprilNardini" class="female" transform="translate(799,-112)">
      <title>April Nardini</title>
      <rect x="0" y="0" width="58" height="36" />
      <text x="29" y="12">April</text>
      <text x="29" y="24">Nardini</text>
    </g>
    <g id="Lily" class="female" transform="translate(1015,-112)">
      <title>Lily</title>
      <rect x="0" y="0" width="54" height="36" />
      <text x="27" y="18">Lily</text>
    </g>
    <g id="JessMariano" class="male main" transform="translate(1159,-112)">
      <title>Jess Mariano</title>
      <rect x="0" y="0" width="62" height="36" />
      <text x="31" y="12">Jess</text>
      <text x="31" y="24">Mariano</text>
    </g>
    <g id="Doula" class="female" transform="translate(1269,-112)">
      <title>Doula</title>
      <rect x="0" y="0" width="54" height="36" />
      <text x="27" y="18">Doula</text>
    </g>
    <g id="unnamedChild" class="neuter unnamed" transform="translate(306,-36)">
      <title>unnamed child of Lorelai Leigh Gilmore and Logan Huntzberger</title>
      <rect x="0" y="0" width="58" height="36" />
      <text x="29" y="12">unnamed</text>
      <text x="29" y="24">child</text>
    </g>
  </g>
</svg>
