<?xml version="1.0" encoding="UTF-8" standalone="no"?>
<?xml-stylesheet href="../../../../css/family_tree.css" type="text/css"?>
<svg
  xmlns="http://www.w3.org/2000/svg"
  xmlns:xlink="http://www.w3.org/1999/xlink"
  xmlns:rdf="http://www.w3.org/1999/02/22-rdf-syntax-ns#"
  xmlns:dc="http://purl.org/dc/elements/1.1/"
  xmlns:cc="http://creativecommons.org/ns#"
  viewBox="0 0 543 240"
  width="543"
  height="240"
>
  <title id="svg_title">The StJames-Belleville family from Gilmore Girls</title>
  <metadata id="Family_metadata">
    <rdf:RDF>
      <cc:work rdf:about="">
        <dc:format>image/svg+xml</dc:format>
        <dc:type rdf:resource="http://purl.org/dc/dcmitype/StillImage" />
        <dc:title>The StJames-Belleville family from Gilmore Girls</dc:title>
        <dc:creator>
          <cc:agent>
            <dc:title>Burge, Dawn M.</dc:title>
          </cc:agent>
        </dc:creator>
        <dc:language>en-US</dc:language>
        <dc:date>2020-03</dc:date>
      </cc:work>
    </rdf:RDF>
  </metadata>
  <style id="Family_styles" type="text/css">
    @import url(../../../../css/family_tree.css);
    g.deceased.male   rect { fill: url(#m_dead); }
    g.deceased.female rect { fill: url(#f_dead); }
  </style>
  <defs id="Family_defs">
    <radialGradient id="m_dead">
      <stop id="mds1" offset="75%" style="stop-color:#ccccff;stop-opacity:0.85;" />
      <stop id="mds2" offset="25%" style="stop-color:#eeeeff;stop-opacity:0.85;" />
    </radialGradient>
    <radialGradient id="f_dead">
      <stop id="fds1" offset="75%" style="stop-color:#ffcccc;stop-opacity:0.85;" />
      <stop id="fds2" offset="25%" style="stop-color:#ffeeee;stop-opacity:0.85;" />
    </radialGradient>
  </defs>
  <!--
    Generated using the Perl SVG Module V2.84 by Ronan Oger Info: http://www.roitsystems.com/
    Edited with Geany 1.33 (built on 2018-04-16 with GTK 3.22.29, GLib 2.56.1)
  -->
  <g id="Gilmore Girls" class="graph" transform="translate(5, 235)">
    <title>The StJames-Belleville family from Gilmore Girls</title>
    <text class="chart_title" x="310" y="-223">The StJames-Belleville family from Gilmore Girls</text>
    <g id="unknown-relationship" class="child descendant" transform="translate(131, -208)">
      <title>Little known relationships</title>
      <path d="m 0,0 h -104 v 20" id="unknown-Rune" />
      <path d="m 0,0 h  -23 v 20" id="unknown-Satchmo" />
      <path d="m 0,0 h  105 v 80" id="unknown-Belleville" />
      <circle cx="0" cy="0" id="sibBelleville" r="1.5" />
    </g>
    <g id="Runef gen-siblings" class="child" transform="translate(27, -152)">
      <title>Rune2, child of Rune1</title>
      <path d="m 0,0 v  58" id="cRune1-Rune2" />
    </g>
    <g id="Belleville-siblings" class="child" transform="translate(236, -132)">
      <title>Belleville siblings</title>
      <path d="m 0,0 h -129 v 20" id="sibBelleville-BeauBelleville" />
      <path d="m 0,0 h  -43 v 20" id="sibBelleville-AdeleBelleville" />
      <path d="m 0,0 h   43 v 20" id="sibBelleville-ColleenBelleville" />
      <g class="adopted">
        <path d="m 0,0 h  129 v 20" id="sibBelleville-JacksonBelleville" />
      </g>
      <circle cx="0" cy="0" id="sibBelleville" r="1.5" />
    </g>
    <g id="SooJac-family" class="marriages" transform="translate(417, -94)">
      <title>Marriages of Sookie St._James and Jackson Belleville</title>
      <path d="m 0,0 h -19" id="mSooJac-SookieSt._James" />
      <path d="m 0,0 h  19" id="mSooJac-JacksonBelleville" />
      <g class="child" id="StJAmesBelleville-children">
        <title>Children of Sookie St._James and Jackson Belleville</title>
        <path d="m 0,0  v  38" id="mSooJac-cSooJac" />
        <path d="m 0,38 h -85 v 20" id="cSooJac-DavidBelleville" />
        <path d="m 0,38 h   1 v 20" id="cSooJac-MarthaBelleville" />
        <path d="m 0,38 h  85 v 20" id="cSooJac-unnamedBelleville" />
        <circle cx="0" cy="38" id="cSooJac" r="1.5" />
      </g>
      <circle cx="0" cy="0" id="mSooJac" r="1.5" />
    </g>
    <g id="Rune1" class="male" transform="translate(0, -188)">
      <title>Rune</title>
      <rect height="36" width="54" x="0" y="0" />
      <text x="27" y="18">Rune</text>
    </g>
    <g id="Satchmo" class="male" transform="translate(74, -188)">
      <title>(Satchmo)</title>
      <rect height="36" width="68" x="0" y="0" />
      <text class="nickname" x="34" y="18">(Satchmo)</text>
    </g>
    <g id="Rune2" class="male" transform="translate(0, -112)">
      <title>Rune</title>
      <rect height="36" width="54" x="0" y="0" />
      <text x="27" y="18">Rune</text>
    </g>
    <g id="BeauBelleville" class="male" transform="translate(74, -112)">
      <title>Beau Belleville</title>
      <rect height="36" width="66" x="0" y="0" />
      <text x="33" y="12">Beau</text>
      <text x="33" y="24">Belleville</text>
    </g>
    <g class="female" id="AdeleBelleville" transform="translate(160, -112)">
      <title>Adele Belleville</title>
      <rect height="36" width="66" x="0" y="0" />
      <text class="" x="33" y="12">Adele</text>
      <text class="" x="33" y="24">Belleville</text>
    </g>
    <g class="female" id="ColleenBelleville" transform="translate(246, -112)">
      <title>Colleen Belleville</title>
      <rect height="36" width="66" x="0" y="0" />
      <text class="" x="33" y="12">Colleen</text>
      <text class="" x="33" y="24">Belleville</text>
    </g>
    <g id="JacksonBelleville" class="male" transform="translate(332, -112)">
      <title>Jackson Belleville</title>
      <rect height="36" width="66" x="0" y="0" />
      <text x="33" y="12">Jackson</text>
      <text x="33" y="24">Belleville</text>
    </g>
    <g id="SookieSt._James" class="female main" transform="translate(436, -112)">
      <title>Sookie St._James</title>
      <rect height="36" width="74" x="0" y="0" />
      <text x="37" y="12">Sookie</text>
      <text x="37" y="24">St. James</text>
    </g>
    <g id="DavidBelleville" class="male" transform="translate(299, -38)">
      <title>David Belleville (Davey)</title>
      <rect height="40" width="66" x="0" y="0" />
      <text x="33" y="8">David</text>
      <text x="33" y="20">Belleville</text>
      <text class="nickname" x="33" y="32">(Davey)</text>
    </g>
    <g id="MarthaBelleville" class="female" transform="translate(385, -36)">
      <title>Martha Belleville</title>
      <rect height="36" width="66" x="0" y="0" />
      <text x="33" y="12">Martha</text>
      <text x="33" y="24">Belleville</text>
    </g>
    <g id="unnamedBelleville" class="neuter unnamed" transform="translate(471, -36)">
      <title>unnamed Belleville</title>
      <rect height="36" width="62" x="0" y="0" />
      <text x="31" y="12">unnamed</text>
      <text x="31" y="24">Belleville</text>
    </g>
  </g>
</svg>
