<?xml version="1.0" encoding="UTF-8" standalone="no"?>
<?xml-stylesheet href="../../../../css/family_tree.css" type="text/css"?>
<svg
  xmlns="http://www.w3.org/2000/svg"
  xmlns:xlink="http://www.w3.org/1999/xlink"
  xmlns:rdf="http://www.w3.org/1999/02/22-rdf-syntax-ns#"
  xmlns:dc="http://purl.org/dc/elements/1.1/"
  xmlns:cc="http://creativecommons.org/ns#"
  viewBox="0 0 230 200"
  width="230"
  height="200"
>
  <title id="Barton_title">The Barton family</title>
  <metadata id="Barton_metadata">
    <rdf:RDF>
      <cc:Work rdf:about="">
        <dc:format>image/svg+xml</dc:format>
        <dc:type rdf:resource="http://purl.org/dc/dcmitype/StillImage" />
        <dc:title>The Barton family</dc:title>
        <dc:creator>
          <cc:Agent>
            <dc:title>Burge, Dawn M.</dc:title>
          </cc:Agent>
        </dc:creator>
        <dc:language>en-US</dc:language>
        <dc:date>2019-10</dc:date>
      </cc:Work>
    </rdf:RDF>
  </metadata>
  <style id="Family_styles" type="text/css">
    @import url(../../../css/family_tree.css);
  </style>
  <!-- Generated by graphviz version 2.40.1 (20161225.0304) -->
  <g id="Barton_chart" class="graph" transform="translate(5,195)">
    <title>The Barton family</title>
    <text x="115" y="-182" class="chart_title">The Barton family</text>
    <g id="Edith--Clint" class="edge">
      <title>Edith to Clint</title>
      <path d="m 57,-132 v 20"/>
    </g>
    <g id="edge2" class="marriage" transform="translate(103,-94)">
      <title>Marriage of Laura and Clint Barton</title>
      <path d="m 0,0 h -19" id="mCL--Clint" />
      <path d="m 0,0 h  19" id="mCL--Laura" />
      <g id="Barton--children" class="child">
        <title>Barton children</title>
        <path d="m 0,0 v 38" id="mCL--cCL" />
        <path d="m 0,38 h -75 v 20" id="cCL--Cooper" />
        <path d="m 0,38 v 20" id="cCL--Lila" />
        <path d="m 0,38 h 82 v 20" id="cCL--Nathaniel" />
        <circle cx="0" cy="38" r="1.5" id="cCL" />
      </g>
      <circle cx="0" cy="0" r="1.5" id="mCl" />
    </g>
    <g id="Edith" class="female" transform="translate(30,-168)">
      <title>Edith</title>
      <rect x="0" y="0" width="54" height="36" />
      <text x="27" y="18">Edith</text>
    </g>
    <g id="Clint" class="male" transform="translate(30,-114)">
      <title>Clint Barton, Hawkeye</title>
      <rect x="0" y="0" width="54" height="40" />
      <text x="27" y="8">Clint</text>
      <text x="27" y="20">Barton</text>
      <text x="27" y="32" class="job">Hawkeye</text>
    </g>
    <g id="Laura" class="female" transform="translate(122,-112)">
      <title>Laura Barton</title>
      <rect x="0" y="0" width="54" height="36" />
      <text x="27" y="12">Laura</text>
      <text x="27" y="24">Barton</text>
    </g>
    <g id="Cooper" class="male" transform="translate(0,-36)">
      <title>Cooper Barton</title>
      <rect x="0" y="0" width="56" height="36" />
      <text x="28" y="12">Cooper</text>
      <text x="28" y="24">Barton</text>
    </g>
    <g id="Lila" class="female" transform="translate(76,-36)">
      <title>Lila Barton</title>
      <rect x="0" y="0" width="54" height="36" />
      <text x="27" y="12">Lila</text>
      <text x="27" y="24">Barton</text>
    </g>
    <g id="Nathaniel" class="male" transform="translate(150,-36)">
      <title>Nathaniel Barton</title>
      <rect x="0" y="0" width="70" height="36" />
      <text x="35" y="12">Nathaniel</text>
      <text x="35" y="24">Barton</text>
    </g>
  </g>
</svg>
