<?xml version="1.0" encoding="UTF-8" standalone="no"?>
<?xml-stylesheet href="../../../../css/family_tree.css" type="text/css"?>
<svg
  xmlns="http://www.w3.org/2000/svg"
  xmlns:xlink="http://www.w3.org/1999/xlink"
  xmlns:rdf="http://www.w3.org/1999/02/22-rdf-syntax-ns#"
  xmlns:dc="http://purl.org/dc/elements/1.1/"
  xmlns:cc="http://creativecommons.org/ns#"
  viewBox="0 0 397 180"
  width="397"
  height="180"
>
  <title id="Pym_Lang_title">The Pym and Lang families</title>
  <metadata id="Pym_Lang_metadata">
    <rdf:RDF>
      <cc:Work rdf:about="">
        <dc:format>image/svg+xml</dc:format>
        <dc:type rdf:resource="http://purl.org/dc/dcmitype/StillImage" />
        <dc:title>The Pym and Lang families</dc:title>
        <dc:creator>
          <cc:Agent>
            <dc:title>Burge, Dawn M.</dc:title>
          </cc:Agent>
        </dc:creator>
        <dc:language>en-US</dc:language>
        <dc:date>2019-10</dc:date>
      </cc:Work>
    </rdf:RDF>
  </metadata>
  <style id="Family_styles" type="text/css">
    @import url(../../../css/family_tree.css);
  </style>
  <!-- Generated by graphviz version 2.40.1 (20161225.0304) -->
  <g id="Pym_Lang_chart" class="graph" transform="translate(5, 175)">
    <title>The Pym and Lang families</title>
    <text x="198" y="-162" class="chart_title">The Pym and Lang families</text>
    <g id="Van_Dyne-Pym--family" class="marriage" transform="translate(73,-130)">
      <title>Marriage of Janet van Dyne and Hank Pym</title>
      <path d="m 0,0 h -19" id="mJH--Hank" />
      <path d="m 0,0 h 19"  id="mJH--Janet" />
        <g id="Van_Dyne-Pym--Hope" class="child">
        <title>Daughter of Janet and Hank, Hope</title>
        <path d="m 0,0 v 38" id="mJH--Hope" />
        </g>
      <circle cx="0" cy="0" r="1.5" id="mJH" />
    </g>
    <g id="Pym-Lang--relationship" class="dating" transform="translate(124,-74)">
      <title>Relationship of Hope van Dyne and Scott Lang</title>
      <path d="m 0,0 h -19" id="dHS--Hope" />
      <path d="m 0,0 h  19" id="dHS--Scott" />
      <circle cx="0" cy="0" r="1.5" id="dHS" />
    </g>
    <g id="Lang--family" class="marriage" transform="translate(216,-74)">
      <title>Marriage of Maggie and Scott Lang</title>
      <path d="m 0,0 h -19" id="mMS--Scott" />
      <path d="m 0,0 h  19" id="mMS--Maggie" />
      <g id="Lang--Cassie" class="child">
        <title>Daughter of Maggie and Scott, Cassie</title>
        <path d="m 0,0 v 38" id="mMs--Cassie" />
      </g>
      <circle cx="0" cy="0" r="1.5" id="mMS" />
    </g>
    <g id="Paxton--family" class="marriage" transform="translate(314,-74)">
      <title>Marriage of Maggie and Jim Paxton</title>
      <path d="m 0,0 h -19" id="mMJ--Maggie" />
      <path d="m 0,0 h  19" id="mMJ--Jim" />
      <circle cx="0" cy="0" r="1.5" id="mMJ" />
    </g>
    <g id="Hank" class="male" transform="translate(0,-150)">
      <title>Hank Pym, Ant-Man (1)</title>
      <rect x="0" y="0" width="54" height="40" />
      <text x="27" y="8">Hank</text>
      <text x="27" y="20">Pym</text>
      <text x="27" y="32" class="job">Ant-Man</text>
    </g>
    <g id="Janet" class="female" transform="translate(92,-150)">
      <title>Janet van Dyne, Wasp (1)</title>
      <rect x="0" y="0" width="64" height="40" />
      <text x="32" y="8">Janet</text>
      <text x="32" y="20">van Dyne</text>
      <text x="32" y="32" class="job">Wasp</text>
    </g>
    <g id="Hope" class="female" transform="translate(41,-94)">
      <title>Hope van Dyne, Wasp (2)</title>
      <rect x="0" y="0" width="64" height="40" />
      <text x="32" y="8">Hope</text>
      <text x="32" y="20">van Dyne</text>
      <text x="32" y="32" class="job">Wasp</text>
    </g>
    <g id="Scott" class="male" transform="translate(143,-94)">
      <title>Scott Lang, Ant-Man (2)</title>
      <rect x="0" y="0" width="54" height="40" />
      <text x="27" y="8">Scott</text>
      <text x="27" y="20">Lang</text>
      <text x="27" y="32" class="job">Ant-Man</text>
    </g>
    <g id="Maggie" class="female" transform="translate(235,-92)">
      <title>Margaret (Maggie) Paxton</title>
      <rect x="0" y="0" width="60" height="36" />
      <text x="30" y="12">Maggie</text>
      <text x="30" y="24">Paxton</text>
    </g>
    <g id="Jim" class="male" transform="translate(333,-92)">
      <title>James (Jim) Paxton</title>
      <rect x="0" y="0" width="54" height="36" />
      <text x="27" y="12">Jim</text>
      <text x="27" y="24">Paxton</text>
    </g>
    <g id="Cassie" class="female" transform="translate(189,-36)">
      <title>Cassandra (Cassie) Lang</title>
      <rect x="0" y="0" width="54" height="36" />
      <text x="27" y="12">Cassie</text>
      <text x="27" y="24">Lang</text>
    </g>
  </g>
</svg>
