<?xml version="1.0" encoding="UTF-8" standalone="no"?>
<?xml-stylesheet href="../../../../css/family_tree.css" type="text/css"?>
<svg
  xmlns="http://www.w3.org/2000/svg"
  xmlns:xlink="http://www.w3.org/1999/xlink"
  xmlns:rdf="http://www.w3.org/1999/02/22-rdf-syntax-ns#"
  xmlns:dc="http://purl.org/dc/elements/1.1/"
  xmlns:cc="http://creativecommons.org/ns#"
  viewBox="0 0 329 275"
  width="329"
  height="275"
>
  <title id="TChalla_title">The family of T'Challa</title>
  <metadata id="TChalla_metadata">
    <rdf:RDF>
      <cc:Work rdf:about="">
        <dc:format>image/svg+xml</dc:format>
        <dc:type rdf:resource="http://purl.org/dc/dcmitype/StillImage" />
        <dc:title>The family of T'Challa</dc:title>
        <dc:creator>
          <cc:Agent>
            <dc:title>Burge, Dawn M.</dc:title>
          </cc:Agent>
        </dc:creator>
        <dc:language>en-US</dc:language>
        <dc:date>2019-10</dc:date>
      </cc:Work>
    </rdf:RDF>
  </metadata>
  <style id="Family_styles" type="text/css">
    @import url(../../../css/family_tree.css);
    g.deceased.male   rect { fill: url(#m_dead); }
    g.deceased.female rect { fill: url(#f_dead); }
  </style>
  <defs id="Family_defs">
    <radialGradient id="m_dead">
      <stop id="stop4423" style="stop-color:#ccccff;stop-opacity:0.85;" offset="75%" />
      <stop id="stop4425" style="stop-color:#eeeeff;stop-opacity:0.85;" offset="100%" />
    </radialGradient>
    <radialGradient id="f_dead">
      <stop id="stop4677" style="stop-color:#ffcccc;stop-opacity:0.85;" offset="75%" />
      <stop id="stop4679" style="stop-color:#ffeeee;stop-opacity:0.85;" offset="100%" />
    </radialGradient>
    <radialGradient id="n_dead">
      <stop id="stop4677" style="stop-color:#ccffcc;stop-opacity:0.85;" offset="50%" />
      <stop id="stop4679" style="stop-color:#eeffee;stop-opacity:0.85;" offset="100%" />
    </radialGradient>
  </defs>
  <!-- Generated by graphviz version 2.40.1 (20161225.0304) -->
  <g id="TChalla_chart" class="graph" transform="translate(5 270)">
    <title>The family of T'Challa</title>
    <text x="143" y="-258" class="chart_title">The family of T'Challa</text>
    <g id="Bashenga--Azzuri" class="descendant child">
    <title>Bashenga to Azzuri</title>
    <path d="m 248,-208 v 20"/>
    </g>
    <g id="Azzuri--family" class="child" transform="translate(248,-152)">
      <title>Children of Azzuri</title>
      <path d="m 0,0 v 20" id="Azzuri--cAzz" />
      <path d="m 0,20 h -38 v 20" id="cAzz--TChaka" />
      <path d="m 0,20 h  40 v 20" id="cAzz--NJobu" />
      <circle cx="0" cy="20" r="1.5" id="cAzz" />
    </g>
    <g id="RamTCh--family" class="marriage" transform="translate(161,-94)">
      <title>Marriage of Ramonda and T'Chaka</title>
      <path d="m 0,0 h -19" id="mRamTCh--Ramonda" />
      <path d="m 0,0 h  19" id="mRamTCh--TChaka" />
      <g id="RamTCh--children" class="child">
        <title>Children of Ramonda and T'Chaka</title>
        <path d="m 0,0  v 38" id="mRamTCh--cRamTCh" />
        <path d="m 0,38 h -39 v 20" id="cRamTCh--TChalla" />
        <path d="m 0,38 h  38 v 20" id="cRamTCh--Shuri" />
        <circle cx="0" cy="38" r="1.5" id="cRT"/>
      </g>
      <circle cx="0" cy="0" r="1.5" id="mRamTCh"/>
    </g>
    <g id="NJobu--NJadaka" class="child">
    <title>N'Jobu to N'Jadaka</title>
    <path d="m 287,-76  v 40"/>
    </g>
    <g id="NakTCh--relationship" class="dating" transform="translate(73,-18)">
      <title>Relationship of Nakia and T'Challa</title>
      <path d="m 0,0 h -19" id="dNakTCh--Nakia" />
      <path d="m 0,0 h  19" id="dNakTCh--TChalla" />
      <circle cx="0" cy="0" r="1.5" id="dNakTCh" />
    </g>
    <g id="Bashenga" class="male deceased" transform="translate(213,-244)">
      <title>Bashenga</title>
      <rect x="0" y="0" width="70" height="36" />
      <text x="35" y="18">Bashenga</text>
    </g>
    <g id="Azzuri" class="male deceased" transform="translate(221,-188)">
      <title>Azzuri</title>
      <rect x="0" y="0" width="54" height="36" />
      <text x="27" y="18">Azzuri</text>
    </g>
    <g id="Ramonda" class="female" transform="translate(72,-112)">
      <title>Ramonda</title>
      <rect x="0" y="0" width="70" height="36" />
      <text x="35" y="18">Ramonda</text>
    </g>
    <g id="TChaka" class="male deceased king" transform="translate(180,-114)">
      <title>T'Chaka, Black Panther (1)</title>
      <rect x="0" y="0" width="60" height="40" />
      <text x="30" y="10">T'Chaka</text>
      <text x="30" y="22" class="job">Black</text>
      <text x="30" y="30" class="job">Panther</text>
    </g>
    <g id="NJobu" class="male deceased" transform="translate(260,-112)">
      <title>N'Jobu</title>
      <rect x="0" y="0" width="54" height="36" />
      <text x="27" y="18">N'Jobu</text>
    </g>
    <g id="Nakia" class="female" transform="translate(0,-36)">
      <title>Nakia</title>
      <rect x="0" y="0" width="54" height="36" />
      <text x="27" y="18">Nakia</text>
    </g>
    <g id="TChalla" class="male king" transform="translate(92,-38)">
      <title>T'Challa, Black Panther (2)</title>
      <rect x="0" y="0" width="60" height="40" />
      <text x="30" y="10">T'Challa</text>
      <text x="30" y="22" class="job">Black</text>
      <text x="30" y="30" class="job">Panther</text>
    </g>
    <g id="Shuri" class="female" transform="translate(172,-36)">
      <title>Shuri</title>
      <rect x="0" y="0" width="54" height="36" />
      <text x="27" y="18">Shuri</text>
    </g>
    <g id="NJadaka" class="male deceased" transform="translate(255,-36)">
      <title>N'Jadaka, Eric Killmonger</title>
      <rect x="0" y="0" width="64" height="36" />
      <text x="32" y="12">N'Jadaka</text>
      <text x="32" y="24">(Eric)</text>
    </g>
  </g>
</svg>
