<?xml version="1.0" encoding="UTF-8" standalone="no"?>
<?xml-stylesheet href="../../../../css/family_tree.css" type="text/css"?>
<svg
  xmlns="http://www.w3.org/2000/svg"
  xmlns:xlink="http://www.w3.org/1999/xlink"
  xmlns:rdf="http://www.w3.org/1999/02/22-rdf-syntax-ns#"
  xmlns:dc="http://purl.org/dc/elements/1.1/"
  xmlns:cc="http://creativecommons.org/ns#"
  viewBox="0 0 982 276"
  width="982"
  height="276"
>
  <title id="HartofDixie_title">The Breeland-Hayes family from Hart of Dixie</title>
  <metadata id="HartofDixie_metadata">
    <rdf:RDF>
      <cc:Work rdf:about="">
        <dc:format>image/svg+xml</dc:format>
        <dc:type rdf:resource="http://purl.org/dc/dcmitype/StillImage" />
        <dc:title>The Breeland family from Hart of Dixie</dc:title>
        <dc:creator>
          <cc:Agent>
            <dc:title>Burge, Dawn M.</dc:title>
          </cc:Agent>
        </dc:creator>
        <dc:language>en-US</dc:language>
        <dc:date>2020-02</dc:date>
      </cc:Work>
    </rdf:RDF>
  </metadata>
  <style id="Family_styles" type="text/css">
    @import url(../../../../css/family_tree.css);
    g.deceased.male   rect { fill: url(#m_dead); }
    g.deceased.female rect { fill: url(#f_dead); }
  </style>
  <defs id="Family_defs">
    <radialGradient id="m_dead">
      <stop id="stop4423" style="stop-color:#ccccff;stop-opacity:0.85;" offset="75%" />
      <stop id="stop4425" style="stop-color:#eeeeff;stop-opacity:0.85;" offset="100%" />
    </radialGradient>
    <radialGradient id="f_dead">
      <stop id="stop4677" style="stop-color:#ffcccc;stop-opacity:0.85;" offset="75%" />
      <stop id="stop4679" style="stop-color:#ffeeee;stop-opacity:0.85;" offset="100%" />
    </radialGradient>
  </defs>
  <!--
    Created in Geany 1.33 (built on 2018-04-16 with GTK 3.22.29, GLib 2.56.1)
  -->
  <g id="HartofDixie" class="graph" transform="translate(5,271)">
    <title>The Breeland-Hayes family from Hart of Dixie</title>
    <text x="486" y="-259" class="chart_title">The Breeland-Hayes family from <tspan style="font-style:italic">Hart of Dixie</tspan></text>

    <g id="Hayes-family1" class="child" transform="translate(158,-208)">
      <title>Hayes siblings</title>
      <path d="m 0,20 h  -38 v 20" id="sibHayes-Shell" />
      <path d="m 0,20 h   38 v 20" id="sibHayes-Earnie" />
      <circle cx="0" cy="20" r="1.5" id="sibHayes"/>
    </g>
    <g id="Breeland-family1" class="child" transform="translate(751,-208)">
      <title>Breeland siblings</title>
      <path d="m 0,0 v 20" id="Betty-sibBreeland" />
      <path d="m 0,20 h  -191 v 20" id="sibBreeland-Bertram" />
      <path d="m 0,20 h   111 v 20" id="sibBreeland-unnamed1" />
      <path d="m 0,20 h   191 v 20" id="sibBreeland-unnamed2" />
      <circle cx="0" cy="20" r="1.5" id="sibBreeland"/>
    </g>

    <g id="Hayes-family2" class="marriage" transform="translate(77,-150)">
      <title>The marriage of Beatrice and Shell Hayes</title>
      <path d="m 0,0 h -19" id="mBeaShe-Beatrice" />
      <path d="m 0,0 h  19" id="mBeaShe-Shell" />
      <g id="HartofDixie_edge19" class="child">
        <title>Lynly Hayes, the daughter of Beatric and Shell Hayes</title>
        <path d="m 0,0 v 58"/>
      </g>
      <circle cx="0" cy="0" r="1.5" id="mBeaShe" />
    </g>
    <g id="Hayes-family3" class="marriage" transform="translate(247,-150)">
      <title>The marriage of Caroline and Earnie Hayes</title>
      <path d="m 0,0 h -19" id="mCarEar-Caroline" />
      <path d="m 0,0 h  19" id="mCarEar-Earnie" />
      <g id="HartofDixie_edge19" class="child">
        <title>Lavon Hayes, the son of Caroline and Earnie Hayes</title>
        <path d="m 0,0 v 114"/>
      </g>
      <circle cx="0" cy="0" r="1.5" id="mCarEar" />
    </g>
    <g id="Byrd-family" class="affair" transform="translate(419,-150)">
      <title>The affair of Shelby Sinclair and Alex Byrd</title>
      <path d="m 0,0 h -19" id="aSheAle-Alex" />
      <path d="m 0,0 h  19" id="aSheAle-Shelby" />
      <g id="HartofDixie_edge19" class="child">
        <title>Ethel, the daughter of Shelby Sinclair and Alex Byrd</title>
        <path d="m 0,0 v 58"/>
      </g>
      <circle cx="0" cy="0" r="1.5" id="aSheAle" />
    </g>
    <g id="Breeland-relationship" class="dating" transform="translate(511,-150)">
      <title>The relationship of Shelby Sinclair and Bertram Breeland</title>
      <path d="m 0,0 h -19" id="dSheBer-Shelby" />
      <path d="m 0,0 h  19" id="dSheBer-Bertran" />
      <circle cx="0" cy="0" r="1.5" id="aSheBer" />
    </g>
    <g id="Breeland-family2" class="marriage" transform="translate(613,-150)">
      <title>The marriage of Alice and Bertram Breeland</title>
      <path d="m 0,0 h -19" id="mAliBer-Bertram" />
      <path d="m 0,0 h  33" id="mAliBer-Alice" />
      <g id="HartofDixie_edge19" class="child">
        <title>Daughters of Alice and Bertram Breeland</title>
        <path d="m 0,0 v 38" id="mAliBer-cAliBer" />
        <path d="m 0,38 h -40 v 76" id="cAliBer-Lemon" />
        <path d="m 0,38 h  40 v 20" id="cAliBer-Magnolia" />
        <circle cx="0" cy="38" r="1.5" id="cAliBer" />
      </g>
      <circle cx="0" cy="0" r="1.5" id="mAliBer" />
    </g>
    <g id="Kincaid-family" class="marriage" transform="translate(733,-150)">
      <title>The marriage of Alice and James Kincaid</title>
      <path d="m 0,0 h -33" id="mAliJam-Alice" />
      <path d="m 0,0 h  19" id="mAliJam-James" />
      <g id="HartofDixie_edge19" class="child">
        <title>Scarlett Kincaid, the daughter of Alice and James Kincaid</title>
        <path d="m 0,0 v 58"/>
      </g>
      <circle cx="0" cy="0" r="1.5" id="mAliJam" />
    </g>

    <g id="Breeland-family3" class="child" transform="translate(862,-132)">
      <title>Jonah Breeland, son of unnamed Breeland (1)</title>
      <path d="m 0,0 v 40" />
    </g>
    <g id="Breeland-family4" class="child" transform="translate(942,-132)">
      <title>Betty Breeland, daughter of unnamed Breeland (2)</title>
      <path d="m 0,0 v 40" />
    </g>

    <g id="Hayes-family4" class="marriage" transform="translate(410,-18)">
      <title>The marriage of Lemon Breeland and Lavon Hayes</title>
      <path d="m 0,0 h -133" id="mLemLav-Lavon" />
      <path d="m 0,0 h  133" id="mLemLav-Lemon" />
      <circle cx="0" cy="0" r="1.5" id="mLemLav" />
    </g>

    <g id="BettyBreeland" class="female" transform="translate(721,-244)">
      <title>Betty Breeland</title>
      <rect x="0" y="0" width="60" height="36" />
      <text x="30" y="12">Betty</text>
      <text x="30" y="24">Breeland</text>
    </g>

    <g id="Beatrice" class="female" transform="translate(0,-168)">
      <title>Caroline</title>
      <rect x="0" y="0" width="58" height="36" />
      <text x="29" y="18">Beatrice</text>
    </g>
    <g id="ShellHayes" class="male" transform="translate(96,-168)">
      <title>Shell Hayes</title>
      <rect x="0" y="0" width="56" height="36" />
      <text x="28" y="12">Shell</text>
      <text x="28" y="24">Hayes</text>
    </g>
    <g id="EarnieHayes" class="male" transform="translate(172,-168)">
      <title>Earnie Hayes</title>
      <rect x="0" y="0" width="56" height="36" />
      <text x="28" y="12">Earnie</text>
      <text x="28" y="24">Hayes</text>
    </g>
    <g id="Caroline" class="female" transform="translate(266,-168)">
      <title>Caroline</title>
      <rect x="0" y="0" width="58" height="36" />
      <text x="29" y="18">Caroline</text>
    </g>
    <g id="AlexByrd" class="male" transform="translate(344,-168)">
      <title>Alex Byrd</title>
      <rect x="0" y="0" width="56" height="36" />
      <text x="28" y="12">Alex</text>
      <text x="28" y="24">Byrd</text>
    </g>
    <g id="ShelbySinclair" class="female" transform="translate(438,-168)">
      <title>Shelby Sinclair</title>
      <rect x="0" y="0" width="54" height="36" />
      <text x="27" y="12">Shelby</text>
      <text x="27" y="24">Sinclair</text>
    </g>
    <g id="BertamBreeland" class="male main" transform="translate(530,-168)">
      <title>Bertam Breeland</title>
      <rect x="0" y="0" width="64" height="38" />
      <text x="32" y="8">Bertram</text>
      <text x="32" y="20">Breeland</text>
      <text x="32" y="32" class="nickname">(Brick)</text>
    </g>
    <g id="Alice" class="female" transform="translate(646,-168)">
      <title>Alice</title>
      <rect x="0" y="0" width="54" height="36" />
      <text x="27" y="18">Alice</text>
    </g>
    <g id="JamesKincaid" class="male" transform="translate(752,-168)">
      <title>James Kincaid</title>
      <rect x="0" y="0" width="60" height="36" />
      <text x="30" y="12">James</text>
      <text x="30" y="24">Kincaid</text>
    </g>
    <g id="unnamedBreeland1" class="male unnamed" transform="translate(832,-168)">
      <title>unnamed Breeland</title>
      <rect x="0" y="0" width="60" height="36" />
      <text x="30" y="12">unnamewd</text>
      <text x="30" y="24">Breeland</text>
    </g>
    <g id="unnamedBreeland2" class="male unnamed" transform="translate(912,-168)">
      <title>unnamed Breeland</title>
      <rect x="0" y="0" width="60" height="36" />
      <text x="30" y="12">unnamewd</text>
      <text x="30" y="24">Breeland</text>
    </g>

    <g id="LynlyHayes" class="female" transform="translate(47,-92)">
      <title>Lynly Hayes</title>
      <rect x="0" y="0" width="60" height="36" />
      <text x="30" y="12">Lynly</text>
      <text x="30" y="24">Hayes</text>
    </g>
    <g id="Ethel" class="female" transform="translate(392,-92)">
      <title>Ethel</title>
      <rect x="0" y="0" width="54" height="36" />
      <text x="27" y="18">Ethel</text>
    </g>
    <g id="Magnolia Breeland" class="female" transform="translate(623,-92)">
      <title>Magnolia Breeland</title>
      <rect x="0" y="0" width="60" height="36" />
      <text x="30" y="12">Magnolia</text>
      <text x="30" y="24">Breeland</text>
    </g>
    <g id="ScarlettKincaid " class="female" transform="translate(703,-92)">
      <title>Scarlett Kincaid</title>
      <rect x="0" y="0" width="60" height="36" />
      <text x="30" y="12">Scarlett</text>
      <text x="30" y="24">Kincaid</text>
    </g>
    <g id="JonahBreeland" class="male" transform="translate(832,-92)">
      <title>Jonah Breeland</title>
      <rect x="0" y="0" width="60" height="36" />
      <text x="30" y="12">Jonah</text>
      <text x="30" y="24">Breeland</text>
    </g>
    <g id="BettyBreeland" class="female" transform="translate(912,-92)">
      <title>Betty Breeland</title>
      <rect x="0" y="0" width="60" height="36" />
      <text x="30" y="12">Betty</text>
      <text x="30" y="24">Breeland</text>
    </g>

    <g id="LavonHayes" class="male main" transform="translate(217,-36)">
      <title>Lavon Hayes</title>
      <rect x="0" y="0" width="60" height="36" />
      <text x="30" y="12">Lavon</text>
      <text x="30" y="24">Hayes</text>
    </g>
    <g id="LemonBreeland" class="female main" transform="translate(543,-36)">
      <title>Lemon Breeland</title>
      <rect x="0" y="0" width="60" height="36" />
      <text x="30" y="12">Lemon</text>
      <text x="30" y="24">Breeland</text>
    </g>
  </g>
</svg>