<?xml version="1.0" encoding="UTF-8" standalone="no"?>
<?xml-stylesheet href="../../../../css/family_tree.css" type="text/css"?>
<svg
  xmlns="http://www.w3.org/2000/svg"
  xmlns:xlink="http://www.w3.org/1999/xlink"
  xmlns:rdf="http://www.w3.org/1999/02/22-rdf-syntax-ns#"
  xmlns:dc="http://purl.org/dc/elements/1.1/"
  xmlns:cc="http://creativecommons.org/ns#"
  viewBox="0 0 1162 373"
  width="1162"
  height="373"
  >
  <title id="HartofDixie_title">The Wilkes-Hart-Kinsella family from Hart of Dixie</title>
  <metadata id="HartofDixie_metadata">
    <rdf:RDF>
      <cc:Work rdf:about="">
        <dc:format>image/svg+xml</dc:format>
        <dc:type rdf:resource="http://purl.org/dc/dcmitype/StillImage" />
        <dc:title>The Wilkes-Hart-Kinsella family from Hart of Dixie</dc:title>
        <dc:creator>
          <cc:Agent>
            <dc:title>Burge, Dawn M.</dc:title>
          </cc:Agent>
        </dc:creator>
        <dc:language>en-US</dc:language>
        <dc:date>2020-02</dc:date>
      </cc:Work>
    </rdf:RDF>
  </metadata>
  <style id="Family_styles" type="text/css">
    @import url(../../../../css/family_tree.css);
    g.deceased.male   rect { fill: url(#m_dead); }
    g.deceased.female rect { fill: url(#f_dead); }
  </style>
  <defs id="Family_defs">
    <radialGradient id="m_dead">
      <stop id="stop4423" style="stop-color:#ccccff;stop-opacity:0.85;" offset="75%" />
      <stop id="stop4425" style="stop-color:#eeeeff;stop-opacity:0.85;" offset="100%" />
    </radialGradient>
    <radialGradient id="f_dead">
      <stop id="stop4677" style="stop-color:#ffcccc;stop-opacity:0.85;" offset="75%" />
      <stop id="stop4679" style="stop-color:#ffeeee;stop-opacity:0.85;" offset="100%" />
    </radialGradient>
  </defs>
  <!--
    Generated by graphviz version 2.40.1 (20161225.0304)
    Edited with Geany 1.33 (built on 2018-04-16 with GTK 3.22.29, GLib 2.56.1)
  -->
  <g id="HartofDixie" class="graph" transform="translate(5,367)">
    <title>The Wilkes-Hart-Kinsella family from Hart of Dixie</title>
    <text x="512" y="-355" class="chart_title">The Wilkes-Hart-Kinsella family from <tspan style="font-style:italic">Hart of Dixie</tspan></text>
    <g id="HartofDixie_edge1" class="child" transform="translate(351,-304)">
      <title>The children of Clair Wilkes</title>
      <path d="m 0,0 v 20" id="ClairWilkes-cClair" />
      <path d="m 0,20 h -223 v 20" id="cClair-Vernon" />
      <path d="m 0,20 h  -20 v 20" id="cClair-Jacob" />
      <path d="m 0,20 h   59 v 20" id="cClair-Maureen" />
      <path d="m 0,20 h  144 v 20" id="cClair-Winifred" />
      <path d="m 0,20 h  225 v 20" id="cClair-Harley" />
      <circle cx="0" cy="20" r="1.5" id="cClair"/>
    </g>

    <g id="HartofDixie_edge7" class="marriage" transform="translate(77,-246)">
      <title>The marriage of Sylvia and Vernon Wilkes</title>
      <path d="m 0,0 h -19" id="mSylVer-Sylvia" />
      <path d="m 0,0 h  19" id="mSylVer-Vernon" />
      <circle cx="0" cy="0" r="1.5" id="mSylVer" />
    </g>
    <g id="HartofDixie_edge7" class="marriage" transform="translate(175,-246)">
      <title>The marriage of Margaret-May and Vernon Wilkes</title>
      <path d="m 0,0 h -19" id="mSylVer-Margaret-May" />
      <path d="m 0,0 h  19" id="mSylVer-Vernon" />
      <g id="HartofDixie_edge11" class="child">
        <title>unnamed son of Vernon Wilkes</title>
        <path d="m 0,0 v 58" />
      </g>
      <circle cx="0" cy="0" r="1.5" id="mSylVer" />
    </g>

    <g id="HartofDixie_edge9" class="child" transform="translate(31,-228)">
      <title>unnamed child of Sylvia</title>
      <path d="m 0,0 v 40" />
    </g>

    <g id="HartofDixie_edge17" class="affair" transform="translate(623,-208)">
      <title>The affair of Candice and Harley Wilkes</title>
      <path d="m 0,0 h -10 l -9,-38" id="aCanHar-Harley" />
      <path d="m 0,0 h  10 l  9, 38" id="aCanHar-Candice" />
      <g id="HartofDixie_edge19" class="child">
        <title>Zoe Hart, the daughter of Candice and Harley Wilkes</title>
        <path d="m 0,0 v 96"/>
      </g>
      <circle cx="0" cy="0" r="1.5" id="aCanHar" />
    </g>

    <g id="HartofDixie_edge15" class="child" transform="translate(31,-152)">
      <title>Joel Stevens, son of the unnamed child of Sylvia</title>
      <path d="m 0,0 v 40" />
    </g>
    <g id="HartofDixie_edge16" class="child" transform="translate(175,-152)">
      <title>Vivian and Winnie Wilkes, daughters of the unnamed son of Vernon Wilkes</title>
      <path d="m 0,0 v 20" id="unnamed-daughters" />
      <path d="m 0,20 h -38 v 20" id="unnamed-Vivian" />
      <path d="m 0,20 h  38 v 20" id="unnamed-Winnie" />
      <circle cx="0" cy="20" r="1.5" id="cunnamedWilkes" />
    </g>

    <g id="Hart-family" class="marriage" transform="translate(721,-170)">
      <title>The marriage of Candice and Ethan Hart</title>
      <path d="m 0,0 h -19" id="mCanEth-Candice" />
      <path d="m 0,0 h  19" id="mCanEth-Ethan" />
      <circle cx="0" cy="0" r="1.5" id="mCanEth" />
    </g>
    <g id="HartofDixie_edge23" class="marriage" transform="translate(920,-170)">
      <title>The marriage of Jacqualine and Earl Kinsella</title>
      <path d="m 0,0 h -19" id="mJacEar-Jacqueline" />
      <path d="m 0,0 h  19" id="mJacEar-Earl" />
      <g id="HartofDixie_edge25" class="child">
        <title>Children of Jacqualine and Earl Kinsella</title>
        <path d="m 0,0 v 38" id="mJacEar-cJacEar" />
        <path d="m 0,38 h -201 v 20" id="cJacEar-Wade"/>
        <path d="m 0,38 h  201 v 20" id="cJacEar-Jesse" />
        <circle cx="0" cy="38" r="1.5" id="cJacEar" />
      </g>
      <circle cx="0" cy="0" r="1.5" id="mJacEar" />
    </g>
    <g id="HartofDixie_edge28" class="dating" transform="translate(1020,-170)">
      <title>The relationship of Mae Ellen Waterloo and Earl Kinsella</title>
      <path d="m 0,0 h -19" id="dMaeEar-Earl" />
      <path d="m 0,0 h  19" id="dMaeEar-Mae" />
      <circle cx="0" cy="0" r="1.5" id="dMaeEar" />
    </g>


    <g id="Truitt-family" class="child" transform="translate(927,-122)">
      <title>Truitt siblings</title>
      <path d="m 0,0 h -112 v 10" id="sibTruitt-Tansey" />
      <path d="m 0,0 h  -38 v 10" id="sibTruitt-Randy" />
      <path d="m 0,0 h   36 v 10" id="sibTruitt-Rocket" />
      <path d="m 0,0 h  112 v 10" id="sibTruitt-Chicken" />
      <circle cx="0" cy="0" r="1.5" id="sibTruitt" />
    </g>

    <g id="HartofDixie_edge40" class="marriage" transform="translate(260,-94)">
      <title>The marriage of Vivian Wilkes and Charles</title>
      <path d="m 0,0 h -19" id="mVivCha-Vivian" />
      <path d="m 0,0 h 19" id="mVivCha-Charles" />
      <g id="HartofDixie_edge42" class="child">
        <title>Harley, son of Vivian Wilkes and Charles</title>
        <path d="m 0,0 v 58"/>
      </g>
      <circle cx="0" cy="0" r="1.5" id="mVivCha" />
    </g>
    <g id="HartofDixie_edge36" class="marriage" transform="translate(669,-94)">
      <title>The marriage of Zoe Hart and Wade Kinsella</title>
      <path d="m 0,0 h -19" id="mZoeWad-Zoe" />
      <path d="m 0,0 h  19" id="mZoeWad-Wade" />
      <g id="HartofDixie_edge38" class="child">
        <title>unnamed child of Zoe Hart and Wade Kinsella</title>
        <path d="m 0,0 v 58" id="mZoeWad-unnamed" />
      </g>
    <circle cx="0" cy="0" r="1.5" id="mZoeWad" />
    </g>
    <g id="HartofDixie_edge34" class="marriage" transform="translate(769,-94)">
      <title>The marriage of Tansy Truitt and Wade Kinsella</title>
      <path d="m 0,0 h -19" id="mTanWad-Wade"/>
      <path d="m 0,0 h  19" id="mTanWad-Tansy" />
      <circle cx="0" cy="0" r="1.5" id="mTanWad" />
    </g>

    <g id="ClairWilkes" class="female deceased" transform="translate(323,-340)">
      <title>Clair Wilkes</title>
      <rect x="0" y="0" width="56" height="36" />
      <text x="28" y="12">Clair</text>
      <text x="28" y="24">Wilkes</text>
    </g>

    <g id="Sylvia" class="female" transform="translate(4,-264)">
      <title>Sylvia</title>
      <rect x="0" y="0" width="54" height="36" />
      <text x="27" y="18">Sylvia</text>
    </g>
    <g id="VernonWilkes" class="male" transform="translate(96,-265)">
      <title>Vernon Wilkes</title>
      <rect x="0" y="0" width="60" height="38" />
      <text x="30" y="8">Vernon</text>
      <text x="30" y="20">Wilkes</text>
      <text x="30" y="32" class="nickname">(Brando)</text>
    </g>
    <g id="MargaretMay" class="female deceased" transform="translate(194,-264)">
      <title>Margaret-May</title>
      <rect x="0" y="0" width="90" height="36" />
      <text x="45" y="18">Margaret-May</text>
    </g>
    <g id="JacobWilkes" class="male deceased" transform="translate(304,-264)">
      <title>Jacob Wilkes</title>
      <rect x="0" y="0" width="54" height="36" />
      <text x="27" y="12">Jacob</text>
      <text x="27" y="24">Wilkes</text>
    </g>
    <g id="MaureenWilkes" class="female" transform="translate(378,-264)">
      <title>Maureen Wilkes</title>
      <rect x="0" y="0" width="64" height="36" />
      <text x="32" y="12">Maureen</text>
      <text x="32" y="24">Wilkes</text>
    </g>
    <g id="WinifredWilkes" class="female" transform="translate(462,-264)">
      <title>Winifred Wilkes</title>
      <rect x="0" y="0" width="66" height="36" />
      <text x="33" y="12">Winifred</text>
      <text x="33" y="24">Wilkes</text>
    </g>
    <g id="HarleyWilkes" class="male deceased" transform="translate(548,-264)">
      <title>Harley Wilkes</title>
      <rect x="0" y="0" width="56" height="36" />
      <text x="28" y="12">Harley</text>
      <text x="28" y="24">Wilkes</text>
    </g>

    <g id="unnamedchiSyl" class="neuter unnamed" transform="translate(2,-188)">
      <title>unnamed child of Sylvia</title>
      <rect x="0" y="0" width="56" height="36" />
      <text x="28" y="18">unnamed</text>
    </g>
    <g id="unnamedWilkes" class="male unnamed" transform="translate(147,-188)">
      <title>unnamed son of Vernon Wilkes</title>
      <rect x="0" y="0" width="56" height="36" />
      <text x="28" y="12">unnamed</text>
      <text x="28" y="24">Wilkes</text>
    </g>
    <g id="Candice" class="female" transform="translate(642,-188)">
      <title>Candice</title>
      <rect x="0" y="0" width="60" height="36" />
      <text x="30" y="18">Candice</text>
    </g>
    <g id="EthanHart" class="male" transform="translate(740,-188)">
      <title>Ethan Hart</title>
      <rect x="0" y="0" width="54" height="36" />
      <text x="27" y="12">Ethan</text>
      <text x="27" y="24">Hart</text>
    </g>
    <g id="Jacqueline" class="female deceased" transform="translate(827,-188)">
      <title>Jacqueline</title>
      <rect x="0" y="0" width="74" height="36" />
      <text x="37" y="18">Jacqueline</text>
    </g>
    <g id="EarlKinsella" class="male" transform="translate(939,-188)">
      <title>Earl Kinsella</title>
      <rect x="0" y="0" width="62" height="36" />
      <text x="31" y="12">Earl</text>
      <text x="31" y="24">Kinsella</text>
    </g>
    <g id="MaeEllenWaterloo" class="female" transform="translate(1039,-188)">
      <title>Mae Ellen Waterloo</title>
      <rect x="0" y="0" width="68" height="36" />
      <text x="34" y="8">Mae</text>
      <text x="34" y="18">Ellen</text>
      <text x="34" y="30">Waterloo</text>
    </g>

    <g id="JoelStevens" class="male" transform="translate(0,-112)">
      <title>Joel Stevens</title>
      <rect x="0" y="0" width="58" height="36" />
      <text x="29" y="12">Joel</text>
      <text x="29" y="24">Stevens</text>
    </g>
    <g id="WinnieWilkes" class="female" transform="translate(109-112)">
      <title>Winnie Wilkes</title>
      <rect x="0" y="0" width="56" height="36" />
      <text x="28" y="12">Winnie</text>
      <text x="28" y="24">Wilkes</text>
    </g>
    <g id="VivianWilkes" class="female" transform="translate(185-112)">
      <title>Vivian Wilkes</title>
      <rect x="0" y="0" width="56" height="36" />
      <text x="28" y="12">Vivian</text>
      <text x="28" y="24">Wilkes</text>
    </g>
    <g id="Charles" class="male" transform="translate(279,-112)">
      <title>Charles</title>
      <rect x="0" y="0" width="54" height="36" />
      <text x="27" y="18">Charles</text>
    </g>
    <g id="ZoeHart" class="female main" transform="translate(596,-112)">
      <title>Zoe Hart</title>
      <rect x="0" y="0" width="54" height="36" />
      <text x="27" y="12">Zoe</text>
      <text x="27" y="24">Hart</text>
    </g>
    <g id="WadeKinsella" class="male main" transform="translate(688,-112)">
      <title>Wade Kinsella</title>
      <rect x="0" y="0" width="62" height="36" />
      <text x="31" y="12">Wade</text>
      <text x="31" y="24">Kinsella</text>
    </g>
    <g id="TansyTruitt" class="female" transform="translate(788,-112)">
      <title>Tansy Truitt</title>
      <rect x="0" y="0" width="54" height="36" />
      <text x="27" y="12">Tansy</text>
      <text x="27" y="24">Truitt</text>
    </g>
    <g id="RandyTruitt" class="male" transform="translate(862,-112)">
      <title>Randy Truitt</title>
      <rect x="0" y="0" width="54" height="36" />
      <text x="27" y="12">Randy</text>
      <text x="27" y="24">Truitt</text>
    </g>
    <g id="RocketTruitt" class="male" transform="translate(936,-112)">
      <title>Rocket Truitt</title>
      <rect x="0" y="0" width="54" height="36" />
      <text x="27" y="12">Rocket</text>
      <text x="27" y="24">Truitt</text>
    </g>
    <g id="ChickenTruitt" class="male" transform="translate(1010,-112)">
      <title>Chicken Truitt</title>
      <rect x="0" y="0" width="58" height="36" />
      <text x="29" y="12">Chicken</text>
      <text x="29" y="24">Truitt</text>
    </g>
    <g id="JesseKinsella" class="male" transform="translate(1090,-112)">
      <title>Jesse Kinsella</title>
      <rect x="0" y="0" width="62" height="36" />
      <text x="31" y="12">Jesse</text>
      <text x="31" y="24">Kinsella</text>
    </g>

    <g id="Harley" class="male" transform="translate(233,-36)">
      <title>Harley</title>
      <rect x="0" y="0" width="54" height="36" />
      <text x="27" y="18">Harley</text>
    </g>
    <g id="unnamedHartKinsella" class="male unnamed" transform="translate(628,-36)">
      <title>unnamed son of Zoe Hart and Wade Kinsella</title>
      <rect x="0" y="0" width="82" height="36" />
      <text x="41" y="12">unnamed</text>
      <text x="41" y="24">Hart&#45;Kinsella</text>
    </g>
  </g>
</svg>