<?xml version="1.0" encoding="UTF-8" standalone="no"?>
<svg
  xmlns="http://www.w3.org/2000/svg"
  xmlns:svg="http://www.w3.org/2000/svg"
  xmlns:cc="http://creativecommons.org/ns#"
  xmlns:dc="http://purl.org/dc/elements/1.1/"
  xmlns:rdf="http://www.w3.org/1999/02/12-rdf-syntax-ns#"
  xmlns:inkscape="http://www.inkscape.org/namespaces/inkscape"
  xmlns:sodipodi="http://sodipodi.sourceforge.net/DTD/sodipodi-0.dtd"
  viewBox="0 0 1551 2305"
  width="1551"
  height="2305"
  id="Genres_image"
>
  <title id="Genres_title">Map of fictional genres</title>
  <desc id="Genres_description">A chart mapping fictional genres</desc>
  <metadata id="Genres_metadata">
    <rdf:RDF>
     <cc:Work rdf:about="">
       <dc:format>image/svg+xml</dc:format>
       <dc:type rdf:resource="http://purl.org/dc/dcmitype/StillImage" />
       <dc:title>Map of fictional genres</dc:title>
       <dc:creator>
        <cc:Agent>
          <dc:title>Burge, Dawn M.</dc:title>
        </cc:Agent>
       </dc:creator>
        <dc:language>en-US</dc:language>
        <dc:date>2019-08</dc:date>
     </cc:Work>
    </rdf:RDF>
  </metadata>
  <style id="Genres_styles" type="text/css">
    rect, path, text { stroke-width: 1; stroke-opacity: 1; }
    rect, path { stroke: #027; }
    rect       { paint-order: stroke; fill: #ffffff; fill-opacity: 0.5; stroke-width: 2; }
    text       { fill-opacity: 1; text-anchor: middle; dominant-baseline: middle; font-family: arial, sans-serif; font-size: 12px; fill: #006; }
    path       { fill: none; }
    path.dash  { stroke-dasharray: 3, 2; }
  </style>
  <g transform="translate(5,5)">
    <title>Map of fictional genres</title>
    <g transform="translate( 120,  15)" id="Fictions">
      <path d="m  0,   0 h  20 v 1110" id="Fiction_to" />
      <path d="m 20,   0 h  20" id="Fiction_to_Crime" />
      <path d="m 20, 135 h  60" id="Fiction_to_Drama" />
      <path d="m 20, 405 h 100" id="Fiction_to_Comedy" />
      <path d="m 20, 540 h  20" id="Fiction_to_Romance" />
      <path d="m 20, 585 h  60" id="Fiction_to_Tragedy" />
      <path d="m 20, 630 h 100" id="Fiction_to_Satire" />
      <path d="m 20, 675 h  60" id="Fiction_to_Erotica" />
      <path d="m 20, 720 h  60" id="Fiction_to_Thriller" />
      <path d="m 20, 765 h 100" id="Fiction_to_Historical" />
      <path d="m 20, 885 h  60" id="Fiction_to_Speculative" />
      <path d="m 20,1020 h 100" id="Fiction_to_Western" />
      <path d="m 20,1065 h  60" id="Fiction_to_Action" />
      <path d="m 20,1110 h  60" id="Fiction_to_Adventure" />
    </g>
    <g transform="translate( 180)" id="Romance_connectors">
      <path d="m 0, 570 v 1245" id="Romance_and_other_connector" class="dash" />
      <path d="m 0,1665 h 440 v -270" id="Romance_and_Fantasy_connector" class="dash" />
      <path d="m 0,1815 h 440 v   45" id="Romance_and_Horror_connector" class="dash" />
    </g>
    <g transform="translate( 260, 240)" id="Documentary_Dramas">
      <path d="m  0, 0 h 60 v 45" id="Documentary_and_Drama_to" />
      <path d="m 60, 0 h 20" id="Documentary_and_Drama_to_Docudrama" />
      <path d="m 60,45 h 20" id="Documentary_and_Drama_to_Biopic" />
    </g>
    <g transform="translate( 280,  15)" id="Crimes">
      <path d="m  0, 0 h 20 v 45" id="Crime_to" />
      <path d="m 20, 0 h 20" id="Crime_to_Detective_fiction" />
      <path d="m 20,45 h 20" id="Crime_to_Whodunit" />
    </g>
    <g transform="translate( 340, 600)" id="Comedy_Satires">
      <path d="m  0, 0 h 40 v 45" id="Comedy_and_Satire_to" />
      <path d="m 40, 0 h 20" id="Comedy_and_Satire_to_Black_comedy" />
      <path d="m 40,45 h 20" id="Comedy_and_Satire_to_Parody" />
    </g>
    <g transform="translate( 320, 900)" id="Speculative_fictions">
      <path d="m   0,   0 h 220 v 1290" id="Speculative_fiction_to" />
      <path d="m 220,   0 h  60" id="Speculative_fiction_to_Science_fiction" />
      <path d="m 220, 420 h 100" id="Speculative_fiction_to_Punk" />
      <path d="m 220, 480 h  20" id="Speculative_fiction_to_Fantasy" />
      <path d="m 220, 975 h  60" id="Speculative_fiction_to_Horror" />
      <path d="m 220,1245 h  20" id="Speculative_fiction_to_Disaster" />
      <path d="m 220,1290 h  20" id="Speculative_fiction_to_Superhero" />
    </g>
    <g transform="translate( 360,1035)" id="Westerns">
      <path d="m  0,   0 h 20 v 1200" id="Western_to" />
      <path d="m 20,   0 h 20" id="Western_to_Classic" />
      <path d="m 20,  45 h 20" id="Western_to_Contemporary" />
      <path d="m 20,  90 h 20" id="Western_to_Epic" />
      <path d="m 20, 135 h 20" id="Western_to_Shoot_em_up" />
      <path d="m 20, 180 h 20" id="Western_to_Singing_cowboy" />
      <path d="m 20, 225 h 20" id="Western_to_Acid" />
      <path d="m 20,1200 h 20" id="Western_to_Spaghetti" />
    </g>
    <g transform="translate( 520,2235)" id="Spaghetti_Westerns">
      <path d="m  0, 0 h 20 v 45" id="Spaghetti_Western_to" />
      <path d="m 20, 0 h 20" id="Spaghetti_Western_to_Ostern" />
      <path d="m 20,45 h 20" id="Spaghetti_Western_to_Curry" />
    </g>
    <g transform="translate( 660, 945)" id="Science_fiction_Westerns">
      <path d="m   0, 0 h 100 v 45" id="Science_fiction_and_Western_to" />
      <path d="m 100, 0 h  20" id="Science_fiction_and_Western_to_Science_fiction_Western" />
      <path d="m 100,45 h  20" id="Science_fiction_and_Western_to_Space_Western" />
    </g>
    <g transform="translate( 660,1695)" id="Fantasy_Horrors">
      <path d="m  0, 0 h 60 v 45" id="Fantasy_and_Horror_to" />
      <path d="m 60, 0 h 20" id="Fantasy_and_Horror_to_Supernatural_fiction" />
      <path d="m 60,45 h 20" id="Fantasy_and_Horror_to_Dark_fantasy" />
    </g>
    <g transform="translate( 680,1380)" id="Fantasies">
      <path d="m  0,  0 h 40 v  225" id="Fantasy_to" />
      <path d="m 40,  0 h 20" id="Fantasy_to_High_fantasy" />
      <path d="m 40, 45 h 20" id="Fantasy_to_Heroic" />
      <path d="m 40, 90 h 20" id="Fantasy_to_Fairytale" />
      <path d="m 40,135 h 20" id="Fantasy_to_Contemporary" />
      <path d="m 40,180 h 20" id="Fantasy_to_Low" />
      <path d="m 40,225 h 20" id="Fantasy_to_Sword_and_sorcery" />
    </g>
    <g transform="translate( 680,2145)" id="Disasters">
      <path d="m  0, 0 h 20 v 45" id="Disaster_to_" />
      <path d="m 20, 0 h 20" id="Disaster_to_Doomsday" />
      <path d="m 20,45 h 20" id="Disaster_to_Apocalyptic" />
    </g>
    <g transform="translate( 700,1260)" id="Science_fiction_Punks">
      <path d="m   0, 0 h 240 v 90" id="Science_fiction_and_Punk_to" />
      <path d="m 240, 0 h  20" id="Science_fiction_and_Punk_to_Cyberpunk" />
      <path d="m 240,45 h  20" id="Science_fiction_and_Punk_to_Biopunk" />
      <path d="m 240,90 h  20" id="Science_fiction_and_Punk_to_Retrofuturism" />
    </g>
    <g transform="translate( 720,1875)" id="Horrors">
      <path d="m   0,  0 h 100 v 225" id="Horror_to" />
      <path d="m 100,  0 h  20" id="Horror_to_Personality" />
      <path d="m 100, 45 h  20" id="Horror_to_Psychological" />
      <path d="m 100, 90 h  20" id="Horror_to_Body" />
      <path d="m 100,135 h  20" id="Horror_to_Slasher" />
      <path d="m 100,225 h  20" id="Horror_to_Splatter" />
    </g>
    <g transform="translate( 880,1035)" id="Science_fantasies">
      <path d="m  0,  0 h 20 v 135" id="Science_fantasy_to" />
      <path d="m 20,  0 h 20" id="Science_fantasy_to_Planetary_romance" />
      <path d="m 20, 45 h 20" id="Science_fantasy_to_Dying_Earth" />
      <path d="m 20, 90 h 20" id="Science_fantasy_to_Sword_and_planet" />
      <path d="m 20,135 h 20" id="Science_fantasy_to_Space_opera" />
    </g>
    <g transform="translate( 860,1515)" id="Contemporary_fantasies">
      <path d="m  0, 0 h 20 v 45" id="Contemporary_fantasy_to" />
      <path d="m 20, 0 h 20" id="Contemporary_fantasy_to_Elfpunk" />
      <path d="m 20,45 h 20" id="Contemporary_fantasy_to_Urban_fantasy" />
    </g>
    <g transform="translate( 860,1695)" id="Supernatural_fictions">
      <path d="m  0, 0 h 20 v 45" id="Supernatural_ficition_to" />
      <path d="m 20, 0 h 20" id="Supernatural_fiction_to_Ghost_story" />
      <path d="m 20,45 h 20" id="Supernatural_fiction_to_Fantastique" />
    </g>
    <g transform="translate( 900, 900)" id="Social_science_fictions">
      <path d="m  0, 0 h 20 v 90" id="Social_science_fiction_to" />
      <path d="m 20, 0 h 20" id="Social_science_fiction_to_Utopica" />
      <path d="m 20,45 h 20" id="Social_science_fiction_to_Dystopia" />
      <path d="m 20,90 h 20" id="Social_science_fiction_to_Ecotopia" />
    </g>
    <g transform="translate(1080,1260)" id="Cyberpunks">
      <path d="m  0, 0 h 20 v 45" id="Cyberpunk_to" />
      <path d="m 20, 0 h 20" id="Cyberpunk_to_Postcyberpunk" />
      <path d="m 20,45 h 20" id="Cyberpunk_to_Cyberprep" />
    </g>
    <g transform="translate(1080,1350)" id="Retrofuturisms">
      <path d="m  0,  0 h 80 v 315" id="Retrofuturism_to" />
      <path d="m 80,  0 h 20" id="Retrofuturism_to_Dieselpunk" />
      <path d="m 80, 90 h 20" id="Retrofuturism_to_Clockpunk" />
      <path d="m 80,180 h 20" id="Retrofuturism_to_Raypunk" />
      <path d="m 80,225 h 20" id="Retrofuturism_to_Rococopunk" />
      <path d="m 80,270 h 20" id="Retrofuturism_to_Steampunk" />
      <path d="m 80,315 h 20" id="Retrofuturism_to_Steelpunk" />
    </g>
    <g transform="translate(1300,1440)" id="Clockpunks">
      <path d="m   0, 0 h 100 v 90" id="Clockpunk_to" />
      <path d="m 100, 0 h 20" id="Clockpunk_to_Nowpunk" />
      <path d="m 100,45 h 20" id="Clockpunk_to_Stonepunk" />
      <path d="m 100,90 h 20" id="Clockpunk_to_Teslapunk" />
    </g>
    <path d="m   60, 270 v  -15 h  200 v -90" id="Documentary_and_Drama_connector" class="dash" />
    <path d="m   60, 300 v   15 h  200 v  90" id="Documentary_and_Comedy_connector" class="dash" />
    <path d="m  220, 165 v  375" id="Drama_and_Romance_connector" class="dash" />
    <path d="m  220, 465 h  140" id="Drama_and_Romance_to_Romantic_drama" />
    <path d="m  260,  30 v  105" id="Crime_and_Drama_connector" class="dash" />
    <path d="m  260, 105 h   40" id="Crime_and_Drama_to_Legal" />
    <path d="m  260, 375 h   80" id="Documentary_and_Comedy_to_Mockumentary" />
    <path d="m  260, 435 v  105" id="Comedy_and_Romance_connector" class="dash" />
    <path d="m  260, 510 h  100" id="Comedy_and_Romance_to_Romantic_comedy" />
    <path d="m  260, 795 v   90" id="Historical_and_Speculative_fiction_connector" class="dash" />
    <path d="m  260, 855 h   20" id="Historical_and_Speculative_to_Alternate_history" />
    <path d="m  260, 915 v  105" class="dash" id="Speculative_fiction_and_Western_connector" />
    <path d="m  260, 930 h  100" id="Speculative_fiction_and_Western_to_Weird_West" />
    <path d="m  300, 165 v  240" id="Drama_and_Comedy_connector" class="dash" />
    <path d="m  300, 330 h   40" id="Drama_and_Comedy_to_Dramedy" />
    <path d="m  300, 435 v  150" id="Comedy_and_Tragedy_connector" class="dash" />
    <path d="m  300, 555 h   60" id="Comedy_and_Tragedy_to_Tragicomedy" />
    <path d="m  300, 795 v   30 h  280 v 540" id="Historical_and_Fantasy_connector" class="dash" />
    <path d="m  320, 150 h   20" id="Drama_to_Soap_opera" />
    <path d="m  320, 690 h   20" id="Erotica_to_Pornography" />
    <path d="m  320, 735 h   20" id="Thriller_to_Spy_fiction" />
    <path d="m  340, 435 v  195" id="Comedy_and_Satire_connector" class="dash" />
    <path d="m  340, 795 v   15 h  400  v 495" id="Historical_and_Punk_connector" class="dash" />
    <path d="m  340, 870 v  150" class="dash" id="Alternate_history_and_Western_connector" />
    <path d="m  340, 975 h   20" id="Alternate_history_and_Western_to Revisionist_Western" />
    <path d="m  360, 420 h   20" id="Comedy_to_Situation" />
    <path d="m  400, 165 v   60" id="Soap_opera_and_Docudrama_connector" class="dash" />
    <path d="m  400, 195 h   20" id="Soap_opera_and_Docudrama_to_Reality" />
    <path d="m  400, 750 v   15 h  260 v 120" id="Spy_to_Science_fiction_connector" class="dash" />
    <path d="m  440,  15 h   20" id="Detective_to_Police_procedural" />
    <path d="m  580,1215 h  180" id="Historical_and_Fantasy_to_Historical_fantasy" />
    <path d="m  620, 915 v  450" id="Science_fiction_and_Fantasy_connector" class="dash"  />
    <path d="m  620,1035 h  140" id="Science_fiction_and_Fantasy_to_Science_fantasy" />
    <path d="m  620,1650 h  120" id="Romance_and_Fantasy_to_Romantic_fantasy" />
    <path d="m  620,1830 h  120" id="Romance_and_Horror_to_Gothic_fiction" />
    <path d="m  660, 780 h   20" id="Spy_and_Science_fiction_to_Spy_fi" />
    <path d="m  660, 915 v   90 h -360 v 15" id="Science_fiction_and_Western_connector" class="dash" />
    <path d="m  660,1395 v  465" id="Fantasy_and_Horror_connector" class="dash" />
    <path d="m  660,1890 v  240" id="Horror_and_Disaster_connector" class="dash" />
    <path d="m  660,2010 h   20" id="Horror_and_Disaster_to_Eco_horror" />
    <path d="m  700, 915 v  390" id="Science_fiction_and_Punk_connector" class="dash" />
    <path d="m  700,1335 v  525" id="Punk_and_Horror_connector" class="dash" />
    <path d="m  700,1785 h   40" id="Punk_and_Horror_to_Splatterpunk" />
    <path d="m  720, 900 h   60" id="Science_to_Social_science_fiction" />
    <path d="m  740,1290 h   60" id="Historical_and_Punk_to_Mannerpunk" />
    <path d="m  780,1230 v  135" class="dash" id="Historical_and_High_fantasy_connector" />
    <path d="m  780,1335 h   20" id="Historical_and_High_to_Historical_high_fantasy" />
    <path d="m  840,2190 h   20" id="Apocalyptic_to_Post_apocalyptic" />
    <path d="m  860,1470 h   20" id="Fairytale_to_Mythic_fantasy" />
    <path d="m  880,1215 h   20" id="Historical_to_High_fantasy" />
    <path d="m  900,2025 v   60" id="Slasher_and_Splatter_connector" class="dash" />
    <path d="m  900,2055 h   20" id="Slasher_and_Splatter_to_Torture_porn" />
    <path d="m  980,2190 h   20" id="Post_apocalyptic_to_Cozy_catastrophe" />
    <path d="m 1000,1470 h   20" id="Mythic_fantasy_to_Mythpunk" />
    <path d="m 1040,1170 h   20" id="Space_opera_to_noir" />
    <path d="m 1240,1365 v   60" id="Clockpunk_and_Dieselpunk_connector" class="dash" />
    <path d="m 1240,1395 h   20" id="Clockpunk_and_Dieselpunk_to_Decopunk" />
    <path d="m 1240,1455 v   60" id="Clockpunk_and_Raypunk_connector" class="dash" />
    <path d="m 1240,1485 h   20" id="Clockpunk_and_Raypunk_to_Atompunk" />

    <g transform="translate(   0,   0)" id="Fiction">
      <title id="Fiction_title">Fiction</title>
      <rect x="0"  y="0" width="120" height="30" id="Fiction_box" />
      <text x="60" y="15" id="Fiction_text">Fiction</text>
    </g>
    <g transform="translate(   0, 270)" id="Documentary">
      <title id="Documentary_title">Documentary</title>
      <rect x="0"  y="0" width="120" height="30" id="Documentary_box" />
      <text x="60" y="15" id="Documentary_text">Documentary</text>
    </g>
    <g transform="translate( 160,   0)" id="Crime_fiction">
      <title id="Crime_fiction_title">Crime fiction</title>
      <rect x="0"  y="0" width="120" height="30" id="Crime_fiction_box" />
      <text x="60" y="15" id="Crime_fiction_text">Crime fiction</text>
    </g>
    <g transform="translate( 160, 540)" id="Romance">
      <title id="Romance_title">Romance</title>
      <rect x="0"  y="0" width="120" height="30" id="Romance_box" />
      <text x="60" y="15" id="Romance_text">Romance</text>
    </g>
    <g transform="translate( 200, 135)" id="Drama">
      <title id="Drama">Drama</title>
      <rect x="0"  y="0" width="120" height="30" id="Drama_box" />
      <text x="60" y="15" id="Drama_text">Drama</text>
    </g>
    <g transform="translate( 200, 585)" id="Tragedy">
      <title id="Tradedy_title">Tragedy</title>
      <rect x="0"  y="0"  width="120" height="30" id="Tragedy_box" />
      <text x="60" y="15" id="Tragedy_text">Tragedy</text>
    </g>
    <g transform="translate( 200, 675)" id="Erotica">
      <title id="Erotia_title">Erotica</title>
      <rect x="0"  y="0" width="120" height="30" id="Erotica_box" />
      <text x="60" y="15" id="Erotica_text">Erotica</text>
    </g>
    <g transform="translate( 200, 720)" id="Thriller">
      <title id="Thriller_title">Thriller</title>
      <rect x="0"  y="0" width="120" height="30" id="Thriller_box" />
      <text x="60" y="15" id="Thriller_text">Thriller</text>
    </g>
    <g transform="translate( 200, 885)" id="Speculative_fiction">
      <title id="Speculative_fiction_title">Speculative fiction</title>
      <rect x="0"  y="0" width="120" height="30" id="Speculative_fiction_box" />
      <text x="60" y="15" id="Speculative_fiction_text">
        <tspan x="60" y="8"  id="Speculative_fiction_text_1">Speculative</tspan>
        <tspan x="60" y="22" id="Speculative_fiction_text_2">fiction</tspan>
      </text>
    </g>
    <g transform="translate( 200,1065)" id="Action">
      <title id="Action_title">Action</title>
      <rect x="0"  y="0" width="120" height="30" id="Action_box" />
      <text x="60" y="15" id="Action_text">Action</text>
    </g>
    <g transform="translate( 200,1110)" id="Adventure">
      <title id="Adventure_title">Adventure</title>
      <rect x="0"  y="0" width="120" height="30" id="Adventure_box" />
      <text x="60" y="15" id="Adventure_text">Adventure</text>
    </g>
    <g transform="translate( 240, 405)" id="Comedy">
      <title id="Comedy_title">Comedy</title>
      <rect x="0"  y="0" width="120" height="30" id="Comedy_box" />
      <text x="60" y="15" id="Comedy_text">Comedy</text>
    </g>
    <g transform="translate( 240, 630)" id="Satire">
      <title id="Satire_title">Satire</title>
      <rect x="0"  y="0" width="120" height="30" id="Satire_box" />
      <text x="60" y="15" id="Satire_text">Satire</text>
    </g>
    <g transform="translate( 240, 765)" id="Historical_fiction">
      <title id="Historical_fiction_title">Historical fiction</title>
      <rect x="0"  y="0" width="120" height="30" id="Historical_fiction_box" />
      <text x="60" y="15" id="Historical_fiction_text">Historical fiction</text>
    </g>
    <g transform="translate( 240,1020)" id="Western">
      <title id="Western_title">Western</title>
      <rect x="0"  y="0" width="120" height="30" id="Western_box" />
      <text x="60" y="15" id="Western_text">Western</text>
    </g>
    <g transform="translate( 280, 840)" id="Alternate_history">
      <title id="Alternate_history_title">Alternate history</title>
      <rect x="0"  y="0" width="120" height="30" id="Alternate_history_box" />
      <text x="60" y="15" id="Alternate_history_text">Alternate history</text>
    </g>
    <g transform="translate( 300,  90)" id="Legal_drama">
      <title id="Legal_drama">Legal drama</title>
      <rect x="0"  y="0" width="120" height="30" id="Legal_drama_box" />
      <text x="60" y="15" id="Legal_drama_text">Legal drama</text>
    </g>
    <g transform="translate( 320,   0)" id="Detective_fiction">
      <title id="Detective_fiction_title">Detective fiction</title>
      <rect x="0"  y="0" width="120" height="30" id="Detective_fiction_box" />
      <text x="60" y="15" id="Detective_fiction_text">
        <tspan x="60" y="8"  id="Situation_comedy_text_1">Detective</tspan>
        <tspan x="60" y="22" id="Situation_comedy_text_2">fiction</tspan>
      </text>
    </g>
    <g transform="translate( 320,  45)" id="Whodunit">
      <title id="Whodunit_title">Whodunit</title>
      <rect x="0"  y="0" width="120" height="30" id="Whodunit_box" />
      <text x="60" y="15" id="Whodunit_text">Whodunit</text>
    </g>
    <g transform="translate( 340, 135)" id="Soap_opera">
      <title id="Soap opera">Soap Opera</title>
      <rect x="0"  y="0" width="120" height="30" id="Soap_Opera_box" />
      <text x="60" y="15" id="Soap_opera_text">Soap opera</text>
    </g>
    <g transform="translate( 340, 225)" id="Docudrama">
      <title id="Docudrama">Docudrama</title>
      <rect x="0"  y="0" width="120" height="30" id="Docudrama_box" />
      <text x="60" y="15"  id="Docudrama_text">Docudrama</text>
    </g>
    <g transform="translate( 340, 270)" id="Biopic">
      <title id="Biopic_title">Biopic</title>
      <rect x="0"  y="0" width="120" height="30" id="Biopic_box" />
      <text x="60" y="15" id="Biopic_text">Biopic</text>
    </g>
    <g transform="translate( 340, 315)" id="Dramedy">
      <title id="Dramedy_title">Dramedy</title>
      <rect x="0"  y="0" width="120" height="30" id="Dramedy_box" />
      <text x="60" y="15" id="Comedy_drama_text">
        <tspan x="60" y="8"  id="Comedy_drama_text_1">Comedy-drama</tspan>
        <tspan x="60" y="22" id="Comedy_drama_text_2">(Dramedy)</tspan>
      </text>
    </g>
    <g transform="translate( 340, 360)" id="Mockumentary">
      <title id="Mockumentary_title"></title>
      <rect x="0"  y="0" width="120" height="30" id="Mochumentary_box" />
      <text x="60" y="15" id="Mockumentary_text">Mockumentary</text>
    </g>
    <g transform="translate( 340, 675)" id="Pornography">
      <title id="Pornography_title">Pornography</title>
      <rect x="0"  y="0" width="120" height="30" id="Pornography_box" />
      <text x="60" y="15" id="Pornography_text">Pornography</text>
    </g>
    <g transform="translate( 340, 720)" id="Spy_fiction">
      <title id="Spy_fiction_title">Spy fiction</title>
      <rect x="0"  y="0" width="120" height="30" id="Spy_fiction_box" />
      <text x="60" y="15" id="Spy_fiction_text">Spy fiction</text>
    </g>
    <g transform="translate( 360, 450)" id="Romantic_drama">
      <title id="Romantic_drama_title">Romantic drama</title>
      <rect x="0"  y="0" width="120" height="30" id="Romantic_drama_box" />
      <text x="60" y="15" id="Romantic_drama_text">
        <tspan x="60" y="8"  id="Romantic_drama_text_1">Romantic</tspan>
        <tspan x="60" y="22" id="Romantic_drama_text_2">drama</tspan>
      </text>
    </g>
    <g transform="translate( 360, 495)" id="Romantic_comedy">
      <title id="Romantic_comedy_title">Romantic comedy</title>
      <rect x="0"  y="0" width="120" height="30" id="Romantic_comedy_box" />
      <text x="60" y="15" id="Romantic_comedy_text">
        <tspan x="60" y="8"  id="Romantic_comedy_text_1">Romantic</tspan>
        <tspan x="60" y="22" id="Romantic_comedy_text_2">comedy</tspan>
      </text>
    </g>
    <g transform="translate( 360, 540)" id="Tragicomedy">
      <title id="Tragicomedy_title">Tragicomedy</title>
      <rect x="0"  y="0" width="120" height="30" id="Tragicomedy_box" />
      <text x="60" y="15" id="Tragicomedy_text">Tragicomedy</text>
    </g>
    <g transform="translate( 360, 915)" id="Weird_West">
      <title id="Weird_West_title">Weird West</title>
      <rect x="0"  y="0" width="120" height="30" id="Weird_West_box" />
      <text x="60" y="15" id="Weird_West_text">Weird West</text>
    </g>
    <g transform="translate( 360, 960)" id="Revisionist_Western">
      <title id="Revisionist_Western_title">Revisionist Western</title>
      <rect x="0"  y="0"   width="120" height="30" id="Revisionist_Western_box" />
      <text x="60" y="15" id="Revisionist_Western_text">
        <tspan x="60" y="8" id="Revisionist_Western_text_1">Revisionist</tspan>
        <tspan x="60" y="22" id="Revisionist_Western_text_2">Western</tspan>
      </text>
    </g>
    <g transform="translate( 380, 405)" id="Situation_comedy">
      <title id="Situation_comedy_title">Situation comedy</title>
      <rect x="0"  y="0" width="120" height="30" id="Situation_comedy_box" />
      <text x="60" y="15" id="Situation_comedy_text">
        <tspan x="60" y="8"  id="Situation_comedy_text_1">Situation</tspan>
        <tspan x="60" y="22" id="Situation_comedy_text_2">comedy</tspan>
      </text>
    </g>
    <g transform="translate( 400, 585)" id="Black_comedy">
      <title id="Black_comedy_title">Black comedy</title>
      <rect x="0"  y="0" width="120" height="30" id="Black_comedy_box" />
      <text x="60" y="15" id="Black_comedy_text">Black comedy</text>
    </g>
    <g transform="translate( 400, 630)" id="Parody">
      <title id="Parody_title">Parody</title>
      <rect x="0"  y="0" width="120" height="30" id="Parody_box" />
      <text x="60" y="15" id="Parody_text">Parody</text>
    </g>
    <g transform="translate( 400,1020)" id="Classic_Western">
      <title id="Classic_Western_title">Classic Western</title>
      <rect x="0"  y="0" width="120" height="30" id="Classic_Western_box" />
      <text x="60" y="15" id="Classic_Western_text">Classic Western</text>
    </g>
    <g transform="translate( 400,1065)" id="Contemporary_Western">
      <title id="Contemporary_Western_title">Contemporary Western</title>
      <rect x="0"  y="0" width="120" height="30" id="Contemporary_Western_box" />
      <text x="60" y="15" id="Contemporary_Western_text">
        <tspan x="60" y="8"  id="Contemporary_Western_text_1">Contemporary</tspan>
        <tspan x="60" y="22" id="Contemporary_Western_text_2">Western</tspan>
      </text>
    </g>
    <g transform="translate( 400,1110)" id="Epic_Western">
      <title id="Epic_Western_title">Epic Western</title>
      <rect x="0"  y="0" width="120" height="30" id="Epic_Western_box" />
      <text x="60" y="15" id="Epic_Western_text">Epic Western</text>
    </g>
    <g transform="translate( 400,1155)" id="Shoot_em_up">
      <title id="Shoot_em_up_title">Shoot 'em up</title>
      <rect x="0"  y="0" width="120" height="30" id="Shoot_em_up_box" />
      <text x="60" y="15" id="Shoot_em_up_text">Shoot 'em up</text>
    </g>
    <g transform="translate( 400,1200)" id="Singin_cowboy">
      <title id="Singing_cowboy_title">Singing cowboy</title>
      <rect x="0"  y="0" width="120" height="30" id="Singin_cowboy_box" />
      <text x="60" y="15" id="Singing_cowboy_text">Singing cowboy</text>
    </g>
    <g transform="translate( 400,1245)" id="Acid_Western">
      <title id="Acid_Western_title">Acid Western</title>
      <rect x="0"  y="0" width="120" height="30" id="Acid_Western_box" />
      <text x="60" y="15" id="Acid_Western_text">Acid Western</text>
    </g>
    <g transform="translate( 400,2220)" id="Spaghetti_Western">
      <title id="Spaghetti_Western_title">Spaghetti Western</title>
      <rect x="0"  y="0" width="120" height="30" id="Spaghetti_Western_box" />
      <text x="60" y="15" id="Spaghetti_Western_text">
        <tspan x="60" y="8"  id="Spaghetti_Western_text_1">Spaghetti</tspan>
        <tspan x="60" y="22" id="Spaghetti_Western_text_2">Western</tspan>
      </text>
    </g>
    <g transform="translate( 420, 180)" id="Reality">
      <title id="Reality_title">Reality</title>
      <rect x="0"  y="0" width="120" height="30" id="Reality_box" />
      <text x="60" y="15" id="Reality_text">Reality</text>
    </g>
    <g transform="translate( 460,   0)" id="Police_prodedural">
      <title id="Police_procedural_title">Police procedural</title>
      <rect x="0"  y="0" width="120" height="30" id="Police_prodedural_box" />
      <text x="60" y="15" id="Police_procedural_text">
        <tspan x="60" y="8"  id="Police_procedural_text_1">Police</tspan>
        <tspan x="60" y="22" id="Police_procedural_text_2">procedural</tspan>
      </text>
    </g>
    <g transform="translate( 560,1365)" id="Fantasy">
      <title id="Fantasy_title">Fantasy</title>
      <rect x="0"  y="0" width="120" height="30" id="Fantasy_box" />
      <text x="60" y="15" id="Fantasy_text">Fantasy</text>
    </g>
    <g transform="translate( 560,2130)" id="Disaster">
      <title id="Disaster_title">Disaster</title>
      <rect x="0"  y="0" width="120" height="30" id="Disaster_box" />
      <text x="60" y="15" id="Disaster_text">Disaster</text>
    </g>
    <g transform="translate( 560,2175)" id="Superhero">
      <title id="Superhero_title">Superhero</title>
      <rect x="0"  y="0" width="120" height="30" id="Superhero_box" />
      <text x="60" y="15" id="Superhero_text">Superhero</text>
    </g>
    <g transform="translate( 560,2220)" id="Ostern">
      <title id="Ostern_title">Ostern</title>
      <rect x="0"  y="0" width="120" height="30" id="Ostern_box" />
      <text x="60" y="15" id="Ostern_text">Ostern</text>
    </g>
    <g transform="translate( 560,2265)" id="Curry_Western">
      <title id="Curry_Western_title">Curry Western</title>
      <rect x="0"  y="0" width="120" height="30" id="Curry_Western_box" />
      <text x="60" y="15" id="Curry_Western_text">Curry Western</text>
    </g>
    <g transform="translate( 600, 885)" id="Science_fiction">
      <title id="Science_fiction_title">Science fiction</title>
      <rect x="0"  y="0" width="120" height="30" id="Science_fiction_box" />
      <text x="60" y="15" id="Science_fiction_text">Science fiction</text>
    </g>
    <g transform="translate( 600,1860)" id="Horror">
      <title id="Horror_title">Horror</title>
      <rect x="0"  y="0" width="120" height="30" id="Horror_box" />
      <text x="60" y="15" id="Horror_text">Horror</text>
    </g>
    <g transform="translate( 640,1305)" id="Punk">
      <title id="Punk_title">Punk</title>
      <rect x="0"  y="0" width="120" height="30" id="Punk_box" />
      <text x="60" y="15" id="Punk_text">Punk</text>
    </g>
    <g transform="translate( 680, 765)" id="Spy_fi">
      <title id="Spy_fi_title">Spy-fi</title>
      <rect x="0"  y="0" width="120" height="30" id="Spy_fi_box" />
      <text x="60" y="15" id="Spy_fi_text">Spy-fi</text>
    </g>
    <g transform="translate( 680,1995)" id="Eco_horror">
      <title id="Edo_horror_title">Eco horror</title>
      <rect x="0"  y="0" width="120" height="30" id="Eco_horror_box" />
      <text x="60" y="15" id="Eco_horror_text">Eco-horror</text>
    </g>
    <g transform="translate( 720,2130)" id="Doomsday">
      <title id="Doomsday_title">Doomsday</title>
      <rect x="0"  y="0" width="120" height="30" id="Doomsday_box" />
      <text x="60" y="15" id="Doomsday_text">Doomsday</text>
    </g>
    <g transform="translate( 720,2175)" id="Apocalyptic">
      <title id="Apocalyptic_title">Apocalyptic</title>
      <rect x="0"  y="0" width="120" height="30" id="Apocalyptic_box" />
      <text x="60" y="15" id="Apocalyptic_text">Apocalyptic</text>
    </g>
    <g transform="translate( 760,1020)" id="Science_fantasy">
      <title id="Science_fantasy_title">Science fantasy</title>
      <rect x="0"  y="0" width="120" height="30" id="Science_fantasy_box" />
      <text x="60" y="15" id="Science_fantasy_text">Science fantasy</text>
    </g>
    <g transform="translate( 760,1200)" id="Historical_fantasy">
      <title id="Historical_fantasy_title">Historical fantasy</title>
      <rect x="0"  y="0" width="120" height="30" id="Historical_fantasy_box" />
      <text x="60" y="15" id="Historical_fantasy_text">
        <tspan x="60" y="8"  id="Historical_fantasy_text_1">Historical</tspan>
        <tspan x="60" y="22" id="Historical_fantasy_text_2">fantasy</tspan>
      </text>
    </g>
    <g transform="translate( 740,1365)" id="High_fantasy">
      <title id="High_fantasy_title">High fantasy</title>
      <rect x="0"  y="0" width="120" height="30" id="High_fantasy_box" />
      <text x="60" y="15" id="High_fantasy_text">High fantasy</text>
    </g>
    <g transform="translate( 740,1410)" id="Heroic_fantasy">
      <title id="Heroic_fantasy_title">Heroic fantasy</title>
      <rect x="0"  y="0" width="120" height="30" id="Heroic_fantasy_box" />
      <text x="60" y="15" id="Heroic_fantasy_text">Heroic fantasy</text>
    </g>
    <g transform="translate( 740,1455)" id="Fairytale_fantasy">
      <title id="Fairytale_fantasy_title">Fairytale fantasy</title>
      <rect x="0"  y="0" width="120" height="30" id="Fairytale_fantasy_box" />
      <text x="60" y="15" id="Fairytale_fantasy_text">
        <tspan x="60" y="8" id="Fairytale_fantasy_text_1">Fairytale</tspan>
        <tspan x="60" y="22" id="Fairytale_fantasy_text_2">fantasy</tspan>
      </text>
    </g>
    <g transform="translate( 740,1500)" id="Contemporary_fantasy">
      <title id="Contemporary_fantasy_title">Contemporary fantasy</title>
      <rect x="0"  y="0" width="120" height="30" id="Contemporary_fantasy_box" />
      <text x="60" y="15" id="Contemporary_fantasy_text">
        <tspan x="60" y="8"  id="Contemporary_fantasy_text_1">Contemporary</tspan>
        <tspan x="60" y="22" id="Contemporary_fantasy_text_2">fantasy</tspan>
      </text>
    </g>
    <g transform="translate( 740,1545)" id="Low_fantasy">
      <title id="Low_fantasy_title">Low fantasy</title>
      <rect x="0" y="0" width="120" height="30" id="Low_fantasy_box" />
      <text x="60" y="15" id="Low_fantasy_text">Low fantasy</text>
    </g>
    <g transform="translate( 740,1590)" id="Sword_and_sorcery">
      <title id="Sword_and_sorcery_title">Sword and sorcery</title>
      <rect x="0"  y="0" width="120" height="30" id="Sword_and_sorcery_box" />
      <text x="60" y="15" id="Sword_and_sorcery_text">
        <tspan x="60" y="8"  id="Sword_and_sorcery_text_1">Sword and</tspan>
        <tspan x="60" y="22" id="Sword_and_sorcery_text_2">sorcery</tspan>
      </text>
    </g>
    <g transform="translate( 740,1635)" id="Romantic_fantasy">
      <title id="Romantic_fantasy_title">Romantic fantasy</title>
      <rect x="0"  y="0" width="120" height="30" id="Romantic_fantasy_box" />
      <text x="60" y="15" id="Romantic_fantasy_text">
        <tspan x="60" y="8" id="Romantic_fantasy_text_1">Romantic</tspan>
        <tspan x="60" y="22" id="Romantic_fantasy_text_2">fantasy</tspan>
      </text>
    </g>
    <g transform="translate( 740,1680)" id="Supernatural_fiction">
      <title id="Supernatural_fiction_title">Supernatural fiction</title>
      <rect x="0"  y="0" width="120" height="30" id="Supernatural_fiction_box" />
      <text x="60" y="15" id="Supernatural_fiction_text">
        <tspan x="60" y="8" id="Supernatural_fiction_text_1">Supernatural</tspan>
        <tspan x="60" y="22" id="Supernatural_fiction_text_2">fiction</tspan>
      </text>
    </g>
    <g transform="translate( 740,1770)" id="Splatterpunk">
      <title id="Splatterpunk_title">Splatterpunk</title>
      <rect x="0"  y="0" width="120" height="30" id="Splatterpunk_box" />
      <text x="60" y="15" id="Splatterpunk_text">Splatterpunk</text>
    </g>
    <g transform="translate( 740,1815)" id="Gothic_fiction">
      <title id="Ghotic_fiction_title">Gothic fiction</title>
      <rect x="0"  y="0" width="120" height="30" id="Gothic_fiction_box" />
      <text x="60"  y="15" id="Gothic_fiction_text">Gothic fiction</text>
    </g>
    <g transform="translate( 740,1725)" id="Dark_fantasy">
      <title id="Dark_fantasy_title">Dark fantasy</title>
      <rect x="0"  y="0" width="120" height="30" id="Dark_fantasy_box" />
      <text x="60" y="15" id="Dark_fantasy_text">Dark fantasy</text>
    </g>
    <g transform="translate( 780, 885)" id="Social_science_fiction">
      <title id="Social_science_fiction_title">Social science fiction</title>
      <rect x="0" y="0" width="120" height="30" id="Social_science_fiction_box" />
      <text x="60" y="15" id="Social_science_fiction_text">
        <tspan x="60" y="8"  id="Social_science_fiction_text_1">Social</tspan>
        <tspan x="60" y="22" id="Social_science_fiction_text_2">science fiction</tspan>
      </text>
    </g>
    <g transform="translate( 780, 930)" id="Science_fiction_Western">
      <title id="Science_fiction_Western_title">Science fiction Western</title>
      <rect x="0" y="0" width="120" height="30" id="Science_fiction_Western_box" />
      <text x="60" y="15" id="Science_fiction_Western_text">
        <tspan x="60" y="8"  id="Science_fiction_Western_text_1">Science fiction</tspan>
        <tspan x="60" y="22" id="Science_fiction_Western_text_2">Western</tspan>
      </text>
    </g>
    <g transform="translate( 780, 975)" id="Space_Western">
      <title id="Space_Western_title">Space Western</title>
      <rect x="0"  y="0" width="120" height="30" id="Space_Western_box" />
      <text x="60" y="15" id="Space_Western_text">Space Western</text>
    </g>
    <g transform="translate( 800,1275)" id="Mannerpunk">
      <title id="Mannerpunk_title">Mannerpunk</title>
      <rect x="0"  y="0" width="120" height="30" id="Mannerpunk_box" />
      <text x="60" y="15" id="Mannerpunk_text">Mannerpunk</text>
    </g>
    <g transform="translate( 800,1320)" id="Historical_high_fantasy">
      <title id="Historical_high_fantasy_title">Historical high fantasy</title>
      <rect x="0"  y="0" width="120" height="30" id="Historical_high_fantasy_box" />
      <text x="60" y="15" id="Historical_high_fantasy_text">
        <tspan x="60" y="8"  id="Historical_high_fantasy_text_1">Historical</tspan>
        <tspan x="60" y="22" id="Historical_high_fantasy_text_2">high fantasy</tspan>
      </text>
    </g>
    <g transform="translate( 840,1860)" id="Personality_horror">
      <title id="Personality_horror_title">Personality horror</title>
      <rect x="0"  y="0" width="120" height="30" id="Personality_horror_box" />
      <text x="60" y="15" id="Personality_horror_text">
        <tspan x="60" y="8"  id="Personality_horror_text_1">Personality</tspan>
        <tspan x="60" y="22" id="Personality_horror_text_2">horror</tspan>
      </text>
    </g>
    <g transform="translate( 840,1905)" id="Psychological_horror">
      <title id="Psychological_horror_title">Psychological horror</title>
      <rect x="0"  y="0" width="120" height="30" id="Psychological_horror_box" />
      <text x="60" y="15" id="Psychological_horror_text">
        <tspan x="60" y="8"  id="Psychological_horror_text_1">Psychological</tspan>
        <tspan x="60" y="22" id="Psychological_horror_text_2">horror</tspan>
      </text>
    </g>
    <g transform="translate( 840,1950)" id="Body_horror">
      <title id="Body_horror_title">Body horror</title>
      <rect x="0"  y="0" width="120" height="30" id="Body_horror_box" />
      <text x="60" y="15" id="Body_horror_text">Body horror</text>
    </g>
    <g transform="translate( 840,1995)" id="Slasher">
      <title id="Slasher_title">Slasher</title>
      <rect x="0"  y="0" width="120" height="30" id="Slasher_box" />
      <text x="60" y="15" id="Slasher_text">Slasher</text>
    </g>
    <g transform="translate( 840,2085)" id="Splatter">
      <title id="Splatter_title">Splatter</title>
      <rect x="0"  y="0" width="120" height="30" id="Splatter_box" />
      <text x="60" y="15" id="Splatter_text">Splatter</text>
    </g>
    <g transform="translate( 860,2175)" id="Post_apocalyptic">
      <title id="Post_apocalyptic_title">Post apocalyptic</title>
      <rect x="0"  y="0" width="120" height="30" id="Post_apocalyptic_box" />
      <text x="60" y="15" id="Post_apocalyptic_text">Post-apocalyptic</text>
    </g>
    <g transform="translate( 880,1455)" id="Mythic_fiction">
      <title id="Mythic_fiction_title">Mythic fiction</title>
      <rect x="0"  y="0" width="120" height="30" id="Mythic_fiction_box" />
      <text x="60" y="15" id="Mythic_fiction_text">Mythic fiction</text>
    </g>
    <g transform="translate( 900,1200)" id="Medieval_fantasy">
      <title id="Medieval_fantasy_title">Medieval fantasy</title>
      <rect x="0"  y="0" width="120" height="30" id="Medieval_fantasy_box" />
      <text x="60" y="15" id="Medieval_fantasy_text">
        <tspan x="60" y="8"  id="Medieval_fantasy_text_1">Medieval</tspan>
        <tspan x="60" y="22" id="Medieval_fantasy_text_2">fantasy</tspan>
      </text>
    </g>
    <g transform="translate( 900,1500)" id="Elfpunk">
      <title id="Elfpunk_title">Elfpunk</title>
      <rect x="0"  y="0" width="120" height="30" id="Elfpunk_box" />
      <text x="60" y="15" id="Elfpunk_text">Elfpunk</text>
    </g>
    <g transform="translate( 900,1545)" id="Urban_fantasy">
      <title id="Urban_fantasy_title">Urban fantasy</title>
      <rect x="0"  y="0" width="120" height="30" id="Urban_fantasy_box" />
      <text x="60" y="15" id="Urban_fantasy_text">Urban fantasy</text>
    </g>
    <g transform="translate( 900,1680)" id="Ghost_story">
      <title id="Ghost_story_title">Ghost story</title>
      <rect x="0"  y="0" width="120" height="30" id="Ghost_story_box" />
      <text x="60" y="15" id="Ghost_story_text">Ghost story</text>
    </g>
    <g transform="translate( 900,1725)" id="Fantastique">
      <title id="Fantastique_title">Fantastique</title>
      <rect x="0"  y="0" width="120" height="30" id="Fantastique_box" />
      <text x="60" y="15" id="Fantastique_text">Fantastique</text>
    </g>
    <g transform="translate( 920,1020)" id="Planetary_romance">
      <title id="Planetary_romance_title">Planetary romance</title>
      <rect x="0"  y="0" width="120" height="30" id="Planetary_romance_box" />
      <text x="60" y="15" id="Planetary_romance_text">
        <tspan x="60" y="8"  id="Planetary_romance_text_1">Planetary</tspan>
        <tspan x="60" y="22" id="Planetary_romance_text_2">romance</tspan>
      </text>
    </g>
    <g transform="translate( 920,1065)" id="Dying_Earth">
      <title id="Dying_Earth_title">Dying Earth</title>
      <rect x="0"  y="0" width="120" height="30" id="Dying_Earth_box" />
      <text x="60" y="15" id="Dying_Earth_text">Dying Earth</text>
    </g>
    <g transform="translate( 920,1110)" id="Sword_and_Planet">
      <title id="Sword_and_Planet_title">Sword and Planet</title>
      <rect x="0"  y="0" width="120" height="30" id="Sword_and_Planet_box" />
      <text x="60" y="15" id="Sword_and_planet_text">
        <tspan x="60" y="8"  id="Sword_and_planet_text_1">Sword and</tspan>
        <tspan x="60" y="22" id="Sword_and_planet_text_2">Planet</tspan>
      </text>
    </g>
    <g transform="translate( 920,1155)" id="Space_opera">
      <title id="Space_opera_title">Space opera</title>
      <rect x="0"  y="0" width="120" height="30" id="Space_opera_box" />
      <text x="60" y="15" id="Space_opera_text">Space opera</text>
    </g>
    <g transform="translate( 920,2040)" id="Torture_porn">
      <title id="Torture_porn_title">Torture porn</title>
      <rect x="0"  y="0" width="120" height="30" id="Torture_porn_box" />
      <text x="60" y="15" id="Torture_porn_text">Torture porn</text>
    </g>
    <g transform="translate( 940, 885)" id="Utopia">
      <title id="Utopia_title">Utopia</title>
      <rect x="0"  y="0" width="120" height="30" id="Utopia_box" />
      <text x="60" y="15" id="Utopia_text">Utopia</text>
    </g>
    <g transform="translate( 940, 930)" id="Dystopia">
      <title id="Dystopia_title">Dystopia</title>
      <rect x="0"  y="0" width="120" height="30" id="Dystopia_box" />
      <text x="60" y="15" id="Dystopia_text">Dystopia</text>
    </g>
    <g transform="translate( 940, 975)" id="Ecotopia">
      <title id="Ecotopia_title">Ecotopia</title>
      <rect x="0"  y="0" width="120" height="30" id="Ecotopia_box" />
      <text x="60" y="15" id="Ecotopia_text">Ecotopia</text>
    </g>
    <g transform="translate( 960,1245)" id="Cyberpunk">
      <title id="Cyberpunk_title">Cyberpunk</title>
      <rect x="0"  y="0" width="120" height="30" id="Cyberpunk_box" />
      <text x="60" y="15" id="Cyberpunk_text">Cyberpunk</text>
    </g>
    <g transform="translate( 960,1290)" id="Biopunk">
      <title id="Biopunk_title">Biopunk</title>
      <rect x="0"  y="0" width="120" height="30" id="Biopunk_box" />
      <text x="60" y="15" id="Biopunk_text">Biopunk</text>
    </g>
    <g transform="translate( 960,1335)" id="Retrofuturism">
      <title id="Retrofuturism_title">Retrofuturism</title>
      <rect x="0"  y="0" width="120" height="30" id="Retrofuturism_box" />
      <text x="60" y="15" id="Retrofuturism_text">Retrofuturism</text>
    </g>
    <g transform="translate(1000,2175)" id="Cozy_catastrophe">
      <title id="Cozy_catastrophe_title">Cozy catastrophe</title>
      <rect x="0"  y="0" width="120" height="30" id="Cozy_catastrophe_box" />
      <text x="60" y="15" id="Cozy_catastrophe_text">
        <tspan x="60" y="8"  id="Cozy_catastrophe_text_1">Cozy</tspan>
        <tspan x="60" y="22" id="Cozy_catastrophe_text_2">catastrophe</tspan>
      </text>
    </g>
    <g transform="translate(1020,1455)" id="Mythpunk">
      <title id="Mythpunk_title">Mythpunk</title>
      <rect x="0"  y="0"  width="120" height="30" id="Mythpunk_box" />
      <text x="60" y="15" id="Mythpunk_text">Mythpunk</text>
    </g>
    <g transform="translate(1060,1155)" id="Space_opera_noir">
      <title id="Space_opera_noir_title">Space opera noir</title>
      <rect x="0"  y="0" width="120" height="30" id="Space_opera_noir_box" />
      <text x="60" y="15" id="Space_opera_noir_text">
        <tspan x="60" y="8"  id="Space_opera_noir_text_1">Space opera</tspan>
        <tspan x="60" y="22" id="Space_opera_noir_text_2">noir</tspan>
      </text>
    </g>
    <g transform="translate(1120,1245)" id="Postcyberpunk">
      <title id="Postcyberpunk_title">Postcyberpunk</title>
      <rect x="0"  y="0" width="120" height="30" id="Postcyberpunk_box" />
      <text x="60" y="15" id="Postcyberpunk_text">Postcyberpunk</text>
    </g>
    <g transform="translate(1120,1290)" id="Cyberprep">
      <title id="Cyberprep_title">Cyberprep</title>
      <rect x="0"  y="0" width="120" height="30" id="Cyberprep_box" />
      <text x="60" y="15" id="Cyberprep_text">Cyberprep</text>
    </g>
    <g transform="translate(1180,1335)" id="Dieselpunk">
      <title id="Dieselpunk_title">Dieselpunk</title>
      <rect x="0"  y="0" width="120" height="30" id="Dieselpunk_box" />
      <text x="60" y="15" id="Dieselpunk_text">Dieselpunk</text>
    </g>
    <g transform="translate(1180,1425)" id="Clockpunk">
      <title id="Clockpunk_title">Clockpunk</title>
      <rect x="0"  y="0" width="120" height="30" id="Clockpunk_box" />
      <text x="60" y="15" id="Clockpunk_text">Clockpunk</text>
    </g>
    <g transform="translate(1180,1515)" id="Raypunk">
      <title id="Raypunk_title">Raypunk</title>
      <rect x="0"  y="0" width="120" height="30" id="Raypunk_box" />
      <text x="60" y="15" id="Raypunk_text">Raypunk</text>
    </g>
    <g transform="translate(1180,1560)" id="Rococopunk">
      <title id="Rococopunk_title">Rococopunk</title>
      <rect x="0"  y="0" width="120" height="30" id="Rococopunk_box" />
      <text x="60" y="15" id="Rococopunk_text">Rococopunk</text>
    </g>
    <g transform="translate(1180,1605)" id="Steampunk">
      <title id="Steampunk_title">Steampunk</title>
      <rect x="0"  y="0" width="120" height="30" id="Steampunk_box" />
      <text x="60" y="15" id="Steampunk_text">Steampunk</text>
    </g>
    <g transform="translate(1180,1650)" id="Steelpunk">
      <title id="Steelpunk_title">Steelpunk</title>
      <rect x="0"  y="0" width="120" height="30" id="Steelpunk_box" />
      <text x="60" y="15" id="Steelpunk_text">Steelpunk</text>
    </g>
    <g transform="translate(1260,1380)" id="Decopunk">
      <title id="Decopunk_title">Decopunk</title>
      <rect x="0"  y="0" width="120" height="30" id="Decopunk_box" />
      <text x="60" y="15" id="Decopunk_text">Decopunk</text>
    </g>
    <g transform="translate(1260,1470)" id="Atompunk">
      <title id="Atompunk_title">Atompunk</title>
      <rect x="0"  y="0" width="120" height="30" id="Atompunk_box" />
      <text x="60" y="15" id="Atompunk_text">Atompunk</text>
    </g>
    <g transform="translate(1420,1425)" id="Nowpunk">
      <title id="Nowpunk_title">Nowpunk</title>
      <rect x="0"  y="0" width="120" height="30" id="Nowpunk_box" />
      <text x="60" y="15" id="Nowpunk_text">Nowpunk</text>
    </g>
    <g transform="translate(1420,1470)" id="Stonepunk">
      <title id="Stonepunk_title">Stonepunk</title>
      <rect x="0"  y="0" width="120" height="30" id="Stonepunk_box" />
      <text x="60" y="15" id="Stonepunk_text">Stonepunk</text>
    </g>
    <g transform="translate(1420,1515)" id="Teslapunk">
      <title id="Teslapunk_title">Teslapunk</title>
      <rect x="0"  y="0" width="120" height="30" id="Teslapunk_box" />
      <text x="60" y="15" id="Teslapunk_text">Teslapunk</text>
    </g>
  </g>
</svg>
