<?xml version="1.0" encoding="UTF-8" standalone="no"?>
<svg
  xmlns="http://www.w3.org/2000/svg"
  xmlns:cc="http://creativecommons.org/ns#"
  xmlns:dc="http://purl.org/dc/elements/1.1/"
  xmlns:rdf="http://www.w3.org/1999/02/22-rdf-syntax-ns#"
  xmlns:svg="http://www.w3.org/2000/svg"
  xmlns:xlink="http://www.w3.org/1999/xlink"
  viewBox="0 0 874 874"
  width="874"
  height="874"
>
  <title id="Royal_chess_title">Royal chess</title>
  <metadata id="Royal_chess_chart_metadata">
    <rdf:RDF>
      <cc:Work rdf:about="">
        <dc:format>image/svg+xml</dc:format>
        <dc:type rdf:resource="http://purl.org/dc/dcmitype/StillImage" />
        <dc:title>Tracking chart for Expanded Alignments</dc:title>
        <dc:creator>
          <cc:Agent>
            <dc:title>Burge, Dawn M.</dc:title>
          </cc:Agent>
        </dc:creator>
        <dc:date>2020-03</dc:date>
        <dc:language>en-US</dc:language>
        <dc:description>
          The pieces specific to royal chess were created by Dawn M. Burge, however similar combination pieces have already been created by others.
        </dc:description>
      </cc:Work>
    </rdf:RDF>
  </metadata>
  <style id="Royal_chess_styles" type="text/css">
    g g:nth-child(odd)  g:nth-child(odd)  rect,
    g g:nth-child(even) g:nth-child(even) rect { fill: #eeeedd; stroke: #ccccbb; stroke-width: 1px; }

    g g:nth-child(odd)  g:nth-child(even) rect,
    g g:nth-child(even) g:nth-child(odd)  rect { fill: #ddddcc; stroke: #ccccbb; stroke-width: 1px; }

    text { font-family: sans-serif; font-size: 32px; fill: #027; text-anchor: middle; dominant-baseline: middle; text-align: center; }
    g.chart_highlight path { fill: none; stroke: #027; stroke-width:2px; }
  </style>
<g id="Royal_chess_board" transform="translate(5, 5)">
  <g>
    <g class="black rook" transform="translate(0, 0)">
      <title>black queen's rook</title>
      <rect x="0" y="0" width="72" height="72" />
      <text x="36" y="36" class="black rook">&#9820;</text>
    </g>
    <g class="black knight" transform="translate(72, 0)">
      <title>black queen's knight</title>
      <rect x="0" y="0" width="72" height="72" />
      <text x="36" y="36" class="black knight">&#9822;</text>
    </g>
    <g class="black marshal" transform="translate(144, 0)">
      <title>black queen's marshal</title>
      <rect x="0" y="0" width="72" height="72" />
      <text x="36" y="36" class="black marshal">&#9820;&#9822;</text>
    </g>
    <g class="black bishop" transform="translate(216, 0)">
      <title>black queen's bishop</title>
      <rect x="0" y="0" width="72" height="72" />
      <text x="36" y="36" class="black bishop">&#9821;</text>
    </g>
    <g class="black cardinal" transform="translate(288, 0)">
      <title>black queen's cardinal</title>
      <rect x="0" y="0" width="72" height="72" />
      <text x="36" y="36" class="black cardinal">&#9821;&#9822;</text>
    </g>
    <g class="black queen" transform="translate(360, 0)">
      <title>black queen</title>
      <rect x="0" y="0" width="72" height="72" />
      <text x="36" y="36" class="black queen">&#9819;</text>
    </g>
    <g class="black king" transform="translate(432, 0)">
      <title>black king</title>
      <rect x="0" y="0" width="72" height="72" />
      <text x="36" y="36" class="black king">&#9818;</text>
    </g>
    <g class="black cardinal" transform="translate(504, 0)">
      <title>black kings's cardinal</title>
      <rect x="0" y="0" width="72" height="72" />
      <text x="36" y="36" class="black cardinal">&#9821;&#9822;</text>
    </g>
    <g class="black bishop" transform="translate(576, 0)">
      <title>black king's bishop</title>
      <rect x="0" y="0" width="72" height="72" />
      <text x="36" y="36" class="black bishop">&#9821;</text>
    </g>
    <g class="black marshal" transform="translate(648, 0)">
      <title>black king's marshal</title>
      <rect x="0" y="0" width="72" height="72" />
      <text x="36" y="36" class="black marshal">&#9820;&#9822;</text>
    </g>
    <g class="black knight" transform="translate(720, 0)">
      <title>black king's knight</title>
      <rect x="0" y="0" width="72" height="72" />
      <text x="36" y="36" class="black knight">&#9822;</text>
    </g>
    <g class="black rook" transform="translate(792, 0)">
      <title>black king's rook</title>
      <rect x="0" y="0" width="72" height="72" />
      <text x="36" y="36" class="black rook">&#9820;</text>
    </g>
  </g>
  <g>
    <g class="black pawn" transform="translate(0, 72)">
      <title>black queens's rook's pawn</title>
      <rect x="0" y="0" width="72" height="72" />
      <text x="36" y="36" class="black pawn">&#9823;</text>
    </g>
    <g class="black squire" transform="translate(72, 72)">
      <title>black queens's squire</title>
      <rect x="0" y="0" width="72" height="72" />
      <text x="36" y="36" class="black squire">&#9820;&#9823;</text>
    </g>
    <g class="black squire" transform="translate(144, 72)">
      <title>black queens's squire</title>
      <rect x="0" y="0" width="72" height="72" />
      <text x="36" y="36" class="black squire">&#9820;&#9823;</text>
    </g>
    <g class="black novice" transform="translate(216, 72)">
      <title>black queens's novice</title>
      <rect x="0" y="0" width="72" height="72" />
      <text x="36" y="36" class="black novice">&#9823;&#9821;&#9823;</text>
    </g>
    <g class="black priest" transform="translate(288, 72)">
      <title>black queens's priest</title>
      <rect x="0" y="0" width="72" height="72" />
      <text x="36" y="36" class="black priest">&#9821;&#9823;</text>
    </g>
    <g class="black princess" transform="translate(360, 72)">
      <title>black princess</title>
      <rect x="0" y="0" width="72" height="72" />
      <text x="36" y="36" class="black princess">&#9819;&#9823;</text>
    </g>
    <g class="black prince" transform="translate(432, 72)">
      <title>black prince</title>
      <rect x="0" y="0" width="72" height="72" />
      <text x="36" y="36" class="black prince">&#9818;&#9823;</text>
    </g>
    <g class="black priest" transform="translate(504, 72)">
      <title>black king's priest</title>
      <rect x="0" y="0" width="72" height="72" />
      <text x="36" y="36" class="black priest">&#9821;&#9823;</text>
    </g>
    <g class="black novice" transform="translate(576, 72)">
      <title>black king's novice</title>
      <rect x="0" y="0" width="72" height="72" />
      <text x="36" y="36" class="black novice">&#9823;&#9821;&#9823;</text>
    </g>
    <g class="black squire" transform="translate(648, 72)">
      <title>black king's squire</title>
      <rect x="0" y="0" width="72" height="72" />
      <text x="36" y="36" class="black squire">&#9820;&#9823;</text>
    </g>
    <g class="black squire" transform="translate(720, 72)">
      <title>black king's squire</title>
      <rect x="0" y="0" width="72" height="72" />
      <text x="36" y="36" class="black squire">&#9820;&#9823;</text>
    </g>
    <g class="black pawn" transform="translate(792, 72)">
      <title>black king's rook's pawn</title>
      <rect x="0" y="0" width="72" height="72" />
      <text x="36" y="36" class="black pawn">&#9823;</text>
    </g>
  </g>
  <g>
    <g transform="translate(0, 144)">
      <rect x="0" y="0" width="72" height="72" />
    </g>
    <g class="black pawn" transform="translate(72, 144)">
     <title>black queens's pawn</title>
     <rect x="0" y="0" width="72" height="72" />
      <text x="36" y="36" class="black pawn">&#9823;</text>
    </g>
    <g class="black pawn" transform="translate(144, 144)">
      <title>black queens's pawn</title>
      <rect x="0" y="0" width="72" height="72" />
      <text x="36" y="36" class="black pawn">&#9823;</text>
    </g>
    <g class="black pawn" transform="translate(216, 144)">
      <title>black queens's pawn</title>
      <rect x="0" y="0" width="72" height="72" />
      <text x="36" y="36" class="black pawn">&#9823;</text>
    </g>
    <g class="black pawn" transform="translate(288, 144)">
      <title>black queens's pawn</title>
      <rect x="0" y="0" width="72" height="72" />
      <text x="36" y="36" class="black pawn">&#9823;</text>
    </g>
    <g class="black pawn" transform="translate(360, 144)">
      <title>black princess's pawn</title>
      <rect x="0" y="0" width="72" height="72" />
      <text x="36" y="36" class="black pawn">&#9823;</text>
    </g>
    <g class="black pawn" transform="translate(432, 144)">
      <title>black princes's pawn</title>
      <rect x="0" y="0" width="72" height="72" />
      <text x="36" y="36" class="black pawn">&#9823;</text>
    </g>
    <g class="black pawn" transform="translate(504, 144)">
      <title>black king's pawn</title>
      <rect x="0" y="0" width="72" height="72" />
      <text x="36" y="36" class="black pawn">&#9823;</text>
    </g>
    <g class="black pawn" transform="translate(576, 144)">
      <title>black king's pawn</title>
      <rect x="0" y="0" width="72" height="72" />
      <text x="36" y="36" class="black pawn">&#9823;</text>
    </g>
    <g class="black pawn" transform="translate(648, 144)">
      <title>black king's pawn</title>
      <rect x="0" y="0" width="72" height="72" />
      <text x="36" y="36" class="black pawn">&#9823;</text>
    </g>
    <g class="black pawn" transform="translate(720, 144)">
      <title>black king's pawn</title>
      <rect x="0" y="0" width="72" height="72" />
      <text x="36" y="36" class="black pawn">&#9823;</text>
    </g>
    <g transform="translate(792, 144)">
      <rect x="0" y="0" width="72" height="72" />
    </g>
  </g>
  <g>
    <g transform="translate(0, 216)">
      <rect x="0" y="0" width="72" height="72" />
    </g>
    <g transform="translate(72, 216)">
      <rect x="0" y="0" width="72" height="72" />
    </g>
    <g transform="translate(144, 216)">
      <rect x="0" y="0" width="72" height="72" />
    </g>
    <g transform="translate(216, 216)">
      <rect x="0" y="0" width="72" height="72" />
    </g>
    <g transform="translate(288, 216)">
      <rect x="0" y="0" width="72" height="72" />
    </g>
    <g transform="translate(360, 216)">
      <rect x="0" y="0" width="72" height="72" />
    </g>
    <g transform="translate(432, 216)">
      <rect x="0" y="0" width="72" height="72" />
    </g>
    <g transform="translate(504, 216)">
      <rect x="0" y="0" width="72" height="72" />
    </g>
    <g transform="translate(576, 216)">
      <rect x="0" y="0" width="72" height="72" />
    </g>
    <g transform="translate(648, 216)">
      <rect x="0" y="0" width="72" height="72" />
    </g>
    <g transform="translate(720, 216)">
      <rect x="0" y="0" width="72" height="72" />
    </g>
    <g transform="translate(792, 216)">
      <rect x="0" y="0" width="72" height="72" />
    </g>
  </g>
  <g>
    <g transform="translate(0, 288)">
      <rect x="0" y="0" width="72" height="72" />
    </g>
    <g transform="translate(72, 288)">
      <rect x="0" y="0" width="72" height="72" />
    </g>
    <g transform="translate(144, 288)">
      <rect x="0" y="0" width="72" height="72" />
    </g>
    <g transform="translate(216, 288)">
      <rect x="0" y="0" width="72" height="72" />
    </g>
    <g transform="translate(288, 288)">
      <rect x="0" y="0" width="72" height="72" />
    </g>
    <g transform="translate(360, 288)">
      <rect x="0" y="0" width="72" height="72" />
    </g>
    <g transform="translate(432, 288)">
      <rect x="0" y="0" width="72" height="72" />
    </g>
    <g transform="translate(504, 288)">
      <rect x="0" y="0" width="72" height="72" />
    </g>
    <g transform="translate(576, 288)">
      <rect x="0" y="0" width="72" height="72" />
    </g>
    <g transform="translate(648, 288)">
      <rect x="0" y="0" width="72" height="72" />
    </g>
    <g transform="translate(720, 288)">
      <rect x="0" y="0" width="72" height="72" />
    </g>
    <g transform="translate(792, 288)">
      <rect x="0" y="0" width="72" height="72" />
    </g>
  </g>
  <g>
    <g transform="translate(0, 360)">
      <rect x="0" y="0" width="72" height="72" />
    </g>
    <g transform="translate(72, 360)">
      <rect x="0" y="0" width="72" height="72" />
    </g>
    <g transform="translate(144, 360)">
      <rect x="0" y="0" width="72" height="72" />
    </g>
    <g transform="translate(216, 360)">
      <rect x="0" y="0" width="72" height="72" />
    </g>
    <g transform="translate(288, 360)">
      <rect x="0" y="0" width="72" height="72" />
    </g>
    <g transform="translate(360, 360)">
      <rect x="0" y="0" width="72" height="72" />
    </g>
    <g transform="translate(432, 360)">
      <rect x="0" y="0" width="72" height="72" />
    </g>
    <g transform="translate(504, 360)">
      <rect x="0" y="0" width="72" height="72" />
    </g>
    <g transform="translate(576, 360)">
      <rect x="0" y="0" width="72" height="72" />
    </g>
    <g transform="translate(648, 360)">
      <rect x="0" y="0" width="72" height="72" />
    </g>
    <g transform="translate(720, 360)">
      <rect x="0" y="0" width="72" height="72" />
    </g>
    <g transform="translate(792, 360)">
      <rect x="0" y="0" width="72" height="72" />
    </g>
  </g>
  <g>
    <g transform="translate(0, 432)">
      <rect x="0" y="0" width="72" height="72" />
    </g>
    <g transform="translate(72, 432)">
      <rect x="0" y="0" width="72" height="72" />
    </g>
    <g transform="translate(144, 432)">
      <rect x="0" y="0" width="72" height="72" />
    </g>
    <g transform="translate(216, 432)">
      <rect x="0" y="0" width="72" height="72" />
    </g>
    <g transform="translate(288, 432)">
      <rect x="0" y="0" width="72" height="72" />
    </g>
    <g transform="translate(360, 432)">
      <rect x="0" y="0" width="72" height="72" />
    </g>
    <g transform="translate(432, 432)">
      <rect x="0" y="0" width="72" height="72" />
    </g>
    <g transform="translate(504, 432)">
      <rect x="0" y="0" width="72" height="72" />
    </g>
    <g transform="translate(576, 432)">
      <rect x="0" y="0" width="72" height="72" />
    </g>
    <g transform="translate(648, 432)">
      <rect x="0" y="0" width="72" height="72" />
    </g>
    <g transform="translate(720, 432)">
      <rect x="0" y="0" width="72" height="72" />
    </g>
    <g transform="translate(792, 432)">
      <rect x="0" y="0" width="72" height="72" />
    </g>
  </g>
  <g>
    <g transform="translate(0, 504)">
      <rect x="0" y="0" width="72" height="72" />
    </g>
    <g transform="translate(72, 504)">
      <rect x="0" y="0" width="72" height="72" />
    </g>
    <g transform="translate(144, 504)">
      <rect x="0" y="0" width="72" height="72" />
    </g>
    <g transform="translate(216, 504)">
      <rect x="0" y="0" width="72" height="72" />
    </g>
    <g transform="translate(288, 504)">
      <rect x="0" y="0" width="72" height="72" />
    </g>
    <g transform="translate(360, 504)">
      <rect x="0" y="0" width="72" height="72" />
    </g>
    <g transform="translate(432, 504)">
      <rect x="0" y="0" width="72" height="72" />
    </g>
    <g transform="translate(504, 504)">
      <rect x="0" y="0" width="72" height="72" />
    </g>
    <g transform="translate(576, 504)">
      <rect x="0" y="0" width="72" height="72" />
    </g>
    <g transform="translate(648, 504)">
      <rect x="0" y="0" width="72" height="72" />
    </g>
    <g transform="translate(720, 504)">
      <rect x="0" y="0" width="72" height="72" />
    </g>
    <g transform="translate(792, 504)">
      <rect x="0" y="0" width="72" height="72" />
    </g>
  </g>
  <g>
    <g transform="translate(0, 576)">
      <rect x="0" y="0" width="72" height="72" />
    </g>
    <g transform="translate(72, 576)">
      <rect x="0" y="0" width="72" height="72" />
    </g>
    <g transform="translate(144, 576)">
      <rect x="0" y="0" width="72" height="72" />
    </g>
    <g transform="translate(216, 576)">
      <rect x="0" y="0" width="72" height="72" />
    </g>
    <g transform="translate(288, 576)">
      <rect x="0" y="0" width="72" height="72" />
    </g>
    <g transform="translate(360, 576)">
      <rect x="0" y="0" width="72" height="72" />
    </g>
    <g transform="translate(432, 576)">
      <rect x="0" y="0" width="72" height="72" />
    </g>
    <g transform="translate(504, 576)">
      <rect x="0" y="0" width="72" height="72" />
    </g>
    <g transform="translate(576, 576)">
      <rect x="0" y="0" width="72" height="72" />
    </g>
    <g transform="translate(648, 576)">
      <rect x="0" y="0" width="72" height="72" />
    </g>
    <g transform="translate(720, 576)">
      <rect x="0" y="0" width="72" height="72" />
    </g>
    <g transform="translate(792, 576)">
      <rect x="0" y="0" width="72" height="72" />
    </g>
  </g>
  <g>
    <g transform="translate(0, 648)">
      <rect x="0" y="0" width="72" height="72" />
    </g>
    <g class="white pawn" transform="translate(72, 648)">
      <title>white queen's pawn</title>
      <rect x="0" y="0" width="72" height="72" />
      <text x="36" y="36" class="white pawn">&#9817;</text>
    </g>
    <g class="white pawn" transform="translate(144, 648)">
      <title>white queen's pawn</title>
      <rect x="0" y="0" width="72" height="72" />
      <text x="36" y="36" class="white pawn">&#9817;</text>
    </g>
    <g class="white pawn" transform="translate(216, 648)">
      <title>white queen's pawn</title>
      <rect x="0" y="0" width="72" height="72" />
      <text x="36" y="36" class="white pawn">&#9817;</text>
    </g>
    <g class="white pawn" transform="translate(288, 648)">
      <title>white queen's pawn</title>
      <rect x="0" y="0" width="72" height="72" />
      <text x="36" y="36" class="white pawn">&#9817;</text>
    </g>
    <g class="white pawn" transform="translate(360, 648)">
      <title>white princess's pawn</title>
      <rect x="0" y="0" width="72" height="72" />
      <text x="36" y="36" class="white pawn">&#9817;</text>
    </g>
    <g class="white pawn" transform="translate(432, 648)">
      <title>white prince's pawn</title>
      <rect x="0" y="0" width="72" height="72" />
      <text x="36" y="36" class="white pawn">&#9817;</text>
    </g>
    <g class="white pawn" transform="translate(504, 648)">
      <title>white kings's pawn</title>
      <rect x="0" y="0" width="72" height="72" />
      <text x="36" y="36" class="white pawn">&#9817;</text>
    </g>
    <g class="white pawn" transform="translate(576, 648)">
      <title>white kings's pawn</title>
      <rect x="0" y="0" width="72" height="72" />
      <text x="36" y="36" class="white pawn">&#9817;</text>
    </g>
    <g class="white pawn" transform="translate(648, 648)">
      <title>white kings's pawn</title>
      <rect x="0" y="0" width="72" height="72" />
      <text x="36" y="36" class="white pawn">&#9817;</text>
    </g>
    <g class="white pawn" transform="translate(720, 648)">
      <title>white kings's pawn</title>
      <rect x="0" y="0" width="72" height="72" />
      <text x="36" y="36" class="white pawn">&#9817;</text>
    </g>
    <g transform="translate(792, 648)">
      <rect x="0" y="0" width="72" height="72" />
    </g>
  </g>
  <g>
    <g class="white pawn" transform="translate(0, 720)">
      <title>white queen's rook's pawn</title>
      <rect x="0" y="0" width="72" height="72" />
      <text x="36" y="36" class="white pawn">&#9817;</text>
    </g>
    <g class="white squire" transform="translate(72, 720)">
      <title>white queen's squire</title>
      <rect x="0" y="0" width="72" height="72" />
      <text x="36" y="36" class="white squire">&#9814;&#9817;</text>
    </g>
    <g class="white squire" transform="translate(144, 720)">
      <title>white queen's squire</title>
      <rect x="0" y="0" width="72" height="72" />
      <text x="36" y="36" class="white squire">&#9814;&#9817;</text>
    </g>
    <g class="white novice" transform="translate(216, 720)">
      <title>white queen's novice</title>
      <rect x="0" y="0" width="72" height="72" />
      <text x="36" y="36" class="white novice">&#9817;&#9815;&#9817;</text>
    </g>
    <g class="white priest" transform="translate(288, 720)">
      <title>white queen's priest</title>
      <rect x="0" y="0" width="72" height="72" />
      <text x="36" y="36" class="white priest">&#9815;&#9817;</text>
    </g>
    <g class="white princess" transform="translate(360, 720)">
      <title>white princess</title>
      <rect x="0" y="0" width="72" height="72" />
      <text x="36" y="36" class="white princess">&#9813;&#9817;</text>
    </g>
    <g class="white prince" transform="translate(432, 720)">
      <title>white prince</title>
      <rect x="0" y="0" width="72" height="72" />
      <text x="36" y="36" class="white prince">&#9812;&#9817;</text>
    </g>
    <g class="white priest" transform="translate(504, 720)">
      <title>white king's priest</title>
      <rect x="0" y="0" width="72" height="72" />
      <text x="36" y="36" class="white priest">&#9815;&#9817;</text>
    </g>
    <g class="white novice" transform="translate(576, 720)">
      <title>white king's novice</title>
      <rect x="0" y="0" width="72" height="72" />
      <text x="36" y="36" class="white novice">&#9817;&#9815;&#9817;</text>
    </g>
    <g class="white squire" transform="translate(648, 720)">
      <title>white king's squire</title>
      <rect x="0" y="0" width="72" height="72" />
      <text x="36" y="36" class="white squire">&#9814;&#9817;</text>
    </g>
    <g class="white squire" transform="translate(720, 720)">
      <title>white king's squire</title>
      <rect x="0" y="0" width="72" height="72" />
      <text x="36" y="36" class="white squire">&#9814;&#9817;</text>
    </g>
    <g class="white pawn" transform="translate(792, 720)">
      <title>white king's rook's pawn</title>
      <rect x="0" y="0" width="72" height="72" />
      <text x="36" y="36" class="white pawn">&#9817;</text>
    </g>
  </g>
  <g>
    <g class="white rook" transform="translate(0, 792)">
      <title>white queen's rook</title>
      <rect x="0" y="0" width="72" height="72" />
      <text x="36" y="36" class="white rook">&#9814;</text>
    </g>
    <g class="white knight" transform="translate(72, 792)">
      <title>white queen's knight</title>
      <rect x="0" y="0" width="72" height="72" />
      <text x="36" y="36" class="white knight">&#9816;</text>
    </g>
    <g class="white marshal" transform="translate(144, 792)">
      <title>white queen's marshal</title>
      <rect x="0" y="0" width="72" height="72" />
      <text x="36" y="36" class="white marshal">&#9814;&#9816;</text>
    </g>
    <g class="white bishop" transform="translate(216, 792)">
      <title>white queen's bishop</title>
      <rect x="0" y="0" width="72" height="72" />
      <text x="36" y="36" class="white bishop">&#9815;</text>
    </g>
    <g class="white cardinal" transform="translate(288, 792)">
      <title>white queen's cardinal</title>
      <rect x="0" y="0" width="72" height="72" />
      <text x="36" y="36" class="white cardinal">&#9815;&#9816;</text>
    </g>
    <g class="white queen" transform="translate(360, 792)">
      <title>white queen</title>
      <rect x="0" y="0" width="72" height="72" />
      <text x="36" y="36" class="white queen">&#9813;</text>
    </g>
    <g class="white king" transform="translate(432, 792)">
      <title>white king</title>
      <rect x="0" y="0" width="72" height="72" />
      <text x="36" y="36" class="white king">&#9812;</text>
    </g>
    <g class="white cardinal" transform="translate(504, 792)">
      <title>white king's cardinal</title>
      <rect x="0" y="0" width="72" height="72" />
      <text x="36" y="36" class="white cardinal">&#9815;&#9816;</text>
    </g>
    <g class="white bishop" transform="translate(576, 792)">
      <title>white king's bishop</title>
      <rect x="0" y="0" width="72" height="72" />
      <text x="36" y="36" class="white bishop">&#9815;</text>
    </g>
    <g class="white marshal" transform="translate(648, 792)">
      <title>white king's marshal</title>
      <rect x="0" y="0" width="72" height="72" />
      <text x="36" y="36" class="white marshal">&#9814;&#9816;</text>
    </g>
    <g class="white knight" transform="translate(720, 792)">
      <title>white king's knight</title>
      <rect x="0" y="0" width="72" height="72" />
      <text x="36" y="36" class="white knight">&#9816;</text>
    </g>
    <g class="white rook" transform="translate(792, 792)">
      <title>white king's rook</title>
      <rect x="0" y="0" width="72" height="72" />
      <text x="36" y="36" class="white rook">&#9814;</text>
    </g>
  </g>
  <g class="chart_highlight">
    <path d="m 0, 0 h 864 v 864 h -864 z" />
  </g>
</g>
  <!--
  Generated using the Perl SVG Module V2.84
  by Ronan Oger
  Info: http://www.roitsystems.com/
  -->
</svg>
