<?xml version="1.0" encoding="UTF-8" standalone="no"?>
<?xml-stylesheet href="../../../../css/family_tree.css" type="text/css"?>
<svg
  xmlns="http://www.w3.org/2000/svg"
  xmlns:xlink="http://www.w3.org/1999/xlink"
  xmlns:rdf="http://www.w3.org/1999/02/22-rdf-syntax-ns#"
  xmlns:dc="http://purl.org/dc/elements/1.1/"
  xmlns:cc="http://creativecommons.org/ns#"
  viewBox="0 0 574 220"
  width="574"
  height="220"
  >
  <title id="Castle_title">The Castle family from Castle</title>
  <metadata id="Castle_metadata">
    <rdf:RDF>
      <cc:Work rdf:about="">
        <dc:format>image/svg+xml</dc:format>
        <dc:type rdf:resource="http://purl.org/dc/dcmitype/StillImage" />
        <dc:title>The Castle family from Castke</dc:title>
        <dc:creator>
          <cc:Agent>
            <dc:title>Burge, Dawn M.</dc:title>
          </cc:Agent>
        </dc:creator>
        <dc:language>en-US</dc:language>
        <dc:date>2020-03</dc:date>
      </cc:Work>
    </rdf:RDF>
  </metadata>
  <style id="Family_styles" type="text/css">
    @import url(../../../../css/family_tree.css);
    g.deceased.male   rect { fill: url(#m_dead); }
    g.deceased.female rect { fill: url(#f_dead); }
  </style>
  <defs id="Family_defs">
    <radialGradient id="m_dead">
      <stop id="mds1" style="stop-color:#ccccff;stop-opacity:0.85;" offset="75%" />
      <stop id="mds2" style="stop-color:#eeeeff;stop-opacity:0.85;" offset="100%" />
    </radialGradient>
    <radialGradient id="f_dead">
      <stop id="fds1" style="stop-color:#ffcccc;stop-opacity:0.85;" offset="75%" />
      <stop id="fds2" style="stop-color:#ffeeee;stop-opacity:0.85;" offset="100%" />
    </radialGradient>
  </defs>
  <!--
    Family paths generated using the Perl SVG Module V2.84 by Ronan Oger Info: http://www.roitsystems.com/
    Edited with Geany 1.33 (built on 2018-04-16 with GTK 3.22.29, GLib 2.56.1)
  -->
  <g id="Castle" class="graph" transform="translate(5,215)">
    <title>The Castle family</title>
    <text x="287" y="-203" class="chart_title">The Castle family from <tspan style="font-style:italic">Castle</tspan></text>

    <g class="marriage" id="Hunt-marriage" transform="translate(150,-170)">
      <title>Marriage of Rita and Jackson Hunt</title>
      <path d="m 0,0 h -19" id="mRitJac-Rita" />
      <path d="m 0,0 h  19" id="mRitJac-JacksonHunt" />
      <circle cx="0" cy="0" id="mRitJac" r="1.5" />
    </g>
    <g class="affair" id="RogersHunt-affair" transform="translate(248,-170)">
      <title>Affair of Martha Rogers and Jackson Hunt</title>
      <path d="m 0,0 h -19" id="aMarJac-JacksonHunt" />
      <path d="m 0,0 h  19" id="aMarJac-MarthaRogers" />
      <g class="child" id="">
        <title>Richard Castle, child of Martha Rogers and Jackson Hunt</title>
        <path d="m 0,0 v  58" id="aMarJac-RichardCastle" />
      </g>
      <circle cx="0" cy="0" id="aMarJac" r="1.5" />
    </g>
    <g class="marriage" id="Beckett-family" transform="translate(429,-170)">
      <title>Marriage of Johanna and James Beckett</title>
      <path d="m 0,0 h -19" id="mJohJam-JamesBeckett" />
      <path d="m 0,0 h  19" id="mJohJam-Johanna" />
      <g class="child" id="">
        <title>Katherine Beckett, child of Johanna and James Beckett</title>
        <path d="m 0,0 v  58" id="mJohJam-KatherineBeckett" />
      </g>
      <circle cx="0" cy="0" id="mJohJam" r="1.5" />
    </g>

    <g class="marriage" id="Cowell-Castle-marriage" transform="translate(137,-66)">
      <title>Marriage of Regina Cowell and Richard Castle,&#10;Richard's second marriage</title>
      <path d="m 0,0 h -67 l -14,-28" id="mRegRic-ReginaCowell" />
      <path d="m 0,0 h  67 l  14,-28" id="mRegRic-RichardCastle" />
      <circle cx="0" cy="0" id="mRegRic" r="1.5" />
    </g>
    <g class="marriage" id="Castle-family1" transform="translate(181,-94)">
      <title>Marriage of Meredith Harper and Richard Castle,&#10;Richard's first marriage</title>
      <path d="m 0,0 h -19" id="mMerRic-MeredithHarper" />
      <path d="m 0,0 h  37" id="mMerRic-RichardCastle" />
      <g class="child" id="">
        <title>Alexis Castle, daughter of Meredith Harper and Richard Castle</title>
        <path d="m 0,0 v  58" id="mMerRic-AlexisCastle" />
      </g>
      <circle cx="0" cy="0" id="mMerRic" r="1.5" />
    </g>
    <g class="marriage" id="Castle-family2" transform="translate(335,-94)">
      <title>Marriage of Katherine Beckett and Richard Castle,&#10;Katherine's second marriage,&#10;Richard's third marriage</title>
      <path d="m 0,0 h -57" id="mKatRic-RichardCastle" />
      <path d="m 0,0 h  57" id="mKatRic-KatherineBeckett" />
      <g class="child" id="">
        <title>Children of Katherine Beckett and Richard Castle</title>
        <path d="m 0,0  v  38" id="cKatRic-KatRic" />
        <path d="m 0,38 h -76 v  20" id="cKatRic-LilyCastle" />
        <path d="m 0,38 h   0 v  20" id="cKatRic-JakeCastle" />
        <path d="m 0,38 h  76 v  20" id="cKatRic-ReeceCastle" />
        <circle cx="0" cy="38" id="cKatRic" r="1.5" />
      </g>
      <circle cx="0" cy="0" id="mKatRic" r="1.5" />
    </g>
    <g class="marriage" id="Beckett-OLeary-marriage" transform="translate(485,-94)">
      <title>Marriage of Katherine Beckett and Rogan O'Leary,&#10;Katherine's first marriage </title>
      <path d="m 0,0 h -19" id="mKatRog-KatherineBeckett" />
      <path d="m 0,0 h  19" id="mKatRog-RoganOLeary" />
      <circle cx="0" cy="0" id="mKatRog" r="1.5" />
    </g>

    <g id="Rita" class="female" transform="translate(77,-188)">
      <title>Rita</title>
      <rect x="0" y="0" width="54" height="36" />
      <text x="27" y="18">Rita</text>
    </g>
    <g id="JacksonHunt" class="male" transform="translate(169,-188)">
      <title>Jackson Hunt</title>
      <rect x="0" y="0" width="60" height="36" />
      <text x="30" y="12">Jackson</text>
      <text x="30" y="24">Hunt</text>
    </g>
    <g id="MarthaRogers" class="female" transform="translate(267,-188)">
      <title>Martha Rogers</title>
      <rect x="0" y="0" width="60" height="36" />
      <text x="30" y="12">Martha</text>
      <text x="30" y="24">Rogers</text>
    </g>
    <g id="JamesBeckett" class="male" transform="translate(350,-188)">
      <title>James Beckett</title>
      <rect x="0" y="0" width="60" height="36" />
      <text x="30" y="12">James</text>
      <text x="30" y="24">Beckett</text>
    </g>
    <g id="Johanna" class="female deceased" transform="translate(448,-188)">
      <title>Johanna</title>
      <rect x="0" y="0" width="60" height="36" />
      <text x="30" y="18">Johanna</text>
    </g>

    <g id="GinaCowell" class="female" transform="translate(0,-112)">
      <title>Gina Cowell</title>
      <rect x="0" y="0" width="56" height="36" />
      <text x="28" y="12">Gina</text>
      <text x="28" y="24">Cowell</text>
    </g>
    <g id="MeredithLeeHarper" class="female" transform="translate(94, -114)">
      <title>Meredith Lee Harper</title>
      <rect height="40" width="68" x="0" y="0" />
      <text x="34" y="8">Meredith</text>
      <text x="34" y="20">Lee</text>
      <text x="34" y="32">Harper</text>
    </g>
    <g id="RichardEdgarCastle" class="male" transform="translate(218, -114)">
      <title>Richard Edgar Castle&#10;(Richard Alexander Rogers)</title>
      <rect height="40" width="60" x="0" y="0" />
      <text x="30" y="8">Richard</text>
      <text x="30" y="20">Edgar</text>
      <text x="30" y="32">Castle</text>
    </g>
    <g class="female" id="KatherineHoughtonBeckett" transform="translate(392, -114)">
      <title>Katherine Houghton Beckett</title>
      <rect height="40" width="74" x="0" y="0" />
      <text x="37" y="8">Katherine</text>
      <text x="37" y="20">Houghton</text>
      <text x="37" y="32">Beckett</text>
    </g>
    <g id="RoganOLeary" class="male" transform="translate(504,-112)">
      <title>Rogan O'Leary</title>
      <rect x="0" y="0" width="60" height="36" />
      <text x="30" y="12">Rogan</text>
      <text x="30" y="24">O'Leary</text>
    </g>

    <g id="AlexisCastle" class="female main" transform="translate(151,-38)">
      <title>Alexis Harper Castle</title>
      <rect x="0" y="0" width="60" height="40" />
      <text x="30" y="8">Alexis</text>
      <text x="30" y="20">Harper</text>
      <text x="30" y="32">Castle</text>
    </g>
    <g id="LilyCastle" class="female" transform="translate(231,-36)">
      <title>Lily Castle</title>
      <rect x="0" y="0" width="56" height="36" />
      <text x="28" y="12">Lily</text>
      <text x="28" y="24">Castle</text>
    </g>
    <g id="JakeCastle" class="male" transform="translate(307,-36)">
      <title>Jake Castle</title>
      <rect x="0" y="0" width="56" height="36" />
      <text x="28" y="12">Jake</text>
      <text x="28" y="24">Castle</text>
    </g>
    <g id="ReeceCastle" class="male" transform="translate(383,-36)">
      <title>Reece Castle</title>
      <rect x="0" y="0" width="56" height="36" />
      <text x="28" y="12">Reece</text>
      <text x="28" y="24">Castle</text>
    </g>

  </g>
</svg>